<?xml version="1.0" encoding="UTF-8"?>
<!DOCTYPE svg PUBLIC "-//W3C//DTD SVG 1.1//EN" "http://www.w3.org/Graphics/SVG/1.1/DTD/svg11.dtd">
<!-- Creator: CorelDRAW 2020 (64-Bit) -->
<svg xmlns="http://www.w3.org/2000/svg" xml:space="preserve" width="171.462mm" height="22.1998mm" version="1.1" style="shape-rendering:geometricPrecision; text-rendering:geometricPrecision; image-rendering:optimizeQuality; fill-rule:evenodd; clip-rule:evenodd"
viewBox="0 0 18510.22 2396.59"
 xmlns:xlink="http://www.w3.org/1999/xlink"
 xmlns:xodm="http://www.corel.com/coreldraw/odm/2003">
 <defs>
  <style type="text/css">
   <![CDATA[
    .str0 {stroke:#373435;stroke-width:21.59;stroke-miterlimit:22.9256}
    .fil0 {fill:black}
   ]]>
  </style>
 </defs>
 <g id="Capa_x0020_1">
  <metadata id="CorelCorpID_0Corel-Layer"/>
  <path class="fil0 str0" d="M16830.96 10.8c-116.41,0 -213.41,97.78 -213.41,215.23 0,120.28 97,215.37 213.41,215.37 119.23,0 216.15,-100.72 216.15,-215.37 0,-120.2 -96.92,-215.23 -216.15,-215.23zm-15123.95 101.42c-440.59,54.3 -866.13,134.63 -1292.72,258.28 -55.56,17.45 -89.75,79.62 -75.75,134.76 31.16,122.95 46.92,184.57 78.63,307.87 13.44,52.12 65.84,78.85 119.01,61.19 435.8,-134.12 872.81,-225.92 1323.6,-292.74 51.7,-6.89 79.83,-60.35 60.84,-114.01 -40.02,-112.96 -60.14,-169.3 -101.08,-281.63 -17.37,-47.68 -64.43,-78.98 -112.53,-73.71zm8987.28 13.08c-110.85,0 -321.36,61.55 -418.43,134.27l0 1795.13 418.43 0 0 -1929.41zm4717.56 0c-108.11,0 -321.51,61.55 -418.57,134.27l0 1714.18c138.56,64.29 368.63,108.95 607.08,108.95 487.79,0 787.07,-293.58 787.07,-802.54 0,-363.5 -169.09,-651.6 -582.11,-651.6 -130.19,0 -274.24,55.91 -393.46,159.37l0 -662.64zm-11910.2 67.1c-202.35,0 -374.04,22.43 -601.3,55.99l0 1806.32 681.69 0c371.45,0 698.45,-217.97 698.45,-545.11 0,-248.85 -108.04,-402.75 -360.27,-475.48 163.54,-64.29 255.04,-181.74 255.04,-357.94 0,-307.59 -299.49,-483.78 -673.68,-483.78l0.06 0zm0 352.39c174.65,0 255.04,81.03 255.04,195.68 0,120.2 -77.65,190.26 -243.92,190.26l-188.44 0 0 -371.95c58.24,-8.37 119.15,-13.99 177.32,-13.99zm4645.61 81.1c-437.92,0 -776.17,257.37 -776.17,746.69 0,452.97 280.08,710.26 706.88,710.26 124.71,0 282.62,-28.06 435.1,-89.54l-74.9 -335.44c-102.48,36.37 -185.69,50.3 -257.79,50.3 -263.27,0 -368.71,-137.08 -368.71,-360.75 0,-220.93 113.74,-366.17 393.6,-366.17 44.38,0 121.97,11.18 169.09,25.11 63.73,-69.92 121.97,-192.94 138.56,-332.76 -133.08,-30.75 -243.85,-47.55 -365.82,-47.55l0.14 -0.14zm1169.56 0c-424.06,0 -723.34,279.73 -723.34,727.14 0,441.85 282.69,729.81 723.34,729.81 437.92,0 723.34,-279.66 723.34,-729.81 0,-436.23 -282.68,-727.14 -723.34,-727.14zm2336.52 0c-424.06,0 -723.34,279.73 -723.34,727.14 0,441.85 282.69,729.81 723.34,729.81 437.92,0 723.34,-279.66 723.34,-729.81 0,-436.23 -282.68,-727.14 -723.34,-727.14zm-5050.18 2.74c-230.06,0 -512.68,64.36 -687.33,181.82l-2.67 1244.48 418.5 0 0 -1048.66c52.68,-13.99 113.59,-22.43 177.32,-22.43 169.09,0 266.23,75.47 266.23,223.67l-0.08 847.42 415.77 0 0 -995.48c0,-271.29 -268.91,-430.82 -587.67,-430.82l-0.08 0zm6630.16 0c-219.03,0 -479.48,64.36 -645.83,181.82l-2.68 1244.48 418.43 0 0 -1048.66c52.68,-13.99 113.59,-22.43 177.32,-22.43 166.28,0 260.6,75.47 260.6,223.67l0 847.42 413.02 0 0 -827.87c0,-72.73 -11.12,-139.69 -33.41,-201.24 61.05,-25.18 135.75,-41.98 213.41,-41.98 166.27,0 260.45,75.47 260.45,223.67l0 847.42 413.09 0 0 -995.55c0,-268.47 -235.42,-430.81 -537.58,-430.81 -166.27,0 -363.15,61.55 -504.59,153.83 -108.11,-95.02 -257.65,-153.76 -432.22,-153.76zm3600.33 0c-80.39,0 -152.36,14.14 -210.52,39.32l0 1386.98 418.57 0 0 -1387.04c-58.24,-25.11 -127.73,-39.25 -208.05,-39.25zm-11801.03 2.82c-182.95,0 -351.9,44.8 -523.8,109.16l33.2 100.51c44.38,123.03 97,165.15 163.53,165.15 27.71,0 241.12,-36.43 321.51,-36.43 152.42,0 221.77,44.74 230.14,218.11 -457.33,14 -842.56,111.84 -842.56,511.77 0,265.67 241.18,385.94 532.24,385.94 327.06,0 568.18,-61.62 717.78,-176.27l-0.08 -735.43c0,-391.5 -232.88,-542.44 -632.05,-542.44l0.08 -0.06zm12834.99 0c-182.95,0 -351.9,44.8 -523.8,109.16l33.2 100.51c44.3,123.03 97,165.15 163.53,165.15 27.79,0 241.04,-36.43 321.51,-36.43 152.35,0 221.77,44.74 230.14,218.11 -457.33,14 -842.77,111.84 -842.77,511.77 0,265.67 241.18,385.94 532.24,385.94 327.06,0 568.18,-61.62 717.78,-176.27l0 -735.43c0,-391.5 -232.68,-542.44 -631.83,-542.44l0 -0.06zm-15792.09 165.01c-689.73,87.99 -1361.43,258.55 -1998.34,540.47 -46.42,21.95 -74.21,80.39 -64.43,131.95 24.97,131.74 37.49,197.71 63.02,329.74 10.9,56.48 63.59,82.43 115.56,57.11 646.97,-296.47 1330.49,-485.11 2031.75,-597.65 44.6,-7.24 67.31,-58.45 50.3,-111.06 -35.39,-109.15 -53.18,-163.67 -89.61,-272.34 -16.88,-50.44 -62.81,-84.19 -108.25,-78.21zm13552.49 187.38c213.47,0 346.41,92.2 346.41,349.51 0,223.67 -105.22,413.93 -349.15,413.93 -66.47,0 -138.64,-5.7 -213.41,-16.88l0 -701.89c61.05,-27.99 130.27,-44.66 216.15,-44.66zm-6311.18 5.55c194,0 304.77,134.35 304.77,363.65 0,240.48 -110.77,366.17 -304.77,366.17 -191.24,0 -304.77,-125.69 -304.77,-366.17 0,-229.3 116.27,-363.65 304.77,-363.65zm2336.52 0c194,0 304.77,134.35 304.77,363.65 0,240.48 -110.77,366.17 -304.77,366.17 -191.24,0 -304.97,-125.69 -304.97,-366.17 0,-229.3 116.47,-363.65 304.97,-363.65zm-8329 290.78l221.63 0c185.69,0 280.01,61.62 280.01,209.81 0,137.02 -102.56,209.68 -282.68,209.68l-218.97 0 0 -419.49zm1852.39 176.27l80.39 0 0 240.55c-41.57,36.37 -130.27,69.85 -238.38,69.85 -135.82,0 -202.29,-36.29 -202.29,-136.95 0,-131.38 171.77,-173.38 360.27,-173.38l0 -0.06zm12834.97 0l80.39 0 0 240.55c-41.56,36.37 -130.26,69.85 -238.37,69.85 -135.82,0 -202.29,-36.29 -202.29,-136.95 0,-131.38 171.76,-173.38 360.26,-173.38l0 -0.06zm-15944.42 74.9c-430.68,93.48 -851.71,206.09 -1268.67,349.44 -52.9,19.41 -82.65,75.19 -68.79,126.53 33.13,122.31 49.72,183.72 83.28,306.39 15.76,57.67 80.61,87.14 140.18,64.43 416.89,-149.32 837.79,-279.73 1268.03,-384.26 41.22,-10.05 61.62,-58.45 46.28,-108.39 -33.9,-110.21 -50.99,-165.15 -85.8,-274.88 -17.1,-53.88 -67.04,-89.04 -114.51,-79.27z"/>
 </g>
</svg>
