<?xml version="1.0" encoding="UTF-8"?>
<!DOCTYPE svg PUBLIC "-//W3C//DTD SVG 1.1//EN" "http://www.w3.org/Graphics/SVG/1.1/DTD/svg11.dtd">
<!-- Creator: CorelDRAW 2020 (64-Bit) -->
<svg xmlns="http://www.w3.org/2000/svg" xml:space="preserve" width="148.668mm" height="22mm" version="1.1" style="shape-rendering:geometricPrecision; text-rendering:geometricPrecision; image-rendering:optimizeQuality; fill-rule:evenodd; clip-rule:evenodd"
viewBox="0 0 13933.37 2061.87"
 xmlns:xlink="http://www.w3.org/1999/xlink"
 xmlns:xodm="http://www.corel.com/coreldraw/odm/2003">
 <defs>
  <style type="text/css">
   <![CDATA[
    .fil1 {fill:#89878B}
    .fil0 {fill:#DE0110}
   ]]>
  </style>
 </defs>
 <g id="Capa_x0020_1">
  <metadata id="CorelCorpID_0Corel-Layer"/>
  <g id="_2391253761984">
   <path class="fil0" d="M468.12 1681.03c23.48,-6.27 12.86,-3.23 31.74,-15.87l8.9 31.42c32.88,-2.51 36.58,-12.75 70.43,-15.56 -12.12,22.91 -1,13.88 -20.75,26.85 -12.68,8.35 -24.26,10.01 -39.64,15.9 -34.86,13.35 -41.76,16.34 -42.75,60.39 29.82,2.48 39.63,12.25 78.73,7.48 51.45,-6.28 119.63,-30.14 119.63,48.06 0,31.87 -82.06,61.67 -15.87,79.34l0 15.87c-21,5.58 -6.52,-0.63 -23.81,7.94l-30.51 -25.15c-32.92,8.73 -54.86,22.35 -88.5,25.15l0 -31.73c100.07,0 104.7,-41.57 119.01,-71.42 -105.46,-70.62 -198.35,51.06 -198.35,-71.41l0 -15.87c16.03,-10.73 31.57,-21 47.6,-31.73 -4.86,-20.87 -7.21,-23.32 -15.87,-39.67zm1356.19 -1565.05c4.63,3.54 8.5,9.47 8.5,41.67 0,44.58 -44.57,77.97 -55.54,119.02 -150.8,-79.79 -502.07,-97.62 -644.22,14.31 -36.58,28.79 -87.7,108.94 -109.69,152.15 -52.33,102.81 -214.06,478.53 -214.06,571.42 72.85,-48.78 129.88,-212.73 172,-311.99 29.63,-69.83 119.22,-258.71 176.04,-315.89 111.56,-112.27 627.87,-131.74 627.87,96.29 0,99.89 -8.9,139.5 -38.55,223.28l-220.54 469.73c-82.95,150.47 -153.86,240.22 -253.45,373.35 -222.36,297.24 -476.93,-59.19 -566.52,-66.65 -6.73,80.88 -148.96,119.02 -222.16,119.02 -244.57,0 -395.64,-167.48 -483.99,-214.22 0,102.37 39.18,237.92 82,322.65l95.16 174.6c47.22,82.57 118.88,177.15 227.49,177.15 226.95,0 442.76,-59.19 605.1,-220.05l93.1 -97.32c49.89,0 70.38,-7.24 103.22,-23.72l77.24 -49.71c50,-42.22 81.09,-90.77 119.1,-134.8 21.43,-24.84 34.47,-47.06 55.54,-71.41 76.29,-88.17 195.13,-289.17 247.9,-394.76 58.32,-116.71 72.49,-164.11 116.54,-272.23 13.13,-32.24 23.27,-62.95 33.31,-93.65 32.03,-97.95 57.7,-210.49 23.93,-315.69 -11.43,-35.6 -20.08,-44.08 -38.89,-72.18 22.01,-41.59 31.16,-76.2 44.22,-130.33 18.73,-77.66 66.86,-29.97 66.86,-115.63 0,-54.07 -61.05,-91.56 -112.67,-57.12 -35.99,23.99 -53.14,73.38 -14.85,102.73zm-356.47 724.02c-53.56,-28.34 -102.91,-23.87 -182.49,-23.81 -70.15,0.06 -137.26,4.68 -153.86,-52.61 -13.51,-46.63 63.75,-161.72 93.61,-206.01 34.18,-50.69 66.78,-104.62 -11.15,-106.36 -6.28,23.53 -82.53,125.17 -100.49,161.34 -46.89,94.43 -91.88,203.81 39.77,248.49 35.85,12.17 70.46,16.44 111.42,23.47 24.22,4.16 102.75,12.92 123.33,10.65 51.2,-5.66 59.89,-17.39 79.88,-55.16z"/>
   <path class="fil0" d="M2320.55 590.09c0,26.94 21.18,59.44 31.81,79.52 152.37,0 642.56,-143.4 935.52,50.56 417.73,276.58 206.67,625.35 -149.25,703.9 -178.71,39.44 -251.69,22.67 -420.11,5.89l-0.35 -489.97c0,-102.53 -28.29,-123.52 -95.44,-159.05 -53.29,28.2 -95.43,45.05 -95.43,127.24 0,699.89 -76.42,715.71 461.23,715.71 495.24,0 899.6,-371.67 689.6,-800.94 -148.56,-303.69 -681.46,-422.41 -947.24,-379.49 -96.09,15.51 -147.26,1.46 -245.05,25.63 -60.15,14.86 -165.3,55.64 -165.3,120.99zm1463.23 922.47c0,113.96 140.48,180.64 204.9,14.04 77.86,-201.33 384.35,-856.99 574.43,-856.99 212.9,0 554.8,856.49 620.29,954.28l95.43 0c39.03,-58.29 76.61,-76.69 50.96,-161.07l-245.01 -503.74c-33.88,-54.11 -59.15,-96.5 -92.23,-146.33 -75.1,-113.13 -263.52,-365.8 -397.62,-365.8l-63.62 0c-163.77,0 -391.2,327.15 -460.82,445.74 -55.58,94.66 -109.47,186.24 -159.47,285.87 -26.27,52.36 -41.43,97.1 -68.72,153.95 -28.6,59.63 -58.52,97.93 -58.52,180.06zm1431.43 -954.28c0,83.22 72.79,211.34 113.46,315.96 20.08,51.68 44.66,95.61 72.03,150.63 97.69,196.33 314.34,599.02 546.12,599.02 270.92,0 740.41,-963.39 701.44,-1097.79 -15.71,-54.16 -20.56,-36.18 -49.34,-79.16l-95.43 0 -238.57 524.85c-48.89,97.85 -140.57,268.59 -218.16,354.41 -42.2,46.67 -63.56,47.36 -115.83,75.02 -111.73,-59.12 -110.47,-61.9 -194.09,-187.64 -54.91,-82.55 -95.5,-152.81 -139.92,-241.79l-238.57 -524.85 -95.43 0c-23.07,34.45 -47.71,52.94 -47.71,111.33zm1638.18 0l0 954.28c0,58.39 24.65,76.88 47.71,111.33l95.43 0c36.95,-55.18 63.62,-60.5 63.62,-159.05 0,-147.21 15.03,-846.08 -14.9,-939.38 -18.03,-56.2 -18.82,-33.88 -48.72,-78.52l-95.43 0c-23.06,34.45 -47.71,52.94 -47.71,111.33z"/>
   <path class="fil1" d="M9986.61 1480.74c0,58.4 24.65,76.89 47.71,111.34 83.01,0 115.34,11.19 157.18,-97.29 22.17,-57.48 43.74,-92.81 63.36,-143.4 34.73,-89.6 83.37,-186.97 132.59,-265.03 76.7,-121.63 144.72,-257.44 239.08,-365.31 14.15,-16.18 107.13,-83.25 123.5,-83.25 242.5,0 537.99,807.63 636.19,954.28l95.43 0c74.15,-110.73 93.45,-101.65 -26.44,-339.37 -126.54,-250.93 -388.78,-837.58 -721.07,-837.58 -140.36,0 -333.7,251.05 -410.66,368.68 -84.29,128.86 -336.86,562.97 -336.86,696.92zm2449.32 111.34l95.43 0c95.22,-142.19 219.74,-512.31 410.75,-766.2 29.6,-39.33 50.99,-69.62 86.03,-104.83 21.29,-21.42 94.85,-83.25 123.51,-83.25 165.85,0 434.92,535.2 509.07,699.68 107.33,238.09 69.23,254.6 222.55,254.6 71.43,-106.68 63.74,-141.64 -5.55,-280.74 -73,-146.56 -92.58,-210.51 -185.5,-371.17 -14.54,-25.13 -33.08,-48.2 -50.94,-76.3 -105.01,-165.35 -271.31,-448.74 -489.63,-448.74 -279.8,0 -576.36,612.92 -683.9,827.04 -125.22,249.31 -106.21,238.8 -31.81,349.91zm-986.09 -1097.42c0,127.5 316.42,95.43 445.34,95.43l0 890.65c0,58.4 24.64,76.89 47.71,111.34 75.7,0 159.05,1.18 159.05,-127.24l0 -874.76c165.58,0 303.2,19.07 429.42,-47.71l0 -79.52c-34.45,-23.07 -52.94,-47.71 -111.33,-47.71l-842.95 0c-48.56,0 -127.24,29.96 -127.24,79.52zm-4278.36 79.52c21.54,40.69 15.45,56.67 72.63,71.77 66.96,17.69 185.9,-55.87 388.61,-55.87l222.66 0c469.07,0 826.34,365.8 -79.52,365.8 -21.18,31.63 -28.95,44.07 -47.71,79.52l47.71 63.62c266.66,0 779.32,-9.53 779.32,-318.09 0,-232 -528.69,-365.8 -779.32,-365.8 -152.48,0 -385.99,14.99 -519.28,69.19 -62.56,25.44 -57.95,38.56 -85.1,89.86zm1574.57 -31.81c0,394.84 -55.07,650.45 178.79,886.82 171.5,173.34 589.28,192.78 806.87,146.55 145.44,-30.89 102.11,-159.08 13.55,-172.97 -23.82,-3.73 -748.5,124.02 -776.87,-303.42 -7.98,-120.05 0.31,-274.07 0.32,-397.93 0.01,-81.58 31.41,-286.28 -111.33,-286.28 -62.31,0 -111.33,59.18 -111.33,127.24zm-1304.18 334l0 668c68.83,59.65 71.97,59.5 190.85,31.81 34.86,-149.64 15.9,-524.65 15.9,-699.81 0,-145.77 -206.76,-145.77 -206.76,0z"/>
  </g>
 </g>
</svg>
