<?xml version="1.0" encoding="UTF-8"?>
<!DOCTYPE svg PUBLIC "-//W3C//DTD SVG 1.1//EN" "http://www.w3.org/Graphics/SVG/1.1/DTD/svg11.dtd">
<!-- Creator: CorelDRAW 2020 (64-Bit) -->
<svg xmlns="http://www.w3.org/2000/svg" xml:space="preserve" width="149.881mm" height="19.3624mm" version="1.1" style="shape-rendering:geometricPrecision; text-rendering:geometricPrecision; image-rendering:optimizeQuality; fill-rule:evenodd; clip-rule:evenodd"
viewBox="0 0 14325.93 1850.69"
 xmlns:xlink="http://www.w3.org/1999/xlink"
 xmlns:xodm="http://www.corel.com/coreldraw/odm/2003">
 <defs>
  <style type="text/css">
   <![CDATA[
    .fil3 {fill:#FFF212}
    .fil6 {fill:#F79633}
    .fil7 {fill:#F58634}
    .fil0 {fill:#ED3237}
    .fil5 {fill:#0098DA}
    .fil4 {fill:#FEFEFE;fill-rule:nonzero}
    .fil2 {fill:#373435;fill-rule:nonzero}
    .fil1 {fill:#ED3237;fill-rule:nonzero}
   ]]>
  </style>
 </defs>
 <g id="Capa_x0020_1">
  <metadata id="CorelCorpID_0Corel-Layer"/>
  <g id="_2391543779488">
   <path class="fil0" d="M8682.76 559.31l0 0c52.03,0 94.55,42.54 94.55,94.57l0 784.35c0,52.03 -42.52,94.57 -94.55,94.57l0 0c-52.03,0 -94.58,-42.54 -94.58,-94.57l0 -784.35c0,-52.03 42.55,-94.57 94.58,-94.57z"/>
   <path class="fil1" d="M9927.84 590.61c51.97,8.67 87.07,39.63 78.4,91.59 -8.66,51.95 -57.83,87.07 -109.79,78.4 -190.98,-32.52 -360.35,-47.04 -495.24,-19.52 -120.38,24.55 -213.14,75.79 -267.99,175.18 -28.56,51.72 -48.15,89.38 -51.42,131.67 -2.8,36.48 -10.96,87.25 17.77,127.53l18.28 -13.52c17.67,24.74 22.69,61.66 50.37,83.12 29.95,23.19 64.44,44.02 102.34,62.14 206.67,98.84 517.62,126.77 754.64,37.75 49.3,-18.56 104.29,6.35 122.84,55.62 18.57,49.29 2.76,86.09 -46.5,104.65 -284.45,106.82 -646.8,78.72 -894.94,-39.93 -50.54,-24.17 -96.6,-51.98 -136.66,-83.03 -42.35,-32.8 -78.64,-69.54 -107.4,-109.8l-0.11 -0.13c-57.42,-80.53 -77.18,-158.68 -71.05,-238.56 5.73,-74.04 33.96,-144.84 74.55,-218.46 98.56,-144.73 226.56,-197.89 401.77,-233.61 160.74,-32.79 348.25,-27.15 560.14,8.93z"/>
   <path class="fil0" d="M9567.09 989.39l-584.8 0 0 139.73 584.8 0c39.45,0 71.65,-31.43 71.65,-69.86l0 0c0,-38.43 -32.2,-69.87 -71.65,-69.87z"/>
   <path class="fil0" d="M10454.78 846.06l0 592.17c0,52.02 -42.52,94.57 -94.55,94.57l0 0c-52.03,0 -88.11,-42.54 -88.11,-94.57l0 -533c-26,-224.98 199.92,-481.48 457.09,-241.43 3.17,2.97 6.11,6.16 8.8,9.44l0.13 -0.11 0.11 0.11c1.75,2.17 3.4,4.43 4.95,6.69 139.67,183.07 240.15,381.52 367.85,572.27l0.13 0.21 0.54 0.95 0.07 -0.04 0.13 0.21 1.18 2.1c7.83,12.97 14.5,25.05 21.52,37.78 75.57,111.9 183.26,109.97 186.7,-29.04 2.67,-121.68 2.49,-456.35 -7.89,-597.54 -3.84,-51.88 42.51,-94.57 94.55,-94.57l0 0c52.03,0 81.67,42.58 81.67,94.57l0 496.73c9.67,154.8 -36.15,283.21 -73.78,320.16 -51.8,57.85 -118.66,74.4 -190.38,72.8 -13.01,-0.29 -25.56,-1.65 -37.43,-4.15 -144.62,-30.45 -429.28,-535.9 -478.85,-607.6 -19.65,-28.46 -38.54,-55.27 -56.17,-79.65 -15.1,-20.88 -31.63,-43.06 -49.64,-66.66 -83.45,-73.06 -148.47,-13.95 -148.63,47.6zm658.33 409.57c7.59,13.62 11.5,28.35 12.01,42.99l-12.01 -42.99z"/>
   <path class="fil1" d="M7188.57 622.38c-20.61,-48.44 -76.61,-71.02 -125.07,-50.4 -48.45,20.61 -71.05,76.63 -50.41,125.08 96,224.04 241.56,453.89 400.01,635.29 104.87,120.1 202.21,208.88 303.54,220.97 104.09,12.4 193.11,-50.7 319.01,-162.85 114.25,-101.78 184.95,-213.84 260.89,-341.19 74.11,-124.27 132.62,-247.6 176.48,-345.56 21.45,-48.04 -0.13,-104.4 -48.18,-125.84 -48.05,-21.43 -104.39,0.13 -125.84,48.16 -41.64,93.02 -100.92,209.92 -169.77,325.42 -56.31,94.41 -266.75,428.17 -401.02,412.18 -166.2,-19.79 -451.7,-536.08 -539.64,-741.26z"/>
   <path class="fil0" d="M6826.19 559.31l0 0c51.99,0 94.55,42.54 94.55,94.57l0 784.35c0,52.03 -42.56,94.57 -94.55,94.57l0 0c-52.03,0 -94.59,-42.54 -94.59,-94.57l0 -784.35c0,-52.03 42.55,-94.57 94.59,-94.57z"/>
   <path class="fil1" d="M2809.23 785.13c-50.73,14.42 -103.55,-8.82 -117.98,-59.53 -14.42,-50.72 14.99,-103.56 65.71,-117.98 438.32,-83.22 702.63,-21.07 918.1,81.3 88.38,56.51 174.23,121.53 216.54,197.07 44.54,79.53 63.43,153.19 55.5,237.36 -12.14,128.92 -86.39,249.64 -226.93,331.39 -68.86,40.07 -142.29,65.78 -217.75,82.63 -72.7,16.22 -145.3,23.92 -216.73,28.44 -72.96,4.6 -134.67,6.29 -196.33,-1.42 -65.02,-8.14 -128.15,-26.23 -200.21,-61.04 -28.1,-13.55 -61.7,-39.1 -67.31,-67.52l-2.74 7.46c0,-177.49 0,-362.41 0,-539.88 32.3,-93.36 163.3,-65.61 164.21,0l12.43 439.93c-20.45,89.77 224.69,58.14 278,54.77 64.18,-4.04 127.9,-10.63 187.62,-23.96 56.95,-12.7 112.12,-31.93 163.26,-61.7 82.88,-48.24 126.28,-137.82 132.82,-207.01 4.25,-45.1 -6.78,-92.82 -32.37,-138.5 -27.81,-49.65 -72.19,-96.34 -132.45,-134.85 -165.16,-93.26 -404.31,-147.89 -783.39,-46.95z"/>
   <path class="fil1" d="M5340.46 622.38c-20.64,-48.44 -76.65,-71.02 -125.07,-50.4 -48.45,20.61 -71.05,76.63 -50.44,125.08 96.03,224.04 241.59,453.89 400.01,635.29 104.9,120.1 202.24,208.88 303.57,220.97 104.09,12.4 193.08,-50.7 318.99,-162.85 114.24,-101.78 184.98,-213.84 260.92,-341.19 74.08,-124.27 132.58,-247.6 176.48,-345.56 21.41,-48.04 -0.13,-104.4 -48.18,-125.84 -48.01,-21.43 -104.39,0.13 -125.84,48.16 -41.64,93.02 -100.92,209.92 -169.77,325.42 -56.31,94.41 -266.75,428.17 -401.02,412.18 -166.2,-19.79 -451.73,-536.08 -539.64,-741.26z"/>
   <path class="fil1" d="M5208.54 1496.79c20.6,48.44 76.61,71.02 125.07,50.41 48.45,-20.62 71.05,-76.64 50.41,-125.08 -96,-224.05 -241.56,-453.9 -400.01,-635.29 -104.87,-120.1 -202.22,-208.88 -303.55,-220.97 -104.09,-12.41 -193.1,50.69 -319.01,162.84 -114.24,101.78 -184.95,213.84 -260.88,341.2 -74.11,124.26 -132.62,247.6 -176.49,345.55 -21.44,48.04 0.13,104.4 48.15,125.84 48.05,21.43 104.43,-0.12 125.87,-48.16 41.65,-93.02 100.89,-209.91 169.78,-325.41 56.31,-94.41 266.75,-428.18 401.01,-412.19 166.21,19.79 451.71,536.08 539.65,741.26z"/>
   <path class="fil1" d="M11745.71 785.13c-50.72,14.42 -103.55,-8.82 -117.99,-59.53 -14.43,-50.72 15.01,-103.56 65.72,-117.98 438.31,-83.22 702.64,-21.07 918.1,81.3 88.38,56.51 174.23,121.53 216.54,197.07 44.55,79.53 63.43,153.19 55.5,237.36 -12.14,128.92 -86.39,249.64 -226.93,331.39 -68.89,40.07 -142.29,65.78 -217.75,82.63 -72.7,16.22 -145.29,23.92 -216.75,28.44 -72.97,4.6 -134.64,6.29 -196.34,-1.42 -65.01,-8.14 -128.13,-26.23 -200.19,-61.04 -28.09,-13.55 -61.71,-39.1 -67.31,-67.52l-2.73 7.46c0,-177.49 0,-362.41 0,-539.88 32.31,-93.36 163.3,-65.61 164.22,0l12.41 439.93c-20.44,89.77 224.7,58.14 278.01,54.77 64.17,-4.04 127.9,-10.63 187.62,-23.96 56.95,-12.7 112.08,-31.93 163.27,-61.7 82.88,-48.24 126.27,-137.82 132.81,-207.01 4.25,-45.1 -6.78,-92.82 -32.36,-138.5 -27.82,-49.65 -72.19,-96.34 -132.45,-134.85 -165.16,-93.26 -404.33,-147.89 -783.4,-46.95z"/>
   <path class="fil1" d="M13033.17 1496.79c-20.64,48.44 -76.64,71.02 -125.06,50.41 -48.46,-20.62 -71.05,-76.64 -50.45,-125.08 96.03,-224.05 241.6,-453.9 400.01,-635.29 104.9,-120.1 202.25,-208.88 303.58,-220.97 104.09,-12.41 193.08,50.69 318.99,162.84 114.27,101.78 184.98,213.84 260.92,341.2 74.08,124.26 132.61,247.6 176.48,345.55 21.41,48.04 -0.13,104.4 -48.18,125.84 -48.02,21.43 -104.39,-0.12 -125.84,-48.16 -41.65,-93.02 -100.92,-209.91 -169.77,-325.41 -56.32,-94.41 -266.75,-428.18 -401.02,-412.19 -166.2,19.79 -451.74,536.08 -539.65,741.26z"/>
   <path class="fil0" d="M1823.52 766.72c-4.62,39.34 -17.1,227.94 136.03,412.33 283.32,341.1 -100.25,706.77 -536.89,618.17 0,0 -175.27,35.26 -368,35.26 -192.9,0 -369.19,-35.26 -369.19,-35.26 -436.67,88.6 -828.12,-277.06 -544.84,-618.17 153.14,-184.39 140.6,-372.99 135.97,-412.33l1546.91 0z"/>
   <g>
    <path class="fil2" d="M1965.14 1174.53l-11.14 9.06 0 0 -14.03 -17.47 -13.08 -17.48 -12.17 -17.46 -11.28 -17.41 -10.44 -17.31 -9.62 -17.2 -8.82 -17.05 -8.08 -16.89 -7.34 -16.68 -6.64 -16.45 -6 -16.19 -5.36 -15.9 -4.77 -15.59 -4.2 -15.25 -3.67 -14.87 -3.17 -14.47 -2.7 -14.04 -2.27 -13.58 -1.85 -13.09 -1.49 -12.59 -1.17 -12.04 -0.84 -11.47 -0.57 -10.88 -0.32 -10.25 -0.11 -9.6 0.06 -8.92 0.21 -8.19 0.32 -7.46 0.4 -6.69 0.46 -5.91 0.48 -5.08 0.47 -4.23 14.32 1.64 -0.43 4 -0.46 4.87 -0.44 5.66 -0.38 6.46 -0.32 7.22 -0.21 7.94 -0.06 8.65 0.11 9.31 0.32 9.96 0.55 10.59 0.82 11.16 1.13 11.74 1.45 12.26 1.82 12.77 2.22 13.24 2.63 13.7 3.1 14.11 3.57 14.51 4.1 14.87 4.65 15.21 5.23 15.51 5.85 15.81 6.49 16.05 7.17 16.28 7.89 16.49 8.61 16.65 9.39 16.79 10.19 16.91 11.03 17 11.9 17.06 12.79 17.1 13.73 17.11 0 0zm-541.04 629.68l-2.87 -13.99 2.89 0 40.33 6.91 39.9 4.38 39.36 1.91 38.72 -0.46 37.96 -2.75 37.09 -4.95 36.11 -7.04 35 -9.07 33.8 -11.02 32.49 -12.86 31.05 -14.6 29.51 -16.27 27.86 -17.85 26.08 -19.34 24.22 -20.73 22.22 -22.03 20.14 -23.26 17.93 -24.38 15.64 -25.42 13.22 -26.36 10.7 -27.22 8.08 -28.01 5.36 -28.71 2.53 -29.32 -0.41 -29.89 -3.47 -30.35 -6.62 -30.78 -9.91 -31.09 -13.32 -31.34 -16.86 -31.51 -20.52 -31.6 -24.29 -31.61 11.14 -9.06 24.96 32.47 21.15 32.57 17.43 32.6 13.84 32.55 10.31 32.37 6.93 32.12 3.62 31.76 0.43 31.28 -2.65 30.74 -5.61 30.07 -8.46 29.29 -11.17 28.45 -13.77 27.49 -16.27 26.45 -18.62 25.3 -20.87 24.1 -22.99 22.8 -25 21.4 -26.89 19.93 -28.67 18.37 -30.35 16.73 -31.88 15.01 -33.33 13.18 -34.66 11.29 -35.86 9.3 -36.97 7.22 -37.95 5.07 -38.83 2.81 -39.6 0.48 -40.24 -1.95 -40.78 -4.47 -41.21 -7.06 2.89 0zm-2.87 -13.99l1.45 -0.3 1.43 0.3 -2.89 0zm-366.57 49.41l0 -14.28 0 0 17.94 -0.11 17.8 -0.29 17.65 -0.48 17.45 -0.64 17.24 -0.79 17.01 -0.95 16.73 -1.05 16.43 -1.19 16.11 -1.27 15.73 -1.39 15.35 -1.44 14.93 -1.53 14.49 -1.56 14 -1.62 13.5 -1.62 12.97 -1.65 12.41 -1.64 11.81 -1.63 11.19 -1.61 10.54 -1.56 9.86 -1.53 9.16 -1.44 8.42 -1.39 7.65 -1.27 6.86 -1.19 6.03 -1.05 5.18 -0.95 4.3 -0.78 3.38 -0.64 2.47 -0.48 1.5 -0.29 0.46 -0.1 2.87 13.99 -0.55 0.11 -1.52 0.29 -2.49 0.48 -3.44 0.66 -4.36 0.8 -5.24 0.95 -6.09 1.07 -6.92 1.19 -7.72 1.29 -8.48 1.39 -9.21 1.46 -9.94 1.53 -10.62 1.58 -11.27 1.62 -11.89 1.63 -12.48 1.66 -13.05 1.65 -13.59 1.64 -14.1 1.62 -14.57 1.58 -15.04 1.53 -15.45 1.46 -15.85 1.39 -16.2 1.29 -16.55 1.19 -16.86 1.07 -17.13 0.95 -17.38 0.79 -17.61 0.66 -17.81 0.48 -17.95 0.29 -18.09 0.11 0 0zm-367.73 -35.41l-2.91 -13.99 2.88 0 0.48 0.1 1.49 0.29 2.49 0.47 3.4 0.65 4.32 0.78 5.21 0.95 6.07 1.05 6.89 1.19 7.69 1.27 8.46 1.39 9.19 1.44 9.91 1.53 10.59 1.56 11.25 1.61 11.86 1.63 12.45 1.64 13.02 1.65 13.55 1.62 14.06 1.62 14.54 1.56 14.98 1.53 15.41 1.44 15.78 1.39 16.14 1.27 16.47 1.19 16.77 1.05 17.04 0.95 17.28 0.79 17.49 0.64 17.67 0.48 17.84 0.29 17.95 0.11 0 14.28 -18.1 -0.11 -17.99 -0.29 -17.83 -0.48 -17.63 -0.66 -17.42 -0.79 -17.18 -0.95 -16.89 -1.07 -16.58 -1.19 -16.26 -1.29 -15.9 -1.39 -15.5 -1.46 -15.07 -1.53 -14.63 -1.58 -14.16 -1.62 -13.63 -1.64 -13.11 -1.65 -12.53 -1.66 -11.94 -1.63 -11.33 -1.62 -10.65 -1.58 -9.99 -1.53 -9.27 -1.46 -8.52 -1.39 -7.75 -1.29 -6.95 -1.19 -6.13 -1.07 -5.27 -0.95 -4.38 -0.8 -3.46 -0.65 -2.5 -0.49 -1.53 -0.29 -0.55 -0.11 2.88 0zm-2.91 -13.99l1.42 -0.29 1.45 0.29 -2.88 0zm-548.96 -615.69l11.14 9.06 0 0 -24.27 31.6 -20.44 31.59 -16.76 31.5 -13.17 31.34 -9.74 31.08 -6.41 30.76 -3.22 30.35 -0.14 29.88 2.81 29.32 5.66 28.71 8.4 28 11.03 27.23 13.57 26.37 15.99 25.42 18.28 24.38 20.51 23.26 22.61 22.04 24.58 20.74 26.45 19.34 28.22 17.86 29.86 16.27 31.38 14.61 32.8 12.86 34.09 11.02 35.28 9.08 36.35 7.04 37.3 4.95 38.14 2.75 38.86 0.46 39.48 -1.91 39.96 -4.38 40.35 -6.91 2.91 13.99 -41.22 7.06 -40.84 4.47 -40.35 1.95 -39.74 -0.48 -39 -2.81 -38.18 -5.07 -37.19 -7.22 -36.14 -9.29 -34.94 -11.29 -33.63 -13.18 -32.22 -15 -30.66 -16.73 -29.02 -18.36 -27.25 -19.93 -25.37 -21.39 -23.35 -22.79 -21.24 -24.09 -18.99 -25.3 -16.62 -26.45 -14.15 -27.48 -11.53 -28.44 -8.78 -29.3 -5.93 -30.07 -2.94 -30.74 0.16 -31.29 3.37 -31.76 6.7 -32.13 10.14 -32.38 13.69 -32.55 17.33 -32.61 21.09 -32.58 24.94 -32.48 0 0zm141.55 -414.95l0 14.28 7.16 -7.96 0.47 4.23 0.48 5.08 0.46 5.9 0.41 6.7 0.32 7.46 0.21 8.19 0.06 8.92 -0.11 9.59 -0.32 10.25 -0.57 10.89 -0.84 11.47 -1.16 12.04 -1.49 12.59 -1.85 13.09 -2.27 13.58 -2.7 14.04 -3.17 14.47 -3.67 14.87 -4.2 15.25 -4.76 15.6 -5.36 15.9 -5.99 16.19 -6.65 16.45 -7.34 16.68 -8.07 16.89 -8.82 17.05 -9.62 17.2 -10.44 17.31 -11.28 17.41 -12.17 17.46 -13.08 17.48 -14.03 17.47 -11.14 -9.06 13.73 -17.11 12.79 -17.1 11.9 -17.06 11.03 -17 10.19 -16.91 9.39 -16.79 8.61 -16.65 7.88 -16.49 7.17 -16.28 6.5 -16.05 5.84 -15.81 5.23 -15.51 4.65 -15.2 4.1 -14.88 3.57 -14.51 3.1 -14.11 2.63 -13.7 2.21 -13.24 1.82 -12.77 1.45 -12.26 1.12 -11.74 0.82 -11.16 0.55 -10.58 0.32 -9.96 0.11 -9.32 -0.06 -8.65 -0.21 -7.94 -0.32 -7.22 -0.39 -6.45 -0.44 -5.67 -0.46 -4.87 -0.43 -4 7.16 -7.96zm-7.16 7.96l-0.94 -7.96 8.1 0 -7.16 7.96zm1554.08 6.32l-1546.92 0 0 -14.28 1546.92 0 7.16 7.96 -7.16 6.32zm0 -14.28l8.1 0 -0.94 7.96 -7.16 -7.96z"/>
   </g>
   <path class="fil0" d="M1389.63 1726.38c0,0 24.61,-66.45 75.47,-105.14 24.82,-18.93 66.5,-11.82 45.54,25.8 -5.71,10.22 -66.07,50.06 -106.61,97.94 -7.4,8.77 -14.4,-18.6 -14.4,-18.6zm-593.1 -44.65l0 0c0,0 -10.17,-70.04 -51.81,-118.4 -20.34,-23.64 -62.59,-25.24 -49.97,15.87 3.42,11.15 54.14,62.58 83.72,117.8 5.44,10.1 18.06,-15.27 18.06,-15.27zm-77.99 44.65l0 0c0,0 -24.63,-66.45 -75.49,-105.14 -24.84,-18.93 -66.52,-11.82 -45.56,25.8 5.71,10.22 66.06,50.06 106.6,97.94 7.42,8.77 14.45,-18.6 14.45,-18.6zm593.07 -44.65l0 0c0,0 10.19,-70.04 51.8,-118.4 20.35,-23.64 62.61,-25.24 50,15.87 -3.42,11.15 -54.15,62.58 -83.75,117.8 -5.41,10.1 -18.05,-15.27 -18.05,-15.27z"/>
   <g>
    <path class="fil2" d="M1460.69 1615.57l8.81 11.32 -0.01 0.01 -4.49 3.55 -4.35 3.69 -4.21 3.82 -4.08 3.94 -3.93 4.03 -3.79 4.12 -3.65 4.19 -3.53 4.22 -3.35 4.25 -3.23 4.28 -3.09 4.25 -2.93 4.24 -2.8 4.2 -2.65 4.16 -2.5 4.06 -2.36 3.99 -2.23 3.87 -2.07 3.74 -1.93 3.6 -1.78 3.43 -1.63 3.26 -1.49 3.06 -1.36 2.87 -1.21 2.61 -1.05 2.34 -0.91 2.12 -0.78 1.83 -0.62 1.5 -0.49 1.21 -0.33 0.84 -0.19 0.53 -0.06 0.13 -13.55 -4.91 0.1 -0.25 0.23 -0.6 0.39 -0.99 0.53 -1.31 0.68 -1.65 0.82 -1.92 0.97 -2.22 1.13 -2.53 1.27 -2.74 1.41 -2.98 1.57 -3.21 1.71 -3.41 1.87 -3.6 2.03 -3.78 2.17 -3.93 2.32 -4.04 2.48 -4.18 2.64 -4.27 2.78 -4.35 2.93 -4.43 3.11 -4.47 3.26 -4.5 3.4 -4.51 3.58 -4.52 3.74 -4.49 3.88 -4.45 4.06 -4.41 4.23 -4.34 4.39 -4.24 4.55 -4.13 4.73 -4.01 4.89 -3.87 -0.01 0.01zm56.27 34.92l-12.64 -6.9 0 0 1.59 -3.05 1.23 -2.82 0.92 -2.56 0.6 -2.31 0.35 -2.06 0.11 -1.78 -0.08 -1.58 -0.22 -1.33 -0.35 -1.13 -0.46 -0.98 -0.56 -0.89 -0.7 -0.82 -0.82 -0.75 -0.98 -0.7 -1.15 -0.65 -1.35 -0.57 -1.49 -0.5 -1.64 -0.37 -1.82 -0.29 -1.9 -0.15 -2.03 -0.03 -2.12 0.11 -2.17 0.24 -2.22 0.38 -2.27 0.52 -2.29 0.66 -2.27 0.78 -2.25 0.93 -2.22 1.05 -2.16 1.2 -2.11 1.31 -2.01 1.44 -8.81 -11.32 2.73 -1.96 2.82 -1.77 2.89 -1.59 2.96 -1.41 2.99 -1.23 3.03 -1.05 3.04 -0.87 3.05 -0.71 3.06 -0.52 3.05 -0.33 3 -0.14 2.98 0.03 2.93 0.25 2.85 0.44 2.81 0.66 2.73 0.9 2.61 1.13 2.5 1.4 2.34 1.67 2.14 1.97 1.88 2.24 1.62 2.49 1.26 2.74 0.91 2.94 0.53 3.09 0.15 3.2 -0.21 3.33 -0.58 3.4 -0.93 3.5 -1.28 3.59 -1.62 3.7 -1.99 3.83 0 0zm-107.39 99.07l-11.07 -9.16 0 -0.01 3.95 -4.57 4.05 -4.51 4.12 -4.44 4.2 -4.39 4.26 -4.3 4.3 -4.23 4.32 -4.16 4.35 -4.08 4.35 -4 4.34 -3.91 4.31 -3.81 4.27 -3.73 4.23 -3.63 4.16 -3.52 4.08 -3.41 3.99 -3.3 3.88 -3.19 3.76 -3.07 3.62 -2.94 3.47 -2.83 3.32 -2.69 3.13 -2.56 2.94 -2.41 2.72 -2.25 2.5 -2.11 2.26 -1.94 2 -1.78 1.72 -1.58 1.37 -1.35 1.04 -1.12 0.65 -0.77 0.16 -0.23 12.64 6.9 -1.21 1.85 -1.36 1.65 -1.54 1.65 -1.77 1.73 -1.97 1.81 -2.17 1.93 -2.41 2.07 -2.6 2.19 -2.8 2.32 -2.98 2.45 -3.16 2.56 -3.32 2.7 -3.47 2.81 -3.6 2.94 -3.74 3.05 -3.84 3.15 -3.93 3.26 -4.02 3.37 -4.1 3.46 -4.14 3.56 -4.2 3.65 -4.22 3.74 -4.24 3.81 -4.23 3.9 -4.23 3.97 -4.21 4.04 -4.17 4.1 -4.11 4.17 -4.04 4.22 -3.97 4.27 -3.88 4.32 -3.76 4.36 0 -0.01zm-11.07 -9.16l0 -0.01 2.99 -3.54 -2.99 3.55zm-15.66 -16.48l13.55 4.91 0.22 -4.22 0.03 0.11 0.02 0.08 0.09 0.32 0.13 0.49 0.15 0.53 0.2 0.68 0.22 0.74 0.26 0.79 0.29 0.89 0.31 0.92 0.33 0.97 0.35 0.97 0.38 0.99 0.39 0.99 0.41 0.96 0.41 0.94 0.43 0.87 0.43 0.83 0.43 0.76 0.38 0.62 0.34 0.49 0.32 0.4 0.18 0.21 0 0 -0.19 -0.12 -0.47 -0.21 -0.85 -0.21 -1.07 -0.01 -1.01 0.23 -0.71 0.33 -0.3 0.22 -0.01 0.02 11.07 9.16 -1.41 1.45 -1.67 1.25 -2.06 1 -2.37 0.54 -2.43 -0.03 -2.17 -0.55 -1.77 -0.82 -1.49 -1 -1.26 -1.11 -1.04 -1.13 -0.89 -1.11 -0.84 -1.19 -0.75 -1.21 -0.68 -1.19 -0.64 -1.23 -0.6 -1.25 -0.56 -1.24 -0.53 -1.24 -0.49 -1.22 -0.46 -1.19 -0.43 -1.19 -0.39 -1.12 -0.36 -1.07 -0.32 -1 -0.3 -0.95 -0.26 -0.87 -0.22 -0.74 -0.19 -0.68 -0.13 -0.49 -0.12 -0.4 -0.1 -0.38 -0.01 -0.04 0.22 -4.22zm-0.22 4.22l-0.54 -2.14 0.76 -2.07 -0.22 4.22zm-586.11 -46.41l0 0 0 0 0 0 -7.14 1.01 7.14 -1.01zm7.14 -1.01l0.32 2.18 -0.98 1.99 0.67 -4.17zm-64.44 -112.75l10.99 -9.27 0 0 3.98 4.8 3.78 4.89 3.58 4.98 3.41 5.06 3.22 5.11 3.05 5.13 2.88 5.17 2.71 5.16 2.55 5.16 2.38 5.11 2.26 5.08 2.08 5.02 1.95 4.93 1.82 4.84 1.68 4.71 1.55 4.6 1.42 4.44 1.3 4.27 1.19 4.1 1.08 3.92 0.96 3.7 0.86 3.45 0.76 3.21 0.67 2.96 0.56 2.68 0.49 2.37 0.4 2.07 0.32 1.75 0.24 1.4 0.16 1 0.11 0.67 0.04 0.27 -14.28 2.03 -0.02 -0.13 -0.09 -0.54 -0.16 -0.93 -0.22 -1.28 -0.29 -1.6 -0.38 -1.94 -0.45 -2.26 -0.54 -2.52 -0.63 -2.81 -0.73 -3.06 -0.82 -3.32 -0.92 -3.53 -1.02 -3.71 -1.14 -3.93 -1.24 -4.08 -1.37 -4.25 -1.47 -4.37 -1.61 -4.5 -1.72 -4.61 -1.85 -4.68 -1.99 -4.75 -2.12 -4.81 -2.27 -4.85 -2.4 -4.86 -2.56 -4.86 -2.69 -4.85 -2.86 -4.81 -2.99 -4.77 -3.16 -4.67 -3.32 -4.62 -3.49 -4.51 -3.65 -4.4 0 0zm-37.57 9.16l-13.8 4.15 0 0 -1.14 -4.14 -0.82 -3.98 -0.49 -3.77 -0.18 -3.61 0.15 -3.46 0.49 -3.28 0.82 -3.12 1.17 -2.91 1.49 -2.68 1.82 -2.44 2.11 -2.12 2.31 -1.8 2.5 -1.47 2.64 -1.17 2.74 -0.85 2.79 -0.56 2.85 -0.32 2.9 -0.07 2.91 0.16 2.9 0.36 2.92 0.57 2.92 0.76 2.92 0.96 2.86 1.14 2.85 1.3 2.8 1.49 2.73 1.65 2.69 1.83 2.59 1.99 2.49 2.15 2.39 2.31 2.27 2.47 -10.99 9.27 -1.67 -1.84 -1.78 -1.72 -1.87 -1.62 -1.94 -1.49 -2 -1.37 -2.06 -1.23 -2.09 -1.11 -2.1 -0.97 -2.11 -0.83 -2.07 -0.69 -2.04 -0.54 -1.99 -0.38 -1.92 -0.25 -1.82 -0.11 -1.69 0.05 -1.57 0.16 -1.41 0.3 -1.27 0.39 -1.11 0.48 -0.97 0.57 -0.84 0.65 -0.74 0.75 -0.65 0.87 -0.59 1.05 -0.5 1.24 -0.4 1.51 -0.26 1.79 -0.1 2.06 0.12 2.39 0.35 2.71 0.61 3 0.91 3.32 0 0zm83.18 116.51l-12.73 6.73 -0.01 -0.02 -2.76 -5.04 -2.88 -5.03 -2.99 -5 -3.07 -4.97 -3.14 -4.92 -3.21 -4.87 -3.28 -4.83 -3.3 -4.75 -3.33 -4.69 -3.35 -4.61 -3.35 -4.53 -3.34 -4.43 -3.32 -4.35 -3.27 -4.23 -3.22 -4.11 -3.18 -4.01 -3.09 -3.88 -3.01 -3.75 -2.92 -3.61 -2.79 -3.47 -2.7 -3.33 -2.54 -3.16 -2.41 -3 -2.26 -2.85 -2.08 -2.69 -1.91 -2.51 -1.73 -2.34 -1.54 -2.18 -1.36 -2.05 -1.17 -1.94 -0.98 -1.9 -0.79 -2.06 13.8 -4.15 0.12 0.28 0.45 0.87 0.78 1.29 1.07 1.62 1.35 1.89 1.58 2.15 1.8 2.36 2.01 2.57 2.2 2.77 2.37 2.96 2.52 3.14 2.68 3.31 2.81 3.47 2.93 3.63 3.03 3.79 3.13 3.92 3.2 4.05 3.28 4.19 3.33 4.31 3.37 4.41 3.39 4.52 3.42 4.63 3.42 4.72 3.42 4.81 3.39 4.88 3.35 4.96 3.33 5.04 3.26 5.09 3.18 5.16 3.11 5.19 3.01 5.26 2.9 5.29 -0.01 -0.02zm-12.73 6.73l-0.01 -0.02 0.14 0.28 -0.13 -0.26zm17.28 -17.63l14.28 -2.03 -0.67 4.17 -0.04 0.1 -0.13 0.25 -0.21 0.41 -0.26 0.5 -0.32 0.58 -0.38 0.7 -0.42 0.76 -0.48 0.86 -0.54 0.94 -0.58 0.98 -0.63 1.03 -0.66 1.05 -0.7 1.09 -0.75 1.09 -0.76 1.09 -0.81 1.11 -0.84 1.09 -0.9 1.1 -0.94 1.03 -0.96 1.01 -1.07 1 -1.15 0.94 -1.27 0.89 -1.43 0.8 -1.62 0.66 -1.94 0.47 -2.25 0.09 -2.34 -0.45 -2.22 -1 -1.83 -1.41 -1.41 -1.59 -1.06 -1.69 12.73 -6.73 -0.01 -0.01 -0.26 -0.29 -0.62 -0.47 -0.94 -0.43 -1.02 -0.2 -0.87 0.03 -0.53 0.12 -0.19 0.07 0.04 -0.02 0.22 -0.16 0.36 -0.31 0.44 -0.41 0.54 -0.55 0.57 -0.65 0.57 -0.7 0.61 -0.78 0.6 -0.82 0.61 -0.88 0.59 -0.88 0.58 -0.9 0.56 -0.88 0.52 -0.86 0.51 -0.85 0.45 -0.78 0.42 -0.75 0.38 -0.69 0.32 -0.6 0.28 -0.53 0.22 -0.4 0.13 -0.26 0.08 -0.17 0.04 -0.06 -0.67 4.17zm14.28 -2.03l0.32 2.18 -0.98 1.99 0.67 -4.17zm-85.13 45.66l0 0 0 0 0 0 -6.78 2.47 6.78 -2.47zm6.78 -2.47l0.77 2.08 -0.55 2.14 -0.22 -4.22zm-86.66 -97.03l8.79 -11.32 0 -0.01 4.89 3.87 4.73 4.01 4.55 4.13 4.39 4.24 4.23 4.34 4.05 4.41 3.9 4.45 3.74 4.49 3.57 4.52 3.42 4.51 3.25 4.5 3.1 4.46 2.95 4.43 2.78 4.36 2.64 4.27 2.48 4.18 2.32 4.04 2.17 3.93 2.03 3.78 1.86 3.59 1.73 3.41 1.57 3.22 1.41 2.99 1.27 2.74 1.12 2.5 0.97 2.23 0.83 1.93 0.68 1.65 0.53 1.31 0.39 0.99 0.23 0.6 0.1 0.24 -13.55 4.93 -0.06 -0.14 -0.19 -0.53 -0.33 -0.84 -0.49 -1.21 -0.62 -1.5 -0.77 -1.82 -0.93 -2.11 -1.06 -2.37 -1.19 -2.61 -1.36 -2.86 -1.49 -3.05 -1.63 -3.26 -1.79 -3.44 -1.93 -3.6 -2.07 -3.74 -2.23 -3.87 -2.36 -3.99 -2.5 -4.06 -2.65 -4.15 -2.8 -4.2 -2.94 -4.25 -3.08 -4.25 -3.23 -4.28 -3.37 -4.25 -3.51 -4.22 -3.65 -4.19 -3.8 -4.12 -3.93 -4.03 -4.08 -3.94 -4.21 -3.82 -4.35 -3.69 -4.49 -3.55 0 -0.01zm-34.85 16.69l-12.64 6.92 0 -0.01 -1.99 -3.83 -1.62 -3.7 -1.28 -3.59 -0.93 -3.51 -0.57 -3.39 -0.22 -3.31 0.15 -3.24 0.54 -3.07 0.9 -2.94 1.27 -2.74 1.61 -2.49 1.9 -2.25 2.13 -1.96 2.34 -1.67 2.5 -1.4 2.61 -1.13 2.73 -0.9 2.81 -0.66 2.85 -0.44 2.94 -0.25 2.97 -0.03 3 0.14 3.05 0.33 3.06 0.52 3.06 0.71 3.03 0.87 3.03 1.05 3 1.23 2.95 1.41 2.9 1.59 2.81 1.77 2.73 1.96 -8.79 11.32 -2.03 -1.44 -2.1 -1.31 -2.17 -1.2 -2.21 -1.05 -2.26 -0.93 -2.27 -0.78 -2.28 -0.66 -2.27 -0.52 -2.22 -0.38 -2.17 -0.24 -2.12 -0.11 -2.02 0.03 -1.91 0.15 -1.82 0.29 -1.64 0.37 -1.49 0.5 -1.35 0.57 -1.15 0.65 -0.98 0.7 -0.83 0.76 -0.7 0.81 -0.55 0.89 -0.47 0.98 -0.34 1.13 -0.23 1.35 -0.08 1.54 0.12 1.8 0.34 2.07 0.6 2.3 0.92 2.56 1.23 2.82 1.59 3.05 0 -0.01zm-12.64 6.92l0 -0.01 1.91 3.43 -1.91 -3.42zm118.45 89.89l-11.07 9.18 0 0 -3.77 -4.36 -3.87 -4.32 -3.97 -4.27 -4.05 -4.22 -4.1 -4.17 -4.17 -4.1 -4.22 -4.04 -4.22 -3.97 -4.24 -3.9 -4.23 -3.81 -4.22 -3.74 -4.2 -3.65 -4.15 -3.57 -4.08 -3.46 -4.02 -3.36 -3.93 -3.26 -3.84 -3.15 -3.74 -3.05 -3.6 -2.94 -3.47 -2.81 -3.32 -2.7 -3.16 -2.56 -2.98 -2.45 -2.8 -2.32 -2.6 -2.19 -2.41 -2.07 -2.17 -1.93 -1.96 -1.81 -1.77 -1.72 -1.55 -1.66 -1.36 -1.65 -1.21 -1.84 12.64 -6.92 0.16 0.24 0.65 0.77 1.03 1.11 1.39 1.36 1.71 1.58 2 1.78 2.26 1.94 2.5 2.11 2.72 2.25 2.94 2.41 3.13 2.56 3.32 2.69 3.47 2.83 3.62 2.94 3.76 3.07 3.88 3.19 3.99 3.3 4.08 3.42 4.16 3.52 4.22 3.62 4.27 3.73 4.32 3.81 4.33 3.91 4.36 4 4.34 4.08 4.33 4.16 4.3 4.23 4.25 4.3 4.21 4.39 4.12 4.44 4.04 4.51 3.96 4.57 0 0zm2.14 -11.55l13.55 -4.93 0.22 4.22 -0.01 0.04 -0.1 0.38 -0.12 0.4 -0.13 0.49 -0.19 0.68 -0.22 0.74 -0.26 0.87 -0.3 0.95 -0.32 1 -0.37 1.1 -0.4 1.12 -0.42 1.17 -0.46 1.19 -0.49 1.22 -0.54 1.26 -0.57 1.25 -0.59 1.22 -0.64 1.23 -0.7 1.22 -0.74 1.19 -0.82 1.18 -0.92 1.15 -1.05 1.13 -1.24 1.09 -1.49 1 -1.79 0.83 -2.16 0.54 -2.43 0.03 -2.35 -0.54 -2.06 -0.99 -1.69 -1.26 -1.41 -1.44 11.07 -9.18 -0.01 -0.01 -0.32 -0.23 -0.69 -0.32 -0.99 -0.23 -1.09 0.01 -0.82 0.2 -0.49 0.22 -0.19 0.12 0.02 -0.02 0.19 -0.21 0.29 -0.36 0.34 -0.51 0.41 -0.65 0.41 -0.73 0.43 -0.83 0.44 -0.9 0.42 -0.93 0.4 -0.94 0.39 -0.99 0.38 -0.99 0.36 -0.99 0.34 -0.97 0.3 -0.89 0.29 -0.89 0.26 -0.79 0.22 -0.74 0.2 -0.68 0.15 -0.53 0.13 -0.49 0.09 -0.32 0.02 -0.08 0.03 -0.11 0.22 4.22zm13.55 -4.93l0.77 2.08 -0.55 2.14 -0.22 -4.22zm586.3 -42.18l0 0 0 0 0 0 -7.14 -1.01 7.14 1.01zm-6.47 3.15l-0.98 -1.98 0.32 -2.19 0.67 4.17zm52.76 -126.19l10.99 9.27 0 0 -3.65 4.4 -3.47 4.5 -3.33 4.63 -3.16 4.67 -2.99 4.77 -2.85 4.81 -2.7 4.85 -2.55 4.86 -2.4 4.86 -2.27 4.85 -2.12 4.81 -1.99 4.75 -1.85 4.68 -1.72 4.61 -1.61 4.5 -1.47 4.37 -1.37 4.25 -1.24 4.08 -1.14 3.92 -1.01 3.72 -0.93 3.54 -0.82 3.31 -0.73 3.06 -0.63 2.81 -0.54 2.52 -0.45 2.26 -0.38 1.94 -0.29 1.6 -0.22 1.28 -0.16 0.93 -0.09 0.54 -0.02 0.13 -14.28 -2.03 0.04 -0.27 0.11 -0.67 0.16 -1 0.24 -1.4 0.32 -1.75 0.4 -2.07 0.49 -2.37 0.56 -2.68 0.67 -2.96 0.76 -3.21 0.86 -3.46 0.97 -3.69 1.07 -3.91 1.19 -4.11 1.3 -4.27 1.42 -4.44 1.55 -4.6 1.68 -4.71 1.82 -4.84 1.95 -4.93 2.08 -5.02 2.26 -5.08 2.38 -5.11 2.55 -5.16 2.7 -5.16 2.89 -5.17 3.04 -5.13 3.22 -5.11 3.41 -5.06 3.57 -4.97 3.78 -4.9 3.98 -4.8 0 0zm62.4 22.58l-13.8 -4.15 0 0 0.91 -3.32 0.61 -3 0.35 -2.7 0.11 -2.4 -0.09 -2.06 -0.27 -1.79 -0.39 -1.51 -0.5 -1.22 -0.6 -1.07 -0.66 -0.88 -0.72 -0.74 -0.84 -0.65 -0.98 -0.57 -1.11 -0.48 -1.26 -0.39 -1.43 -0.3 -1.57 -0.16 -1.68 -0.05 -1.82 0.11 -1.93 0.25 -1.98 0.38 -2.05 0.54 -2.06 0.69 -2.12 0.83 -2.1 0.97 -2.09 1.11 -2.06 1.23 -2 1.37 -1.95 1.5 -1.87 1.62 -1.78 1.71 -1.67 1.84 -10.99 -9.27 2.27 -2.47 2.39 -2.32 2.5 -2.15 2.58 -1.98 2.69 -1.83 2.73 -1.65 2.8 -1.49 2.85 -1.3 2.87 -1.14 2.91 -0.96 2.92 -0.76 2.92 -0.57 2.91 -0.36 2.91 -0.16 2.89 0.07 2.85 0.32 2.79 0.56 2.75 0.85 2.64 1.17 2.49 1.47 2.33 1.8 2.11 2.13 1.81 2.43 1.48 2.66 1.19 2.92 0.81 3.12 0.5 3.28 0.14 3.46 -0.17 3.6 -0.49 3.78 -0.82 3.98 -1.14 4.14 0 0zm-84.26 119.09l-12.75 -6.71 0 0.01 2.91 -5.29 3.01 -5.25 3.1 -5.2 3.19 -5.16 3.26 -5.09 3.31 -5.03 3.37 -4.97 3.39 -4.88 3.42 -4.81 3.42 -4.72 3.42 -4.63 3.39 -4.52 3.37 -4.42 3.34 -4.3 3.27 -4.18 3.2 -4.06 3.14 -3.92 3.03 -3.78 2.92 -3.64 2.82 -3.47 2.67 -3.31 2.53 -3.14 2.37 -2.95 2.19 -2.78 2.02 -2.58 1.8 -2.35 1.58 -2.15 1.35 -1.89 1.07 -1.62 0.78 -1.29 0.45 -0.87 0.12 -0.28 13.8 4.15 -0.79 2.06 -0.98 1.9 -1.17 1.94 -1.36 2.05 -1.54 2.18 -1.73 2.34 -1.91 2.52 -2.09 2.68 -2.25 2.84 -2.41 3.01 -2.55 3.16 -2.69 3.33 -2.8 3.47 -2.91 3.6 -3.01 3.76 -3.1 3.88 -3.16 4 -3.23 4.12 -3.28 4.24 -3.32 4.34 -3.34 4.43 -3.35 4.53 -3.35 4.61 -3.33 4.69 -3.32 4.75 -3.26 4.82 -3.21 4.87 -3.14 4.92 -3.08 4.97 -2.98 4.99 -2.88 5.04 -2.77 5.04 0 0.01zm-31.56 -19.64l14.28 2.03 -0.67 -4.17 0.04 0.06 0.08 0.17 0.13 0.26 0.22 0.4 0.28 0.53 0.32 0.6 0.38 0.69 0.42 0.75 0.45 0.78 0.51 0.85 0.52 0.86 0.56 0.88 0.58 0.9 0.59 0.88 0.61 0.88 0.6 0.82 0.59 0.76 0.6 0.72 0.58 0.66 0.52 0.54 0.44 0.41 0.36 0.31 0.22 0.16 0.04 0.02 -0.19 -0.07 -0.53 -0.12 -0.87 -0.03 -1.03 0.2 -0.96 0.44 -0.6 0.46 -0.26 0.29 -0.02 0.02 12.75 6.71 -1.07 1.7 -1.41 1.59 -1.81 1.4 -2.22 1.01 -2.35 0.45 -2.25 -0.09 -1.94 -0.47 -1.62 -0.66 -1.43 -0.8 -1.27 -0.89 -1.15 -0.94 -1.07 -1 -0.97 -1.02 -0.91 -1.02 -0.89 -1.08 -0.86 -1.11 -0.81 -1.11 -0.76 -1.09 -0.75 -1.09 -0.7 -1.09 -0.66 -1.05 -0.63 -1.03 -0.58 -0.98 -0.54 -0.94 -0.48 -0.86 -0.42 -0.76 -0.38 -0.7 -0.32 -0.58 -0.26 -0.5 -0.21 -0.41 -0.13 -0.25 -0.04 -0.1 -0.67 -4.17zm0.67 4.17l-0.98 -1.98 0.32 -2.19 0.67 4.17z"/>
   </g>
   <path class="fil3" d="M1257.61 1673.27c0,0 129.87,-415.3 -66.35,-662.58 -17.58,-3.27 -35.76,-14.07 -55.4,-27.1 0,0 -21.72,-38.19 -72.9,-38.37 -51.18,0.17 -90.07,38.37 -90.07,38.37 -22.85,15.15 -44.42,24.73 -64.4,27.05 -196.18,247.29 -62.25,664.72 -62.25,664.72 206.82,-77.98 406.47,-4.32 411.37,-2.09z"/>
   <g>
    <path class="fil2" d="M1189.94 1017.71l2.66 -14.05 4.35 2.61 17.74 24.06 15.89 24.94 14.1 25.7 12.41 26.35 10.8 26.91 9.27 27.33 7.83 27.66 6.5 27.87 5.23 27.99 4.05 27.99 2.97 27.88 1.96 27.68 1.05 27.36 0.21 26.93 -0.53 26.43 -1.2 25.78 -1.77 25.05 -2.27 24.21 -2.68 23.26 -3.01 22.2 -3.24 21.04 -3.4 19.78 -3.48 18.41 -3.47 16.93 -3.37 15.33 -3.2 13.65 -2.94 11.84 -2.59 9.95 -2.17 7.93 -1.65 5.82 -1.07 3.59 -0.39 1.27 -13.78 -4.22 0.33 -1.12 1.03 -3.46 1.62 -5.67 2.13 -7.8 2.55 -9.78 2.91 -11.67 3.14 -13.48 3.34 -15.14 3.43 -16.72 3.44 -18.18 3.36 -19.55 3.2 -20.79 2.97 -21.94 2.64 -22.97 2.24 -23.91 1.75 -24.71 1.19 -25.43 0.53 -26.03 -0.21 -26.53 -1.03 -26.92 -1.92 -27.2 -2.92 -27.37 -3.98 -27.43 -5.11 -27.39 -6.35 -27.24 -7.66 -26.99 -9.02 -26.62 -10.49 -26.16 -12.04 -25.59 -13.66 -24.9 -15.37 -24.13 -17.17 -23.26 4.35 2.61zm2.66 -14.05l2.68 0.5 1.67 2.11 -4.35 -2.61zm-63.02 -16.56l12.58 -7.02 -2.27 -2.43 1.83 1.2 1.8 1.19 1.8 1.17 1.79 1.16 1.77 1.14 1.77 1.1 1.77 1.11 1.72 1.07 1.74 1.04 1.72 1.03 1.71 0.99 1.7 0.99 1.68 0.94 1.66 0.92 1.67 0.89 1.66 0.87 1.63 0.84 1.62 0.79 1.64 0.77 1.62 0.75 1.58 0.71 1.59 0.66 1.59 0.64 1.56 0.59 1.57 0.57 1.54 0.53 1.53 0.5 1.51 0.45 1.51 0.4 1.51 0.39 1.45 0.32 1.48 0.29 -2.66 14.05 -1.83 -0.36 -1.85 -0.42 -1.8 -0.45 -1.82 -0.5 -1.82 -0.54 -1.82 -0.57 -1.81 -0.62 -1.8 -0.65 -1.81 -0.69 -1.8 -0.74 -1.8 -0.76 -1.83 -0.8 -1.79 -0.82 -1.78 -0.85 -1.82 -0.89 -1.81 -0.92 -1.78 -0.93 -1.81 -0.97 -1.82 -0.99 -1.82 -1.03 -1.8 -1.03 -1.81 -1.05 -1.82 -1.09 -1.82 -1.1 -1.84 -1.13 -1.81 -1.13 -1.83 -1.16 -1.84 -1.18 -1.83 -1.18 -1.85 -1.2 -1.85 -1.22 -1.84 -1.22 -2.27 -2.43zm2.27 2.43l-1.43 -0.96 -0.84 -1.47 2.27 2.43zm-68.87 -37.16l-0.06 -14.28 0.06 0 5.05 0.12 4.87 0.36 4.71 0.56 4.54 0.77 4.37 0.95 4.2 1.12 4.01 1.26 3.85 1.41 3.67 1.52 3.49 1.62 3.34 1.72 3.15 1.8 2.98 1.85 2.81 1.9 2.65 1.92 2.49 1.95 2.32 1.93 2.16 1.93 2.01 1.9 1.84 1.84 1.69 1.79 1.53 1.71 1.4 1.62 1.25 1.55 1.08 1.4 0.96 1.29 0.79 1.13 0.67 0.97 0.53 0.83 0.39 0.62 0.23 0.38 0.15 0.25 -12.58 7.02 0.02 0.04 -0.15 -0.27 -0.26 -0.41 -0.37 -0.56 -0.52 -0.76 -0.64 -0.92 -0.76 -1.02 -0.91 -1.19 -1 -1.24 -1.17 -1.36 -1.3 -1.46 -1.42 -1.5 -1.57 -1.58 -1.68 -1.6 -1.84 -1.62 -1.96 -1.64 -2.1 -1.64 -2.25 -1.63 -2.37 -1.6 -2.52 -1.57 -2.66 -1.51 -2.8 -1.45 -2.95 -1.38 -3.1 -1.29 -3.24 -1.19 -3.4 -1.07 -3.53 -0.95 -3.72 -0.79 -3.87 -0.66 -4.02 -0.49 -4.21 -0.31 -4.38 -0.12 0.06 0zm-0.06 -14.28l0.03 0 0.03 0 -0.06 0zm-86.02 51.44l-8.03 -11.87 -1.07 0.86 0.18 -0.16 0.36 -0.35 0.63 -0.58 0.83 -0.76 1.05 -0.93 1.25 -1.08 1.44 -1.2 1.64 -1.36 1.85 -1.48 2.04 -1.55 2.22 -1.66 2.41 -1.71 2.56 -1.78 2.74 -1.84 2.92 -1.85 3.08 -1.86 3.23 -1.87 3.39 -1.86 3.55 -1.84 3.69 -1.79 3.83 -1.74 3.96 -1.66 4.1 -1.59 4.23 -1.48 4.35 -1.37 4.47 -1.23 4.6 -1.1 4.7 -0.93 4.8 -0.76 4.92 -0.56 5 -0.36 5.08 -0.12 0.06 14.28 -4.43 0.12 -4.37 0.31 -4.29 0.49 -4.22 0.68 -4.15 0.81 -4.06 0.97 -3.98 1.1 -3.89 1.23 -3.79 1.33 -3.68 1.41 -3.59 1.51 -3.47 1.57 -3.35 1.63 -3.22 1.66 -3.09 1.69 -2.96 1.72 -2.81 1.71 -2.67 1.7 -2.51 1.66 -2.37 1.64 -2.2 1.58 -2.03 1.51 -1.86 1.43 -1.66 1.31 -1.49 1.22 -1.31 1.11 -1.12 0.97 -0.9 0.79 -0.7 0.63 -0.48 0.45 -0.31 0.3 -0.05 0.05 -1.07 0.86zm1.07 -0.86l-0.47 0.46 -0.6 0.4 1.07 -0.86zm-63.8 26.38l-11.36 -8.83 4.84 -2.68 1.72 -0.22 1.74 -0.26 1.74 -0.3 1.77 -0.34 1.78 -0.36 1.78 -0.42 1.81 -0.46 1.81 -0.49 1.84 -0.54 1.84 -0.56 1.84 -0.61 1.88 -0.66 1.87 -0.68 1.88 -0.72 1.89 -0.76 1.92 -0.79 1.93 -0.84 1.94 -0.87 1.94 -0.92 1.97 -0.95 1.96 -0.97 1.98 -1.02 2 -1.06 2.02 -1.09 2.01 -1.12 2.02 -1.17 2.04 -1.2 2.05 -1.22 2.05 -1.27 2.07 -1.31 2.07 -1.33 2.08 -1.37 8.03 11.87 -2.2 1.44 -2.19 1.41 -2.17 1.37 -2.18 1.35 -2.18 1.32 -2.15 1.26 -2.17 1.24 -2.16 1.21 -2.15 1.17 -2.13 1.14 -2.15 1.1 -2.13 1.07 -2.12 1.02 -2.13 0.99 -2.11 0.95 -2.1 0.92 -2.11 0.89 -2.1 0.84 -2.11 0.81 -2.08 0.76 -2.07 0.72 -2.1 0.69 -2.07 0.64 -2.06 0.61 -2.07 0.56 -2.06 0.52 -2.06 0.48 -2.06 0.44 -2.04 0.38 -2.05 0.35 -2.05 0.3 -2.03 0.26 4.84 -2.68zm-11.36 -8.83l1.84 -2.33 2.99 -0.34 -4.84 2.68zm-59.16 662.47l5.14 13.36 -9.45 -4.52 -0.41 -1.29 -1.08 -3.61 -1.71 -5.83 -2.26 -7.97 -2.69 -9.99 -3.05 -11.91 -3.32 -13.72 -3.53 -15.41 -3.61 -17 -3.63 -18.49 -3.57 -19.86 -3.43 -21.14 -3.18 -22.3 -2.86 -23.35 -2.47 -24.31 -1.96 -25.16 -1.39 -25.87 -0.74 -26.51 0.03 -27.05 0.87 -27.45 1.78 -27.78 2.8 -27.98 3.89 -28.07 5.08 -28.06 6.36 -27.95 7.7 -27.73 9.17 -27.39 10.71 -26.95 12.33 -26.41 14.04 -25.73 15.85 -24.97 17.74 -24.07 11.36 8.83 -17.15 23.26 -15.33 24.14 -13.6 24.93 -11.97 25.63 -10.4 26.19 -8.92 26.69 -7.53 27.04 -6.2 27.32 -4.97 27.47 -3.81 27.52 -2.74 27.46 -1.76 27.28 -0.85 27.01 -0.03 26.63 0.72 26.13 1.37 25.53 1.94 24.81 2.43 24 2.84 23.06 3.14 22.03 3.37 20.88 3.54 19.63 3.59 18.28 3.57 16.79 3.47 15.22 3.28 13.52 3.01 11.74 2.65 9.84 2.2 7.82 1.67 5.72 1.06 3.48 0.35 1.12 -9.45 -4.52zm5.14 13.36l-7.14 2.7 -2.31 -7.22 9.45 4.52zm401.91 -10.89l13.78 4.22 -9.9 4.38 -0.61 -0.24 -1.99 -0.74 -3.1 -1.08 -4.16 -1.4 -5.14 -1.65 -6.12 -1.85 -7.05 -2.04 -7.94 -2.17 -8.81 -2.27 -9.63 -2.31 -10.44 -2.31 -11.18 -2.3 -11.91 -2.22 -12.61 -2.12 -13.25 -1.96 -13.88 -1.77 -14.44 -1.54 -15.01 -1.26 -15.52 -0.95 -16.01 -0.6 -16.44 -0.2 -16.86 0.23 -17.24 0.71 -17.58 1.22 -17.88 1.77 -18.16 2.37 -18.4 3.01 -18.61 3.68 -18.78 4.4 -18.92 5.15 -19.03 5.94 -19.1 6.79 -5.14 -13.36 19.63 -6.96 19.55 -6.11 19.43 -5.29 19.28 -4.51 19.09 -3.78 18.88 -3.09 18.62 -2.43 18.32 -1.83 18 -1.24 17.64 -0.73 17.24 -0.23 16.82 0.2 16.35 0.6 15.87 0.98 15.33 1.28 14.77 1.58 14.17 1.81 13.53 2 12.87 2.16 12.16 2.27 11.43 2.34 10.67 2.37 9.87 2.37 9.02 2.32 8.15 2.23 7.25 2.09 6.31 1.91 5.35 1.71 4.33 1.45 3.31 1.16 2.27 0.85 1.43 0.58 -9.9 4.38zm13.78 4.22l-2.43 7.77 -7.47 -3.39 9.9 -4.38z"/>
   </g>
   <path class="fil4" d="M1197.58 1383.8c0,-19.39 15.82,-35.1 35.35,-35.1 19.55,0 35.38,15.7 35.38,35.1 0,19.37 -15.84,35.07 -35.38,35.07 -19.53,0 -35.35,-15.69 -35.35,-35.07z"/>
   <g>
    <path class="fil2" d="M1232.94 1341.57l0 14.28 0 0 -1.45 0.04 -1.44 0.11 -1.4 0.17 -1.4 0.25 -1.36 0.31 -1.31 0.37 -1.33 0.45 -1.27 0.49 -1.24 0.56 -1.22 0.62 -1.17 0.66 -1.14 0.74 -1.11 0.77 -1.06 0.83 -1.03 0.88 -0.97 0.92 -0.95 0.98 -0.88 1 -0.83 1.06 -0.79 1.11 -0.73 1.13 -0.68 1.15 -0.61 1.2 -0.57 1.26 -0.51 1.26 -0.44 1.29 -0.38 1.32 -0.31 1.35 -0.25 1.4 -0.18 1.4 -0.11 1.41 -0.04 1.45 -14.43 0 0.06 -2.16 0.16 -2.16 0.28 -2.1 0.36 -2.06 0.48 -2.06 0.57 -2.01 0.67 -1.98 0.77 -1.93 0.84 -1.84 0.94 -1.84 1.02 -1.78 1.11 -1.72 1.19 -1.64 1.25 -1.6 1.36 -1.54 1.39 -1.44 1.48 -1.41 1.55 -1.32 1.6 -1.25 1.66 -1.18 1.73 -1.1 1.8 -1.02 1.84 -0.93 1.89 -0.85 1.94 -0.76 1.96 -0.66 2.04 -0.58 2.06 -0.46 2.08 -0.38 2.16 -0.27 2.15 -0.15 2.18 -0.06 0 0zm42.59 42.23l-14.43 0 0 0 -0.04 -1.45 -0.11 -1.41 -0.18 -1.4 -0.25 -1.4 -0.31 -1.35 -0.38 -1.32 -0.44 -1.29 -0.51 -1.26 -0.57 -1.26 -0.61 -1.19 -0.68 -1.15 -0.75 -1.16 -0.77 -1.09 -0.84 -1.06 -0.87 -1 -0.95 -0.97 -0.98 -0.94 -1.01 -0.87 -1.06 -0.82 -1.12 -0.78 -1.14 -0.74 -1.17 -0.66 -1.22 -0.62 -1.24 -0.56 -1.27 -0.49 -1.33 -0.45 -1.31 -0.37 -1.37 -0.31 -1.4 -0.25 -1.39 -0.17 -1.44 -0.11 -1.46 -0.04 0 -14.28 2.19 0.06 2.15 0.15 2.15 0.27 2.08 0.38 2.06 0.46 2.06 0.58 1.96 0.66 1.94 0.76 1.89 0.85 1.84 0.93 1.8 1.02 1.73 1.1 1.65 1.17 1.62 1.26 1.55 1.33 1.46 1.4 1.41 1.45 1.35 1.54 1.26 1.6 1.19 1.66 1.09 1.69 1.04 1.78 0.94 1.84 0.84 1.84 0.77 1.93 0.67 1.98 0.57 2.01 0.48 2.06 0.36 2.06 0.28 2.1 0.16 2.16 0.06 2.16 0 0zm-42.59 42.21l0 -14.28 0 0 1.46 -0.04 1.44 -0.11 1.39 -0.17 1.4 -0.25 1.37 -0.31 1.31 -0.37 1.33 -0.45 1.27 -0.49 1.24 -0.56 1.22 -0.62 1.19 -0.67 1.12 -0.72 1.1 -0.78 1.08 -0.83 1.02 -0.88 0.97 -0.92 0.94 -0.97 0.89 -1.02 0.83 -1.05 0.77 -1.08 0.75 -1.15 0.68 -1.17 0.61 -1.19 0.57 -1.27 0.51 -1.26 0.44 -1.28 0.38 -1.33 0.31 -1.33 0.25 -1.39 0.18 -1.41 0.11 -1.41 0.04 -1.45 14.43 0 -0.06 2.16 -0.16 2.15 -0.28 2.1 -0.36 2.07 -0.48 2.06 -0.57 2 -0.67 1.99 -0.77 1.91 -0.84 1.84 -0.94 1.84 -1.04 1.78 -1.09 1.7 -1.19 1.67 -1.27 1.59 -1.33 1.52 -1.41 1.47 -1.47 1.4 -1.54 1.32 -1.6 1.25 -1.67 1.19 -1.75 1.1 -1.78 1.01 -1.84 0.93 -1.89 0.85 -1.94 0.76 -1.96 0.66 -2.06 0.58 -2.06 0.46 -2.08 0.38 -2.15 0.27 -2.15 0.15 -2.19 0.06 0 0zm-42.57 -42.21l14.43 0 0 0 0.04 1.45 0.11 1.41 0.18 1.41 0.25 1.39 0.31 1.33 0.38 1.33 0.44 1.28 0.51 1.26 0.57 1.27 0.61 1.19 0.68 1.17 0.73 1.12 0.79 1.1 0.82 1.05 0.9 1.02 0.94 0.98 0.96 0.9 1.04 0.89 1.08 0.84 1.09 0.77 1.12 0.72 1.19 0.67 1.22 0.62 1.24 0.56 1.27 0.49 1.33 0.45 1.31 0.37 1.36 0.31 1.4 0.25 1.4 0.17 1.44 0.11 1.45 0.04 0 14.28 -2.18 -0.06 -2.15 -0.15 -2.16 -0.27 -2.08 -0.38 -2.06 -0.46 -2.04 -0.58 -1.96 -0.66 -1.94 -0.76 -1.89 -0.85 -1.84 -0.93 -1.78 -1.01 -1.75 -1.1 -1.68 -1.19 -1.58 -1.24 -1.54 -1.31 -1.49 -1.41 -1.4 -1.46 -1.34 -1.52 -1.26 -1.59 -1.19 -1.65 -1.11 -1.73 -1.02 -1.78 -0.94 -1.83 -0.84 -1.84 -0.77 -1.91 -0.67 -1.99 -0.57 -2 -0.48 -2.06 -0.36 -2.07 -0.28 -2.1 -0.16 -2.15 -0.06 -2.16 0 0z"/>
   </g>
   <path class="fil5" d="M367.18 1038.98l251.82 0c39.9,0 72.21,32.09 72.21,71.67l0 168.44c0,39.56 -32.32,71.67 -72.21,71.67l-251.82 0c-39.91,0 -72.24,-32.11 -72.24,-71.67l0 -168.44c0,-39.58 32.34,-71.67 72.24,-71.67z"/>
   <g>
    <path class="fil2" d="M619 1046.12l-251.81 0 0 -14.28 251.81 0 0 0 0 14.28zm79.43 64.53l-14.43 0 0 0 -0.09 -3.33 -0.25 -3.29 -0.41 -3.23 -0.57 -3.16 -0.73 -3.13 -0.88 -3.07 -1.01 -2.99 -1.18 -2.92 -1.29 -2.86 -1.44 -2.78 -1.56 -2.7 -1.69 -2.61 -1.81 -2.53 -1.94 -2.44 -2.05 -2.35 -2.14 -2.24 -2.27 -2.13 -2.36 -2.04 -2.46 -1.91 -2.54 -1.8 -2.65 -1.68 -2.72 -1.56 -2.79 -1.42 -2.88 -1.29 -2.95 -1.15 -3.02 -1.01 -3.08 -0.87 -3.14 -0.73 -3.19 -0.56 -3.25 -0.4 -3.31 -0.26 -3.35 -0.09 0 -14.28 4.08 0.11 4.03 0.3 3.98 0.5 3.92 0.7 3.85 0.88 3.77 1.06 3.69 1.24 3.6 1.41 3.53 1.58 3.44 1.75 3.32 1.9 3.22 2.05 3.12 2.2 2.99 2.33 2.88 2.48 2.76 2.61 2.64 2.75 2.49 2.85 2.36 2.97 2.21 3.09 2.07 3.2 1.9 3.3 1.75 3.39 1.6 3.49 1.42 3.59 1.24 3.66 1.07 3.74 0.9 3.81 0.69 3.89 0.51 3.94 0.31 4 0.11 4.05 0 0zm-14.43 168.43l0 -168.43 14.43 0 0 168.43 0 0 -14.43 0zm-65 78.82l0 -14.28 0 0 3.35 -0.09 3.31 -0.26 3.25 -0.4 3.19 -0.56 3.14 -0.73 3.08 -0.87 3.01 -1 2.95 -1.17 2.9 -1.29 2.79 -1.41 2.71 -1.56 2.65 -1.68 2.54 -1.8 2.45 -1.91 2.37 -2.05 2.27 -2.13 2.14 -2.23 2.05 -2.36 1.94 -2.44 1.81 -2.53 1.69 -2.61 1.56 -2.7 1.43 -2.79 1.31 -2.87 1.17 -2.92 1.01 -3 0.88 -3.07 0.73 -3.12 0.57 -3.16 0.41 -3.24 0.25 -3.28 0.09 -3.33 14.43 0 -0.11 4.05 -0.31 3.99 -0.51 3.95 -0.69 3.89 -0.9 3.82 -1.07 3.72 -1.24 3.67 -1.43 3.58 -1.58 3.48 -1.76 3.4 -1.9 3.31 -2.07 3.2 -2.21 3.09 -2.36 2.97 -2.49 2.86 -2.64 2.74 -2.76 2.61 -2.87 2.47 -3 2.35 -3.12 2.2 -3.22 2.05 -3.33 1.9 -3.44 1.74 -3.51 1.58 -3.6 1.41 -3.7 1.25 -3.77 1.06 -3.85 0.88 -3.92 0.7 -3.98 0.5 -4.03 0.3 -4.08 0.11 0 0zm-251.81 -14.28l251.81 0 0 14.28 -251.81 0 0 0 0 -14.28zm-79.47 -64.54l14.43 0 0 0 0.09 3.33 0.25 3.28 0.41 3.23 0.58 3.17 0.72 3.13 0.88 3.05 1.02 3.01 1.17 2.92 1.3 2.86 1.43 2.78 1.56 2.7 1.7 2.62 1.81 2.53 1.94 2.44 2.05 2.36 2.14 2.23 2.27 2.13 2.36 2.04 2.47 1.92 2.54 1.8 2.65 1.68 2.71 1.56 2.79 1.41 2.9 1.29 2.95 1.16 3.02 1.01 3.08 0.87 3.14 0.73 3.19 0.56 3.26 0.4 3.31 0.26 3.35 0.09 0 14.28 -4.08 -0.11 -4.03 -0.3 -3.97 -0.5 -3.94 -0.7 -3.85 -0.88 -3.77 -1.06 -3.71 -1.24 -3.6 -1.42 -3.51 -1.58 -3.44 -1.74 -3.33 -1.9 -3.22 -2.05 -3.12 -2.2 -3 -2.34 -2.88 -2.48 -2.76 -2.61 -2.64 -2.74 -2.49 -2.86 -2.36 -2.97 -2.21 -3.09 -2.06 -3.19 -1.92 -3.31 -1.76 -3.41 -1.59 -3.49 -1.41 -3.57 -1.25 -3.66 -1.07 -3.74 -0.89 -3.81 -0.7 -3.88 -0.51 -3.96 -0.31 -3.99 -0.11 -4.05 0 0zm14.43 -168.43l0 168.43 -14.43 0 0 -168.43 0 0 14.43 0zm65.03 -78.81l0 14.28 0 0 -3.35 0.09 -3.31 0.26 -3.26 0.4 -3.19 0.56 -3.14 0.73 -3.08 0.87 -3.03 1.01 -2.95 1.15 -2.88 1.29 -2.79 1.42 -2.72 1.56 -2.65 1.68 -2.55 1.81 -2.46 1.9 -2.36 2.04 -2.27 2.13 -2.14 2.24 -2.05 2.35 -1.94 2.44 -1.81 2.53 -1.7 2.62 -1.56 2.7 -1.44 2.78 -1.29 2.85 -1.17 2.93 -1.02 3 -0.88 3.05 -0.72 3.14 -0.58 3.17 -0.41 3.22 -0.25 3.29 -0.09 3.33 -14.43 0 0.11 -4.05 0.31 -4 0.51 -3.95 0.7 -3.88 0.89 -3.8 1.07 -3.76 1.25 -3.65 1.41 -3.58 1.6 -3.5 1.75 -3.39 1.92 -3.31 2.06 -3.19 2.21 -3.09 2.36 -2.97 2.49 -2.85 2.64 -2.75 2.76 -2.61 2.88 -2.48 3.01 -2.34 3.11 -2.19 3.22 -2.05 3.32 -1.9 3.44 -1.75 3.53 -1.58 3.6 -1.41 3.7 -1.24 3.77 -1.06 3.85 -0.88 3.94 -0.7 3.97 -0.5 4.03 -0.3 4.08 -0.11 0 0z"/>
   </g>
   <path class="fil2" d="M395.99 1079.41l199.53 0c30.05,0 54.42,24.17 54.42,53.99l0 122.95c0,29.8 -24.37,53.98 -54.42,53.98l-199.53 0c-30.07,0 -54.42,-24.18 -54.42,-53.98l0 -122.95c0,-29.82 24.35,-53.99 54.42,-53.99z"/>
   <g>
    <path class="fil2" d="M595.51 1086.55l-199.53 0 0 -14.28 199.53 0 0 0 0 14.28zm61.64 46.85l-14.43 0 0 0 -0.06 -2.43 -0.18 -2.37 -0.31 -2.34 -0.42 -2.33 -0.52 -2.25 -0.64 -2.21 -0.75 -2.18 -0.85 -2.14 -0.95 -2.07 -1.03 -2.02 -1.14 -1.94 -1.24 -1.92 -1.31 -1.84 -1.4 -1.76 -1.48 -1.69 -1.57 -1.63 -1.65 -1.57 -1.7 -1.46 -1.78 -1.39 -1.85 -1.3 -1.93 -1.23 -1.97 -1.13 -2.04 -1.03 -2.09 -0.94 -2.13 -0.83 -2.2 -0.74 -2.23 -0.63 -2.29 -0.53 -2.32 -0.41 -2.36 -0.3 -2.39 -0.18 -2.44 -0.07 0 -14.28 3.16 0.07 3.14 0.24 3.09 0.39 3.03 0.54 2.98 0.68 2.93 0.82 2.87 0.97 2.8 1.1 2.72 1.22 2.67 1.36 2.58 1.47 2.49 1.58 2.43 1.7 2.33 1.83 2.24 1.92 2.13 2.03 2.05 2.11 1.94 2.23 1.84 2.31 1.71 2.4 1.59 2.46 1.5 2.57 1.36 2.65 1.23 2.7 1.1 2.77 0.97 2.83 0.83 2.92 0.69 2.97 0.54 3 0.4 3.05 0.24 3.12 0.08 3.14 0 0zm-14.43 122.95l0 -122.95 14.43 0 0 122.95 0 0 -14.43 0zm-47.21 61.12l0 -14.28 0 0 2.44 -0.07 2.39 -0.18 2.36 -0.3 2.32 -0.41 2.29 -0.53 2.23 -0.63 2.2 -0.74 2.13 -0.83 2.09 -0.94 2.04 -1.03 1.97 -1.13 1.93 -1.23 1.85 -1.3 1.77 -1.38 1.71 -1.48 1.65 -1.57 1.57 -1.62 1.48 -1.69 1.4 -1.76 1.31 -1.84 1.24 -1.92 1.14 -1.94 1.03 -2.02 0.95 -2.07 0.85 -2.14 0.75 -2.18 0.64 -2.21 0.52 -2.26 0.42 -2.31 0.31 -2.35 0.18 -2.36 0.06 -2.43 14.43 0 -0.08 3.14 -0.24 3.11 -0.4 3.06 -0.54 3 -0.69 2.96 -0.83 2.92 -0.97 2.83 -1.1 2.77 -1.23 2.7 -1.36 2.65 -1.5 2.57 -1.59 2.46 -1.71 2.4 -1.84 2.31 -1.94 2.23 -2.05 2.12 -2.13 2.01 -2.23 1.92 -2.34 1.84 -2.43 1.7 -2.49 1.58 -2.58 1.47 -2.67 1.36 -2.72 1.22 -2.8 1.1 -2.87 0.97 -2.93 0.82 -2.98 0.68 -3.03 0.54 -3.09 0.39 -3.14 0.24 -3.16 0.07 0 0zm-199.53 -14.28l199.53 0 0 14.28 -199.53 0 0 0 0 -14.28zm-61.64 -46.84l14.43 0 0 0 0.06 2.43 0.18 2.36 0.31 2.35 0.42 2.31 0.52 2.26 0.64 2.23 0.74 2.17 0.85 2.13 0.94 2.06 1.05 2.03 1.13 1.95 1.23 1.9 1.32 1.84 1.41 1.77 1.48 1.7 1.56 1.62 1.64 1.55 1.73 1.48 1.78 1.4 1.84 1.3 1.92 1.22 1.97 1.13 2.04 1.03 2.08 0.94 2.15 0.83 2.19 0.74 2.24 0.63 2.28 0.53 2.33 0.41 2.36 0.3 2.39 0.18 2.44 0.07 0 14.28 -3.16 -0.07 -3.14 -0.24 -3.09 -0.39 -3.04 -0.54 -2.97 -0.68 -2.94 -0.82 -2.86 -0.97 -2.8 -1.1 -2.73 -1.22 -2.67 -1.36 -2.58 -1.47 -2.49 -1.59 -2.42 -1.7 -2.33 -1.82 -2.23 -1.92 -2.14 -2.03 -2.04 -2.12 -1.94 -2.22 -1.83 -2.3 -1.72 -2.4 -1.6 -2.48 -1.49 -2.56 -1.36 -2.64 -1.24 -2.71 -1.1 -2.78 -0.97 -2.84 -0.83 -2.9 -0.69 -2.96 -0.54 -3 -0.4 -3.06 -0.24 -3.11 -0.08 -3.14 0 0zm14.43 -122.95l0 122.95 -14.43 0 0 -122.95 0 0 14.43 0zm47.21 -61.13l0 14.28 0 0 -2.44 0.07 -2.39 0.18 -2.36 0.3 -2.33 0.41 -2.28 0.53 -2.24 0.63 -2.19 0.74 -2.15 0.83 -2.08 0.94 -2.04 1.03 -1.97 1.13 -1.92 1.22 -1.84 1.3 -1.79 1.4 -1.72 1.47 -1.63 1.55 -1.57 1.63 -1.48 1.7 -1.41 1.77 -1.32 1.84 -1.23 1.9 -1.13 1.95 -1.05 2.03 -0.94 2.06 -0.85 2.13 -0.74 2.17 -0.64 2.23 -0.52 2.25 -0.42 2.33 -0.31 2.34 -0.18 2.37 -0.06 2.43 -14.43 0 0.08 -3.14 0.24 -3.12 0.4 -3.05 0.54 -3 0.69 -2.97 0.83 -2.9 0.97 -2.84 1.1 -2.78 1.24 -2.71 1.36 -2.64 1.49 -2.56 1.6 -2.48 1.72 -2.4 1.83 -2.3 1.94 -2.22 2.03 -2.11 2.15 -2.05 2.24 -1.91 2.32 -1.82 2.42 -1.7 2.49 -1.59 2.58 -1.47 2.67 -1.36 2.73 -1.22 2.8 -1.1 2.86 -0.97 2.94 -0.82 2.97 -0.68 3.04 -0.54 3.09 -0.39 3.14 -0.24 3.16 -0.07 0 0z"/>
   </g>
   <path class="fil6" d="M649.94 1225.53c-90.06,-8.9 -121.44,-113.56 -129.05,-146.13l74.63 0c30.04,0 54.42,24.19 54.42,54.01l0 92.11z"/>
   <g>
    <path class="fil2" d="M520.88 1072.27l0 14.28 7.03 -8.76 0.76 3.16 0.92 3.57 1.05 3.92 1.21 4.23 1.37 4.53 1.54 4.79 1.72 5.04 1.88 5.22 2.08 5.39 2.26 5.53 2.47 5.64 2.66 5.72 2.88 5.75 3.08 5.77 3.3 5.75 3.52 5.72 3.74 5.62 3.97 5.52 4.21 5.37 4.44 5.21 4.67 5.01 4.92 4.78 5.18 4.52 5.43 4.24 5.69 3.93 5.95 3.59 6.23 3.24 6.5 2.85 6.81 2.43 7.11 2.01 7.45 1.54 7.76 1.04 -1.43 14.22 -8.77 -1.18 -8.44 -1.75 -8.09 -2.27 -7.76 -2.77 -7.42 -3.25 -7.05 -3.68 -6.74 -4.05 -6.39 -4.43 -6.08 -4.74 -5.75 -5.04 -5.44 -5.28 -5.15 -5.51 -4.85 -5.69 -4.57 -5.83 -4.29 -5.97 -4.02 -6.04 -3.77 -6.12 -3.51 -6.14 -3.27 -6.14 -3.05 -6.1 -2.81 -6.04 -2.6 -5.95 -2.39 -5.82 -2.18 -5.68 -1.98 -5.49 -1.8 -5.27 -1.62 -5.02 -1.44 -4.76 -1.27 -4.44 -1.11 -4.11 -0.96 -3.74 -0.8 -3.35 7.03 -8.76zm-7.03 8.76l-2.06 -8.76 9.08 0 -7.03 8.76zm81.66 5.52l-74.63 0 0 -14.28 74.63 0 0 0 0 14.28zm61.64 46.87l-14.43 0 0 0 -0.06 -2.43 -0.18 -2.37 -0.31 -2.34 -0.42 -2.33 -0.52 -2.25 -0.64 -2.22 -0.75 -2.18 -0.85 -2.13 -0.94 -2.07 -1.05 -2.02 -1.14 -1.97 -1.22 -1.89 -1.32 -1.84 -1.41 -1.77 -1.48 -1.7 -1.57 -1.63 -1.63 -1.55 -1.72 -1.47 -1.8 -1.41 -1.84 -1.31 -1.9 -1.2 -1.99 -1.14 -2.04 -1.03 -2.07 -0.94 -2.15 -0.83 -2.19 -0.74 -2.24 -0.63 -2.28 -0.53 -2.32 -0.41 -2.36 -0.3 -2.39 -0.18 -2.44 -0.07 0 -14.28 3.16 0.07 3.14 0.24 3.09 0.39 3.03 0.54 2.97 0.68 2.94 0.82 2.86 0.97 2.8 1.1 2.74 1.22 2.65 1.36 2.58 1.46 2.51 1.61 2.42 1.71 2.31 1.81 2.24 1.91 2.15 2.05 2.03 2.11 1.94 2.22 1.83 2.3 1.72 2.4 1.61 2.49 1.48 2.56 1.36 2.63 1.24 2.72 1.1 2.76 0.97 2.85 0.83 2.91 0.69 2.97 0.54 3 0.4 3.05 0.24 3.12 0.08 3.14 0 0zm-14.43 92.11l0 -92.11 14.43 0 0 92.11 -7.93 7.11 -6.5 -7.11zm14.43 0l0 7.9 -7.93 -0.78 7.93 -7.11z"/>
   </g>
   <path class="fil6" d="M471.76 1079.41c-5.85,29.78 -34.2,141.86 -130.2,146.59l0 -92.58c0,-29.82 24.36,-54.01 54.43,-54.01l75.77 0z"/>
   <g>
    <path class="fil2" d="M334.35 1226l14.43 0 -7.58 -7.14 8.29 -0.71 7.89 -1.26 7.5 -1.78 7.16 -2.27 6.81 -2.73 6.49 -3.14 6.17 -3.55 5.87 -3.93 5.58 -4.25 5.28 -4.58 5.02 -4.87 4.73 -5.11 4.47 -5.32 4.21 -5.52 3.96 -5.67 3.7 -5.79 3.45 -5.87 3.22 -5.93 2.98 -5.95 2.76 -5.92 2.53 -5.86 2.32 -5.78 2.11 -5.65 1.92 -5.5 1.72 -5.3 1.54 -5.07 1.38 -4.79 1.19 -4.49 1.04 -4.17 0.88 -3.79 0.74 -3.36 0.59 -2.94 14.17 2.73 -0.63 3.12 -0.77 3.57 -0.94 4 -1.08 4.36 -1.26 4.74 -1.43 5.04 -1.62 5.31 -1.82 5.56 -2.02 5.78 -2.23 5.95 -2.46 6.11 -2.69 6.22 -2.93 6.28 -3.17 6.33 -3.45 6.35 -3.72 6.31 -3.99 6.25 -4.3 6.17 -4.59 6.01 -4.91 5.86 -5.25 5.65 -5.57 5.4 -5.93 5.13 -6.29 4.81 -6.65 4.44 -7.03 4.04 -7.41 3.6 -7.8 3.12 -8.17 2.59 -8.55 2.03 -8.96 1.43 -9.32 0.8 -7.58 -7.14zm7.58 7.14l-7.58 0.37 0 -7.51 7.58 7.14zm6.85 -99.72l0 92.58 -14.43 0 0 -92.58 0 0 14.43 0zm47.23 -61.15l0 14.28 0 0 -2.44 0.07 -2.39 0.18 -2.36 0.3 -2.33 0.41 -2.29 0.53 -2.23 0.63 -2.2 0.74 -2.14 0.83 -2.09 0.94 -2.03 1.03 -1.99 1.14 -1.9 1.2 -1.84 1.31 -1.8 1.41 -1.72 1.47 -1.63 1.55 -1.57 1.63 -1.48 1.7 -1.41 1.77 -1.32 1.84 -1.23 1.9 -1.14 1.96 -1.03 2.01 -0.95 2.08 -0.85 2.13 -0.75 2.18 -0.64 2.22 -0.52 2.25 -0.42 2.33 -0.31 2.34 -0.18 2.37 -0.06 2.43 -14.43 0 0.08 -3.14 0.24 -3.12 0.4 -3.05 0.54 -3 0.69 -2.97 0.83 -2.91 0.97 -2.85 1.1 -2.76 1.23 -2.71 1.36 -2.64 1.5 -2.57 1.6 -2.48 1.72 -2.4 1.83 -2.3 1.94 -2.22 2.03 -2.11 2.15 -2.05 2.24 -1.91 2.31 -1.81 2.42 -1.71 2.51 -1.61 2.58 -1.46 2.66 -1.36 2.74 -1.22 2.79 -1.1 2.87 -0.97 2.93 -0.82 2.98 -0.68 3.04 -0.54 3.09 -0.39 3.14 -0.24 3.16 -0.07 0 0zm75.76 14.28l-75.76 0 0 -14.28 75.76 0 7.08 8.51 -7.08 5.77zm0 -14.28l8.76 0 -1.67 8.51 -7.08 -8.51z"/>
   </g>
   <path class="fil5" d="M1487.72 1038.98l251.81 0c39.9,0 72.24,32.09 72.24,71.67l0 168.44c0,39.56 -32.34,71.67 -72.24,71.67l-251.81 0c-39.88,0 -72.23,-32.11 -72.23,-71.67l0 -168.44c0,-39.58 32.35,-71.67 72.23,-71.67z"/>
   <g>
    <path class="fil2" d="M1739.54 1046.12l-251.81 0 0 -14.28 251.81 0 0 0 0 14.28zm79.45 64.53l-14.43 0 0 0 -0.09 -3.33 -0.25 -3.29 -0.41 -3.22 -0.58 -3.17 -0.72 -3.14 -0.88 -3.05 -1.02 -3 -1.17 -2.93 -1.29 -2.85 -1.44 -2.78 -1.56 -2.7 -1.7 -2.62 -1.81 -2.53 -1.94 -2.44 -2.05 -2.35 -2.14 -2.24 -2.27 -2.13 -2.36 -2.04 -2.45 -1.9 -2.56 -1.81 -2.64 -1.68 -2.72 -1.56 -2.81 -1.42 -2.87 -1.29 -2.94 -1.15 -3.03 -1.01 -3.08 -0.87 -3.14 -0.73 -3.19 -0.56 -3.25 -0.4 -3.31 -0.26 -3.35 -0.09 0 -14.28 4.08 0.11 4.03 0.3 3.98 0.5 3.92 0.7 3.85 0.88 3.77 1.06 3.7 1.24 3.61 1.41 3.52 1.58 3.42 1.75 3.34 1.9 3.21 2.05 3.12 2.19 3 2.34 2.88 2.48 2.76 2.61 2.64 2.75 2.49 2.85 2.36 2.97 2.21 3.09 2.06 3.19 1.92 3.31 1.75 3.39 1.6 3.5 1.41 3.58 1.25 3.65 1.07 3.76 0.89 3.8 0.7 3.88 0.51 3.95 0.31 4 0.11 4.05 0 0zm-14.43 168.43l0 -168.43 14.43 0 0 168.43 0 0 -14.43 0zm-65.01 78.82l0 -14.28 0 0 3.35 -0.09 3.31 -0.26 3.25 -0.4 3.19 -0.56 3.14 -0.73 3.08 -0.87 3.02 -1.01 2.95 -1.16 2.88 -1.29 2.8 -1.42 2.72 -1.55 2.64 -1.68 2.55 -1.8 2.45 -1.91 2.37 -2.05 2.27 -2.13 2.14 -2.23 2.05 -2.36 1.94 -2.44 1.81 -2.53 1.7 -2.62 1.56 -2.7 1.43 -2.78 1.3 -2.86 1.17 -2.92 1.02 -3.01 0.88 -3.05 0.72 -3.13 0.58 -3.17 0.41 -3.23 0.25 -3.28 0.09 -3.33 14.43 0 -0.11 4.05 -0.31 3.99 -0.51 3.96 -0.7 3.88 -0.89 3.81 -1.07 3.74 -1.25 3.66 -1.41 3.57 -1.59 3.49 -1.76 3.41 -1.92 3.31 -2.06 3.19 -2.21 3.09 -2.36 2.97 -2.49 2.86 -2.64 2.74 -2.76 2.61 -2.87 2.47 -3 2.35 -3.13 2.2 -3.21 2.05 -3.34 1.91 -3.43 1.73 -3.51 1.58 -3.6 1.42 -3.71 1.24 -3.77 1.06 -3.85 0.88 -3.92 0.7 -3.98 0.5 -4.03 0.3 -4.08 0.11 0 0zm-251.81 -14.28l251.81 0 0 14.28 -251.81 0 0 0 0 -14.28zm-79.45 -64.54l14.43 0 0 0 0.09 3.33 0.25 3.28 0.41 3.23 0.58 3.17 0.72 3.13 0.88 3.05 1.02 3.01 1.17 2.92 1.3 2.86 1.43 2.78 1.56 2.7 1.7 2.62 1.81 2.53 1.94 2.44 2.04 2.35 2.16 2.24 2.27 2.14 2.35 2.03 2.47 1.92 2.54 1.8 2.65 1.68 2.71 1.56 2.79 1.41 2.9 1.29 2.95 1.17 3.01 1 3.09 0.87 3.14 0.73 3.19 0.56 3.25 0.4 3.31 0.26 3.35 0.09 0 14.28 -4.08 -0.11 -4.03 -0.3 -3.98 -0.5 -3.92 -0.7 -3.84 -0.88 -3.78 -1.06 -3.7 -1.25 -3.6 -1.41 -3.51 -1.58 -3.44 -1.74 -3.33 -1.9 -3.22 -2.05 -3.12 -2.2 -3 -2.34 -2.89 -2.49 -2.74 -2.6 -2.64 -2.73 -2.49 -2.87 -2.36 -2.97 -2.21 -3.09 -2.06 -3.19 -1.92 -3.31 -1.76 -3.41 -1.59 -3.49 -1.41 -3.57 -1.25 -3.66 -1.07 -3.74 -0.89 -3.81 -0.7 -3.88 -0.51 -3.96 -0.31 -3.99 -0.11 -4.05 0 0zm14.43 -168.43l0 168.43 -14.43 0 0 -168.43 0 0 14.43 0zm65.01 -78.81l0 14.28 0 0 -3.35 0.09 -3.31 0.26 -3.25 0.4 -3.19 0.56 -3.14 0.73 -3.09 0.87 -3.02 1.01 -2.95 1.15 -2.88 1.29 -2.79 1.42 -2.72 1.56 -2.65 1.68 -2.55 1.81 -2.46 1.9 -2.35 2.03 -2.27 2.14 -2.16 2.25 -2.04 2.34 -1.94 2.44 -1.81 2.53 -1.7 2.62 -1.56 2.7 -1.44 2.78 -1.29 2.85 -1.17 2.93 -1.02 3 -0.88 3.05 -0.72 3.14 -0.58 3.17 -0.41 3.22 -0.25 3.29 -0.09 3.33 -14.43 0 0.11 -4.05 0.31 -4 0.51 -3.95 0.7 -3.88 0.89 -3.8 1.07 -3.76 1.25 -3.65 1.41 -3.58 1.6 -3.5 1.75 -3.39 1.92 -3.31 2.06 -3.19 2.21 -3.09 2.36 -2.97 2.49 -2.86 2.64 -2.74 2.74 -2.6 2.89 -2.49 3.01 -2.34 3.11 -2.19 3.22 -2.05 3.32 -1.9 3.44 -1.75 3.53 -1.58 3.6 -1.41 3.69 -1.24 3.78 -1.06 3.84 -0.88 3.92 -0.7 3.98 -0.5 4.03 -0.3 4.08 -0.11 0 0z"/>
   </g>
   <path class="fil2" d="M1516.53 1079.41l199.54 0c30.06,0 54.42,24.17 54.42,53.99l0 122.95c0,29.8 -24.36,53.98 -54.42,53.98l-199.54 0c-30.04,0 -54.4,-24.18 -54.4,-53.98l0 -122.95c0,-29.82 24.35,-53.99 54.4,-53.99z"/>
   <g>
    <path class="fil2" d="M1716.07 1086.55l-199.54 0 0 -14.28 199.54 0 0 0 0 14.28zm61.64 46.85l-14.43 0 0 0 -0.06 -2.43 -0.18 -2.37 -0.31 -2.34 -0.42 -2.33 -0.52 -2.25 -0.64 -2.23 -0.74 -2.17 -0.85 -2.13 -0.94 -2.06 -1.05 -2.03 -1.13 -1.95 -1.23 -1.9 -1.32 -1.84 -1.41 -1.77 -1.48 -1.69 -1.58 -1.64 -1.63 -1.56 -1.71 -1.46 -1.79 -1.4 -1.84 -1.3 -1.91 -1.21 -1.99 -1.14 -2.03 -1.03 -2.09 -0.94 -2.14 -0.83 -2.2 -0.74 -2.23 -0.63 -2.28 -0.53 -2.33 -0.41 -2.36 -0.3 -2.39 -0.18 -2.44 -0.07 0 -14.28 3.16 0.07 3.14 0.24 3.09 0.39 3.04 0.54 2.97 0.68 2.93 0.82 2.87 0.97 2.79 1.1 2.74 1.22 2.66 1.36 2.58 1.46 2.5 1.6 2.42 1.7 2.32 1.82 2.25 1.92 2.13 2.04 2.04 2.1 1.94 2.23 1.83 2.3 1.72 2.4 1.6 2.48 1.49 2.56 1.36 2.64 1.24 2.71 1.1 2.78 0.97 2.84 0.83 2.9 0.69 2.97 0.54 3 0.4 3.05 0.24 3.12 0.08 3.14 0 0zm-14.43 122.95l0 -122.95 14.43 0 0 122.95 0 0 -14.43 0zm-47.21 61.12l0 -14.28 0 0 2.44 -0.07 2.39 -0.18 2.36 -0.3 2.33 -0.41 2.28 -0.53 2.23 -0.63 2.2 -0.74 2.14 -0.83 2.09 -0.94 2.03 -1.03 1.99 -1.14 1.91 -1.21 1.84 -1.3 1.78 -1.4 1.72 -1.47 1.64 -1.56 1.57 -1.63 1.48 -1.69 1.41 -1.77 1.32 -1.84 1.23 -1.9 1.13 -1.95 1.05 -2.03 0.94 -2.06 0.85 -2.13 0.74 -2.17 0.64 -2.23 0.52 -2.26 0.42 -2.31 0.31 -2.35 0.18 -2.36 0.06 -2.43 14.43 0 -0.08 3.14 -0.24 3.11 -0.4 3.06 -0.54 3 -0.69 2.96 -0.83 2.9 -0.97 2.84 -1.1 2.78 -1.24 2.71 -1.36 2.64 -1.49 2.56 -1.6 2.48 -1.72 2.4 -1.83 2.3 -1.94 2.23 -2.05 2.11 -2.12 2.02 -2.24 1.93 -2.33 1.82 -2.42 1.7 -2.5 1.6 -2.58 1.46 -2.66 1.36 -2.74 1.22 -2.79 1.1 -2.87 0.97 -2.93 0.82 -2.97 0.68 -3.04 0.54 -3.09 0.39 -3.14 0.24 -3.16 0.07 0 0zm-199.54 -14.28l199.54 0 0 14.28 -199.54 0 0 0 0 -14.28zm-61.61 -46.84l14.43 0 0 0 0.06 2.43 0.18 2.36 0.31 2.35 0.42 2.31 0.52 2.26 0.64 2.23 0.74 2.17 0.85 2.13 0.94 2.06 1.05 2.03 1.13 1.95 1.23 1.9 1.32 1.84 1.41 1.77 1.47 1.7 1.57 1.62 1.65 1.57 1.71 1.48 1.78 1.39 1.84 1.3 1.92 1.22 1.97 1.13 2.04 1.03 2.09 0.94 2.13 0.83 2.2 0.74 2.23 0.63 2.28 0.53 2.32 0.41 2.36 0.3 2.39 0.18 2.44 0.07 0 14.28 -3.16 -0.07 -3.14 -0.24 -3.09 -0.39 -3.03 -0.54 -2.97 -0.68 -2.93 -0.82 -2.87 -0.97 -2.8 -1.1 -2.72 -1.22 -2.67 -1.36 -2.58 -1.47 -2.49 -1.59 -2.42 -1.7 -2.33 -1.83 -2.23 -1.92 -2.13 -2.01 -2.05 -2.13 -1.93 -2.22 -1.83 -2.3 -1.72 -2.4 -1.6 -2.48 -1.49 -2.56 -1.36 -2.64 -1.24 -2.71 -1.1 -2.78 -0.97 -2.84 -0.83 -2.9 -0.69 -2.96 -0.54 -3 -0.4 -3.06 -0.24 -3.11 -0.08 -3.14 0 0zm14.43 -122.95l0 122.95 -14.43 0 0 -122.95 0 0 14.43 0zm47.18 -61.13l0 14.28 0 0 -2.44 0.07 -2.39 0.18 -2.36 0.3 -2.32 0.41 -2.28 0.53 -2.23 0.63 -2.2 0.74 -2.13 0.83 -2.09 0.94 -2.04 1.03 -1.97 1.13 -1.92 1.22 -1.84 1.3 -1.79 1.4 -1.7 1.46 -1.65 1.57 -1.57 1.62 -1.47 1.7 -1.41 1.77 -1.32 1.84 -1.23 1.9 -1.13 1.95 -1.05 2.03 -0.94 2.06 -0.85 2.13 -0.74 2.17 -0.64 2.23 -0.52 2.25 -0.42 2.33 -0.31 2.34 -0.18 2.37 -0.06 2.43 -14.43 0 0.08 -3.14 0.24 -3.12 0.4 -3.05 0.54 -3 0.69 -2.97 0.83 -2.9 0.97 -2.84 1.1 -2.78 1.24 -2.71 1.36 -2.64 1.49 -2.56 1.6 -2.48 1.72 -2.4 1.83 -2.3 1.93 -2.22 2.05 -2.12 2.13 -2.03 2.24 -1.92 2.32 -1.82 2.42 -1.7 2.49 -1.59 2.58 -1.47 2.67 -1.36 2.72 -1.22 2.8 -1.1 2.87 -0.97 2.93 -0.82 2.97 -0.68 3.03 -0.54 3.09 -0.39 3.14 -0.24 3.16 -0.07 0 0z"/>
   </g>
   <path class="fil6" d="M1770.49 1225.53c-90.06,-8.9 -121.43,-113.56 -129.05,-146.13l74.63 0c30.06,0 54.42,24.19 54.42,54.01l0 92.11z"/>
   <g>
    <path class="fil2" d="M1641.44 1072.27l0 14.28 7.03 -8.76 0.76 3.16 0.92 3.57 1.05 3.92 1.21 4.23 1.37 4.53 1.54 4.79 1.72 5.03 1.89 5.23 2.07 5.39 2.27 5.53 2.46 5.64 2.67 5.72 2.87 5.75 3.08 5.77 3.3 5.75 3.51 5.71 3.76 5.62 3.97 5.52 4.2 5.37 4.44 5.21 4.67 5.01 4.93 4.78 5.17 4.52 5.43 4.24 5.69 3.93 5.95 3.59 6.23 3.24 6.51 2.85 6.8 2.43 7.12 2.01 7.44 1.54 7.76 1.04 -1.43 14.22 -8.77 -1.18 -8.43 -1.75 -8.1 -2.27 -7.75 -2.77 -7.41 -3.25 -7.07 -3.68 -6.74 -4.05 -6.39 -4.43 -6.08 -4.74 -5.74 -5.04 -5.45 -5.28 -5.15 -5.51 -4.85 -5.69 -4.56 -5.83 -4.29 -5.96 -4.02 -6.04 -3.78 -6.13 -3.51 -6.14 -3.27 -6.14 -3.04 -6.1 -2.82 -6.04 -2.59 -5.95 -2.4 -5.82 -2.17 -5.68 -1.99 -5.48 -1.8 -5.28 -1.62 -5.02 -1.44 -4.76 -1.27 -4.44 -1.11 -4.11 -0.96 -3.74 -0.8 -3.35 7.03 -8.76zm-7.03 8.76l-2.06 -8.76 9.08 0 -7.03 8.76zm81.66 5.52l-74.63 0 0 -14.28 74.63 0 0 0 0 14.28zm61.64 46.87l-14.43 0 0 0 -0.06 -2.43 -0.18 -2.37 -0.31 -2.34 -0.42 -2.33 -0.52 -2.25 -0.64 -2.23 -0.74 -2.18 -0.85 -2.12 -0.94 -2.07 -1.05 -2.02 -1.14 -1.97 -1.22 -1.89 -1.32 -1.84 -1.41 -1.77 -1.48 -1.69 -1.58 -1.64 -1.63 -1.56 -1.71 -1.46 -1.8 -1.41 -1.84 -1.31 -1.9 -1.2 -1.99 -1.14 -2.03 -1.03 -2.09 -0.94 -2.14 -0.83 -2.2 -0.74 -2.23 -0.63 -2.28 -0.53 -2.33 -0.41 -2.36 -0.3 -2.39 -0.18 -2.44 -0.07 0 -14.28 3.16 0.07 3.14 0.24 3.09 0.39 3.04 0.54 2.97 0.68 2.93 0.82 2.87 0.97 2.79 1.1 2.74 1.22 2.66 1.36 2.58 1.46 2.51 1.61 2.42 1.71 2.31 1.81 2.25 1.92 2.13 2.04 2.04 2.1 1.94 2.23 1.83 2.3 1.72 2.4 1.61 2.49 1.48 2.56 1.36 2.63 1.24 2.72 1.1 2.77 0.97 2.85 0.83 2.9 0.69 2.97 0.54 3 0.4 3.05 0.24 3.12 0.08 3.14 0 0zm-14.43 92.11l0 -92.11 14.43 0 0 92.11 -7.93 7.11 -6.5 -7.11zm14.43 0l0 7.9 -7.93 -0.78 7.93 -7.11z"/>
   </g>
   <path class="fil6" d="M1592.33 1079.41c-5.86,29.78 -34.2,141.86 -130.19,146.59l0 -92.58c0,-29.82 24.35,-54.01 54.41,-54.01l75.79 0z"/>
   <g>
    <path class="fil2" d="M1454.92 1226l14.43 0 -7.58 -7.14 8.29 -0.71 7.88 -1.26 7.51 -1.78 7.15 -2.27 6.81 -2.72 6.49 -3.15 6.17 -3.55 5.87 -3.93 5.57 -4.25 5.29 -4.59 5.02 -4.86 4.73 -5.11 4.47 -5.32 4.21 -5.52 3.96 -5.67 3.7 -5.79 3.45 -5.87 3.22 -5.93 2.98 -5.95 2.76 -5.92 2.53 -5.86 2.32 -5.78 2.11 -5.65 1.92 -5.5 1.72 -5.3 1.55 -5.07 1.37 -4.79 1.2 -4.5 1.03 -4.15 0.87 -3.79 0.74 -3.38 0.6 -2.93 14.17 2.73 -0.64 3.13 -0.77 3.56 -0.93 4 -1.09 4.38 -1.26 4.73 -1.42 5.04 -1.62 5.31 -1.82 5.56 -2.02 5.78 -2.23 5.95 -2.46 6.11 -2.69 6.22 -2.93 6.28 -3.17 6.33 -3.45 6.35 -3.72 6.31 -3.99 6.25 -4.3 6.17 -4.59 6.01 -4.91 5.86 -5.25 5.65 -5.57 5.41 -5.94 5.12 -6.28 4.81 -6.65 4.44 -7.03 4.04 -7.41 3.59 -7.78 3.13 -8.18 2.59 -8.56 2.03 -8.95 1.43 -9.32 0.8 -7.58 -7.14zm7.58 7.14l-7.58 0.37 0 -7.51 7.58 7.14zm6.85 -99.72l0 92.58 -14.43 0 0 -92.58 0 0 14.43 0zm47.2 -61.15l0 14.28 0 0 -2.44 0.07 -2.39 0.18 -2.36 0.3 -2.33 0.41 -2.28 0.53 -2.23 0.63 -2.2 0.74 -2.14 0.83 -2.09 0.94 -2.02 1.03 -1.98 1.13 -1.92 1.22 -1.85 1.31 -1.79 1.4 -1.7 1.46 -1.64 1.56 -1.57 1.63 -1.48 1.7 -1.41 1.77 -1.32 1.84 -1.22 1.89 -1.14 1.97 -1.05 2.02 -0.94 2.07 -0.85 2.12 -0.74 2.18 -0.64 2.23 -0.52 2.25 -0.42 2.33 -0.31 2.34 -0.18 2.37 -0.06 2.43 -14.43 0 0.08 -3.14 0.24 -3.12 0.4 -3.05 0.54 -3 0.69 -2.97 0.83 -2.9 0.97 -2.85 1.1 -2.77 1.24 -2.72 1.36 -2.63 1.48 -2.56 1.61 -2.49 1.72 -2.4 1.83 -2.3 1.94 -2.22 2.03 -2.11 2.14 -2.04 2.24 -1.92 2.32 -1.82 2.43 -1.71 2.49 -1.59 2.57 -1.47 2.67 -1.36 2.74 -1.22 2.79 -1.1 2.87 -0.97 2.93 -0.82 2.97 -0.68 3.04 -0.54 3.09 -0.39 3.14 -0.24 3.16 -0.07 0 0zm75.79 14.28l-75.79 0 0 -14.28 75.79 0 7.08 8.51 -7.08 5.77zm0 -14.28l8.76 0 -1.67 8.51 -7.08 -8.51z"/>
   </g>
   <path class="fil7" d="M798.05 1648.91c0,0 -68.7,8.93 -93.97,50.19 -25.29,41.29 3.87,90.54 34.16,97.96 128.52,31.52 307.6,30.72 311.76,28.56 4.14,2.16 191.16,7.6 313.15,-28.56 29.9,-8.85 59.48,-56.67 34.18,-97.96 -25.27,-41.26 -93.95,-50.19 -93.95,-50.19 -6.26,-38.46 -499.14,-22.47 -505.34,0z"/>
   <g>
    <path class="fil2" d="M710.26 1702.82l-12.35 -7.42 0 0.01 2.76 -4.18 3 -3.97 3.22 -3.73 3.4 -3.51 3.58 -3.34 3.73 -3.11 3.84 -2.92 3.95 -2.74 4.02 -2.56 4.07 -2.38 4.12 -2.24 4.14 -2.07 4.13 -1.92 4.1 -1.77 4.06 -1.65 4.01 -1.5 3.9 -1.38 3.82 -1.26 3.69 -1.13 3.55 -1.02 3.37 -0.91 3.2 -0.82 3 -0.72 2.79 -0.62 2.52 -0.53 2.26 -0.45 1.99 -0.36 1.68 -0.3 1.35 -0.22 1 -0.15 0.59 -0.09 0.33 -0.05 1.87 14.17 -0.07 0.01 -0.55 0.09 -0.89 0.13 -1.21 0.2 -1.53 0.26 -1.82 0.34 -2.1 0.41 -2.35 0.49 -2.58 0.58 -2.79 0.66 -2.99 0.76 -3.16 0.85 -3.3 0.97 -3.44 1.05 -3.54 1.17 -3.63 1.28 -3.69 1.39 -3.74 1.5 -3.76 1.63 -3.77 1.75 -3.74 1.86 -3.7 2.01 -3.63 2.13 -3.57 2.27 -3.45 2.38 -3.33 2.54 -3.19 2.67 -3.03 2.8 -2.85 2.95 -2.67 3.08 -2.45 3.22 -2.23 3.37 0 0.01zm29.74 87.3l-3.48 13.88 0.01 0 -3.39 -0.97 -3.33 -1.25 -3.25 -1.48 -3.17 -1.73 -3.1 -1.94 -3.01 -2.16 -2.91 -2.35 -2.8 -2.53 -2.7 -2.71 -2.59 -2.9 -2.45 -3.04 -2.33 -3.19 -2.2 -3.35 -2.03 -3.48 -1.88 -3.59 -1.72 -3.74 -1.53 -3.82 -1.35 -3.93 -1.15 -4.04 -0.94 -4.11 -0.72 -4.19 -0.49 -4.25 -0.25 -4.32 0.02 -4.36 0.28 -4.4 0.56 -4.43 0.85 -4.43 1.15 -4.43 1.45 -4.42 1.79 -4.41 2.11 -4.36 2.44 -4.29 12.35 7.42 -2 3.49 -1.69 3.5 -1.42 3.53 -1.17 3.54 -0.92 3.55 -0.68 3.55 -0.45 3.54 -0.22 3.54 -0.02 3.52 0.19 3.48 0.39 3.45 0.6 3.42 0.76 3.38 0.94 3.3 1.12 3.24 1.26 3.17 1.41 3.07 1.56 2.98 1.68 2.87 1.8 2.75 1.91 2.62 2.01 2.49 2.09 2.34 2.16 2.18 2.23 2.02 2.27 1.84 2.3 1.66 2.33 1.46 2.33 1.27 2.33 1.06 2.31 0.87 2.28 0.65 0.01 0zm313.38 29.17l-6.75 12.64 6.74 0 -3.27 0.96 -2.33 0.23 -3.01 0.18 -3.84 0.14 -4.67 0.11 -5.47 0.07 -6.24 0.04 -6.97 -0.02 -7.66 -0.07 -8.3 -0.13 -8.93 -0.19 -9.49 -0.27 -10.02 -0.33 -10.5 -0.42 -10.95 -0.53 -11.36 -0.6 -11.73 -0.7 -12.06 -0.8 -12.34 -0.93 -12.58 -1.03 -12.79 -1.16 -12.94 -1.29 -13.07 -1.41 -13.15 -1.56 -13.18 -1.7 -13.19 -1.86 -13.13 -2.01 -13.07 -2.18 -12.94 -2.35 -12.77 -2.51 -12.57 -2.71 -12.33 -2.89 3.48 -13.88 12.04 2.83 12.32 2.66 12.54 2.48 12.73 2.31 12.86 2.14 12.96 1.99 13.02 1.83 13.03 1.68 13 1.54 12.93 1.41 12.81 1.27 12.67 1.14 12.46 1.03 12.22 0.91 11.95 0.8 11.63 0.7 11.27 0.6 10.86 0.51 10.41 0.42 9.94 0.33 9.4 0.27 8.83 0.19 8.22 0.13 7.56 0.07 6.85 0.02 6.13 -0.04 5.33 -0.07 4.48 -0.11 3.61 -0.14 2.63 -0.14 1.41 -0.13 -1.47 0.55 6.74 0zm-6.74 0l3.37 -1.76 3.36 1.76 -6.74 0zm314.45 -29.08l4.13 13.69 0.01 0 -11.81 3.33 -12.12 3.07 -12.41 2.85 -12.64 2.62 -12.82 2.4 -12.97 2.2 -13.06 2 -13.12 1.81 -13.12 1.62 -13.09 1.45 -13.02 1.29 -12.89 1.14 -12.72 0.99 -12.51 0.85 -12.24 0.73 -11.96 0.6 -11.6 0.49 -11.21 0.38 -10.76 0.29 -10.29 0.2 -9.75 0.12 -9.19 0.05 -8.56 -0.02 -7.9 -0.07 -7.21 -0.11 -6.44 -0.15 -5.68 -0.18 -4.83 -0.22 -3.98 -0.22 -3.12 -0.25 -2.35 -0.27 -3.21 -0.96 6.75 -12.64 -1.38 -0.54 1.53 0.17 2.73 0.21 3.75 0.22 4.65 0.2 5.52 0.18 6.33 0.15 7.09 0.11 7.81 0.07 8.47 0.02 9.08 -0.05 9.65 -0.12 10.18 -0.2 10.67 -0.29 11.1 -0.38 11.49 -0.49 11.82 -0.58 12.13 -0.73 12.36 -0.83 12.59 -0.99 12.74 -1.12 12.85 -1.27 12.92 -1.43 12.93 -1.61 12.91 -1.79 12.85 -1.96 12.72 -2.16 12.57 -2.34 12.33 -2.56 12.1 -2.77 11.78 -2.99 11.43 -3.21 0.01 0zm30.07 -87.41l12.35 -7.4 -0.01 -0.01 2.45 4.29 2.11 4.35 1.77 4.37 1.46 4.41 1.14 4.41 0.84 4.4 0.55 4.39 0.27 4.37 0 4.32 -0.26 4.27 -0.5 4.22 -0.74 4.16 -0.95 4.07 -1.17 3.99 -1.37 3.9 -1.55 3.79 -1.72 3.68 -1.89 3.58 -2.04 3.43 -2.19 3.33 -2.32 3.18 -2.46 3.03 -2.56 2.89 -2.68 2.72 -2.77 2.55 -2.88 2.39 -2.97 2.2 -3.03 2 -3.12 1.79 -3.18 1.59 -3.25 1.35 -3.3 1.11 -4.13 -13.69 2.3 -0.78 2.33 -0.97 2.34 -1.17 2.37 -1.37 2.34 -1.54 2.32 -1.72 2.28 -1.89 2.24 -2.06 2.18 -2.23 2.1 -2.35 2.02 -2.51 1.92 -2.61 1.81 -2.75 1.69 -2.86 1.57 -2.95 1.41 -3.05 1.28 -3.13 1.12 -3.21 0.96 -3.26 0.77 -3.33 0.6 -3.37 0.4 -3.39 0.2 -3.45 0 -3.46 -0.21 -3.49 -0.44 -3.49 -0.67 -3.52 -0.91 -3.51 -1.16 -3.51 -1.42 -3.51 -1.69 -3.49 -1.99 -3.49 -0.01 -0.01zm-94.89 -52.76l14.24 -2.27 -6.18 -5.95 0.33 0.05 0.59 0.09 1 0.15 1.35 0.22 1.68 0.3 1.98 0.36 2.26 0.45 2.54 0.53 2.77 0.62 3 0.72 3.2 0.82 3.37 0.91 3.55 1.02 3.69 1.13 3.81 1.26 3.91 1.38 4 1.51 4.06 1.64 4.1 1.77 4.13 1.92 4.14 2.07 4.12 2.24 4.07 2.38 4.02 2.56 3.95 2.74 3.84 2.92 3.73 3.11 3.58 3.34 3.4 3.51 3.22 3.73 3 3.97 2.76 4.18 -12.35 7.4 -2.23 -3.37 -2.45 -3.22 -2.67 -3.08 -2.85 -2.95 -3.03 -2.8 -3.19 -2.67 -3.33 -2.54 -3.45 -2.38 -3.57 -2.27 -3.63 -2.13 -3.7 -2.01 -3.74 -1.86 -3.77 -1.75 -3.76 -1.63 -3.74 -1.51 -3.68 -1.38 -3.64 -1.28 -3.53 -1.17 -3.44 -1.05 -3.3 -0.97 -3.16 -0.85 -2.99 -0.76 -2.79 -0.66 -2.58 -0.58 -2.33 -0.49 -2.12 -0.41 -1.81 -0.34 -1.53 -0.26 -1.21 -0.2 -0.89 -0.13 -0.55 -0.09 -0.07 -0.01 -6.18 -5.95zm6.18 5.95l-5.33 -0.69 -0.85 -5.26 6.18 5.95zm-503.47 0l-1.87 -14.17 -6.02 5.2 5.09 -6.25 6.15 -2.75 7.83 -2.17 9.84 -2.01 11.85 -1.88 13.74 -1.79 15.47 -1.69 17.06 -1.59 18.46 -1.46 19.69 -1.36 20.76 -1.22 21.65 -1.1 22.36 -0.95 22.87 -0.79 23.25 -0.63 23.43 -0.47 23.42 -0.28 23.25 -0.1 22.9 0.1 22.37 0.31 21.67 0.52 20.78 0.74 19.74 0.98 18.51 1.22 17.12 1.47 15.55 1.74 13.86 2.03 12.01 2.34 10.09 2.71 8.18 3.26 6.49 4.45 4 7.36 -14.24 2.27 0.04 0.46 -2.84 -1.82 -6.12 -2.42 -8.83 -2.37 -11.2 -2.17 -13.29 -1.95 -15.13 -1.68 -16.79 -1.45 -18.25 -1.2 -19.51 -0.97 -20.61 -0.74 -21.5 -0.52 -22.23 -0.31 -22.77 -0.1 -23.13 0.1 -23.3 0.28 -23.31 0.47 -23.13 0.63 -22.78 0.79 -22.24 0.95 -21.52 1.08 -20.63 1.22 -19.56 1.34 -18.28 1.46 -16.85 1.57 -15.21 1.65 -13.39 1.75 -11.36 1.81 -9.08 1.84 -6.45 1.79 -3.16 1.34 1.14 -2.08 -6.02 5.2zm6.02 -5.2l-1.26 4.58 -4.76 0.62 6.02 -5.2z"/>
   </g>
   <g>
    <polygon class="fil2" points="1307.36,1640.79 1305.56,1654.97 1277.65,1651.67 1250.33,1648.79 1223.56,1646.3 1197.41,1644.19 1171.89,1642.45 1147.01,1641.03 1122.81,1639.94 1099.29,1639.13 1076.48,1638.61 1054.4,1638.33 1033.09,1638.29 1012.54,1638.46 992.8,1638.84 973.86,1639.37 955.77,1640.06 938.55,1640.87 922.19,1641.81 906.75,1642.83 892.23,1643.91 878.66,1645.05 866.04,1646.21 854.43,1647.37 843.81,1648.53 834.23,1649.65 825.71,1650.71 818.26,1651.69 811.91,1652.59 806.66,1653.37 802.55,1654 799.61,1654.47 797.84,1654.78 797.3,1654.87 794.72,1640.82 795.39,1640.69 797.24,1640.39 800.28,1639.89 804.48,1639.24 809.83,1638.45 816.29,1637.55 823.86,1636.54 832.49,1635.46 842.18,1634.33 852.92,1633.17 864.64,1631.98 877.37,1630.81 891.08,1629.67 905.73,1628.57 921.29,1627.55 937.78,1626.61 955.16,1625.78 973.39,1625.09 992.46,1624.56 1012.35,1624.18 1033.05,1624.01 1054.52,1624.05 1076.75,1624.33 1099.71,1624.85 1123.38,1625.66 1147.76,1626.77 1172.81,1628.19 1198.5,1629.95 1224.82,1632.06 1251.76,1634.57 1279.28,1637.47 "/>
   </g>
   <path class="fil0" d="M1567.92 283.87l-0.17 -203.47 244.5 -14.35 10.17 321.65c-132.64,-88.04 -136.27,-49.08 -254.5,-103.84z"/>
   <g>
    <path class="fil2" d="M1586.13 80.38l0.17 203.46 -36.78 0.04 -0.17 -203.46 17.3 -18.2 19.48 18.16zm-36.78 0.04l-0.02 -17.19 17.32 -1.01 -17.3 18.2zm263.99 3.81l-244.51 14.35 -2.18 -36.36 244.51 -14.35 19.48 17.61 -17.3 18.75zm-2.18 -36.36l18.89 -1.11 0.59 18.71 -19.48 -17.61zm-7.13 340.41l-10.17 -321.65 36.78 -1.15 10.17 321.65 -28.64 15.69 -8.14 -14.55zm36.78 -1.15l1.12 35.44 -29.75 -19.75 28.64 -15.69zm-291.29 -103.26l36.78 -0.04 -10.59 -16.48 10.45 4.73 9.81 4.22 9.21 3.75 8.66 3.33 8.15 2.95 7.7 2.6 7.33 2.31 6.97 2.06 6.69 1.84 6.49 1.68 6.28 1.55 6.2 1.46 6.13 1.42 6.11 1.41 6.16 1.44 6.25 1.54 6.36 1.64 6.5 1.81 6.7 2.02 6.9 2.25 7.14 2.53 7.42 2.85 7.7 3.19 8.06 3.57 8.43 4.01 8.85 4.46 9.3 4.96 9.82 5.51 10.35 6.06 10.96 6.69 11.59 7.34 12.28 8.03 -20.49 30.24 -11.84 -7.74 -11.12 -7.03 -10.41 -6.35 -9.78 -5.73 -9.17 -5.14 -8.59 -4.58 -8.09 -4.08 -7.61 -3.61 -7.2 -3.19 -6.82 -2.83 -6.52 -2.5 -6.24 -2.21 -6.04 -1.98 -5.9 -1.77 -5.83 -1.62 -5.8 -1.51 -5.83 -1.42 -5.91 -1.39 -6.07 -1.41 -6.22 -1.44 -6.43 -1.52 -6.7 -1.64 -6.97 -1.82 -7.28 -2 -7.64 -2.27 -8 -2.52 -8.43 -2.85 -8.88 -3.2 -9.35 -3.59 -9.88 -4.03 -10.46 -4.49 -11.06 -5 -10.59 -16.48zm10.59 16.48l-10.58 -4.9 -0.01 -11.57 10.59 16.48z"/>
   </g>
   <g>
    <path class="fil2" d="M1973.77 1167.49l-28.41 23.13 -0.01 0 -14.26 -17.77 -13.3 -17.79 -12.39 -17.76 -11.48 -17.71 -10.62 -17.62 -9.79 -17.51 -8.98 -17.37 -8.23 -17.2 -7.48 -16.99 -6.77 -16.76 -6.11 -16.5 -5.47 -16.2 -4.86 -15.89 -4.28 -15.54 -3.74 -15.15 -3.24 -14.75 -2.75 -14.32 -2.31 -13.84 -1.9 -13.36 -1.52 -12.83 -1.19 -12.29 -0.86 -11.71 -0.58 -11.11 -0.33 -10.47 -0.11 -9.8 0.06 -9.13 0.22 -8.39 0.32 -7.65 0.41 -6.88 0.47 -6.09 0.5 -5.25 0.48 -4.42 36.55 4.21 -0.42 3.82 -0.44 4.69 -0.43 5.48 -0.37 6.27 -0.31 7.03 -0.2 7.74 -0.06 8.44 0.11 9.11 0.32 9.74 0.54 10.36 0.8 10.93 1.11 11.49 1.42 12.02 1.77 12.5 2.18 12.98 2.58 13.42 3.03 13.83 3.51 14.23 4.01 14.59 4.57 14.91 5.12 15.21 5.74 15.5 6.37 15.74 7.03 15.96 7.73 16.18 8.45 16.33 9.21 16.48 10.01 16.6 10.83 16.7 11.68 16.77 12.57 16.79 13.5 16.81 -0.01 0zm-547.45 647.57l-7.32 -35.69 7.35 0.01 39.67 6.8 39.22 4.3 38.67 1.87 38.04 -0.46 37.28 -2.7 36.41 -4.87 35.43 -6.91 34.34 -8.9 33.14 -10.81 31.84 -12.59 30.4 -14.31 28.88 -15.91 27.22 -17.44 25.47 -18.88 23.61 -20.22 21.64 -21.45 19.58 -22.61 17.4 -23.66 15.15 -24.61 12.78 -25.49 10.32 -26.29 7.79 -26.99 5.17 -27.66 2.44 -28.24 -0.4 -28.79 -3.34 -29.28 -6.4 -29.73 -9.6 -30.09 -12.93 -30.42 -16.4 -30.66 -20.02 -30.84 -23.77 -30.93 28.41 -23.13 25.47 33.15 21.65 33.33 17.89 33.45 14.23 33.46 10.63 33.38 7.15 33.17 3.76 32.83 0.44 32.38 -2.74 31.82 -5.8 31.12 -8.75 30.3 -11.55 29.38 -14.21 28.36 -16.76 27.25 -19.15 26.03 -21.43 24.75 -23.57 23.38 -25.62 21.92 -27.5 20.39 -29.31 18.78 -30.98 17.08 -32.53 15.3 -33.98 13.45 -35.32 11.5 -36.52 9.47 -37.65 7.35 -38.62 5.15 -39.51 2.87 -40.28 0.48 -40.93 -1.99 -41.45 -4.55 -41.86 -7.18 7.35 0.01zm-7.32 -35.69l3.67 -0.74 3.68 0.75 -7.35 -0.01zm-364.34 71.32l0 -36.42 0 0 17.82 -0.11 17.67 -0.29 17.54 -0.47 17.36 -0.65 17.14 -0.78 16.91 -0.94 16.64 -1.05 16.33 -1.19 16.01 -1.27 15.66 -1.37 15.26 -1.44 14.86 -1.52 14.41 -1.55 13.94 -1.61 13.43 -1.62 12.9 -1.63 12.34 -1.64 11.76 -1.62 11.14 -1.61 10.49 -1.55 9.82 -1.52 9.1 -1.44 8.37 -1.37 7.61 -1.27 6.81 -1.18 5.98 -1.05 5.13 -0.94 4.26 -0.77 3.32 -0.64 2.48 -0.47 1.46 -0.29 0.39 -0.08 7.32 35.69 -0.62 0.13 -1.56 0.29 -2.48 0.49 -3.51 0.66 -4.4 0.81 -5.29 0.96 -6.14 1.07 -6.97 1.21 -7.76 1.29 -8.53 1.41 -9.27 1.46 -9.99 1.54 -10.68 1.59 -11.33 1.62 -11.95 1.65 -12.55 1.66 -13.11 1.67 -13.66 1.64 -14.17 1.62 -14.64 1.59 -15.11 1.54 -15.53 1.46 -15.92 1.41 -16.3 1.29 -16.64 1.2 -16.95 1.07 -17.23 0.96 -17.48 0.8 -17.7 0.65 -17.92 0.49 -18.07 0.29 -18.22 0.11 0 0zm-365.5 -35.64l-7.38 -35.67 7.33 -0.01 0.4 0.08 1.46 0.28 2.49 0.48 3.35 0.63 4.28 0.78 5.16 0.94 6.03 1.04 6.84 1.19 7.64 1.27 8.41 1.37 9.16 1.44 9.85 1.51 10.52 1.56 11.2 1.61 11.8 1.62 12.39 1.64 12.96 1.63 13.48 1.62 13.99 1.61 14.47 1.55 14.9 1.52 15.33 1.44 15.69 1.37 16.07 1.27 16.37 1.19 16.68 1.05 16.95 0.94 17.18 0.78 17.39 0.65 17.56 0.47 17.71 0.29 17.83 0.11 0 36.42 -18.23 -0.11 -18.11 -0.29 -17.94 -0.49 -17.73 -0.65 -17.52 -0.8 -17.27 -0.96 -16.98 -1.07 -16.68 -1.2 -16.33 -1.29 -15.98 -1.41 -15.58 -1.46 -15.15 -1.54 -14.7 -1.59 -14.22 -1.62 -13.71 -1.64 -13.17 -1.67 -12.6 -1.66 -12 -1.65 -11.37 -1.62 -10.71 -1.58 -10.05 -1.55 -9.31 -1.46 -8.56 -1.41 -7.81 -1.29 -7 -1.2 -6.17 -1.08 -5.31 -0.96 -4.42 -0.8 -3.52 -0.67 -2.5 -0.48 -1.56 -0.3 -0.63 -0.13 7.33 -0.01zm-7.38 -35.67l3.66 -0.75 3.67 0.74 -7.33 0.01zm-555.36 -611.89l28.43 23.13 0 0 -23.75 30.92 -19.94 30.82 -16.29 30.64 -12.78 30.4 -9.42 30.07 -6.19 29.7 -3.1 29.25 -0.14 28.77 2.7 28.24 5.45 27.65 8.1 26.99 10.66 26.29 13.13 25.5 15.48 24.63 17.76 23.67 19.95 22.62 22.01 21.47 23.98 20.23 25.84 18.9 27.59 17.46 29.22 15.92 30.75 14.32 32.15 12.61 33.43 10.8 34.63 8.91 35.68 6.92 36.63 4.87 37.46 2.7 38.18 0.46 38.8 -1.87 39.27 -4.3 39.69 -6.8 7.38 35.67 -41.88 7.18 -41.53 4.55 -41.03 1.99 -40.42 -0.48 -39.68 -2.87 -38.84 -5.15 -37.86 -7.34 -36.79 -9.46 -35.59 -11.51 -34.28 -13.43 -32.85 -15.29 -31.3 -17.07 -29.64 -18.76 -27.86 -20.37 -25.97 -21.91 -23.94 -23.36 -21.8 -24.73 -19.52 -26.02 -17.13 -27.23 -14.59 -28.35 -11.9 -29.37 -9.09 -30.3 -6.14 -31.13 -3.05 -31.82 0.16 -32.4 3.5 -32.86 6.92 -33.2 10.46 -33.4 14.08 -33.48 17.8 -33.47 21.58 -33.36 25.45 -33.16 0 0zm131.91 -398.67l36.55 -4.21 0.48 4.42 0.5 5.25 0.47 6.07 0.42 6.89 0.32 7.66 0.22 8.39 0.06 9.13 -0.11 9.79 -0.32 10.48 -0.58 11.11 -0.86 11.7 -1.18 12.29 -1.52 12.84 -1.9 13.35 -2.3 13.85 -2.75 14.32 -3.24 14.75 -3.74 15.15 -4.27 15.54 -4.86 15.89 -5.47 16.2 -6.1 16.5 -6.79 16.76 -7.47 16.98 -8.22 17.2 -8.98 17.37 -9.79 17.51 -10.62 17.62 -11.48 17.71 -12.39 17.76 -13.3 17.79 -14.26 17.77 -28.43 -23.13 13.5 -16.81 12.57 -16.79 11.68 -16.77 10.83 -16.7 10.01 -16.6 9.21 -16.48 8.45 -16.33 7.72 -16.17 7.03 -15.97 6.37 -15.74 5.73 -15.5 5.12 -15.21 4.55 -14.91 4.02 -14.59 3.51 -14.23 3.03 -13.83 2.58 -13.42 2.17 -12.97 1.77 -12.51 1.42 -12.01 1.1 -11.49 0.8 -10.93 0.54 -10.36 0.31 -9.73 0.11 -9.12 -0.06 -8.44 -0.2 -7.74 -0.31 -7.03 -0.38 -6.26 -0.43 -5.5 -0.44 -4.69 -0.42 -3.82z"/>
   </g>
   <path class="fil7" d="M1048.2 18.21c-20.66,0 -63.46,13.46 -63.46,13.46 0,0 -590.23,203.58 -915.65,526.47 -91.82,91.08 -52.05,208.59 63.86,208.59 90.38,0 915.3,0 915.3,0 0,0 824.8,0 915.2,0 114.99,0 155.73,-117.41 63.86,-208.59 -325.36,-322.88 -915.64,-526.47 -915.64,-526.47 0,0 -42.78,-13.46 -63.48,-13.46z"/>
   <g>
    <path class="fil2" d="M990.79 48.86l-12.1 -34.39 0.48 -0.16 0.14 -0.04 0.37 -0.12 0.77 -0.24 0.83 -0.24 0.96 -0.3 1.25 -0.37 1.45 -0.44 1.65 -0.48 1.72 -0.5 1.87 -0.54 2.11 -0.59 2.18 -0.59 2.23 -0.6 2.4 -0.65 2.5 -0.66 2.54 -0.65 2.64 -0.66 2.67 -0.64 2.75 -0.66 2.78 -0.63 2.77 -0.61 2.8 -0.58 2.83 -0.57 2.87 -0.54 2.79 -0.49 2.77 -0.45 2.82 -0.42 2.76 -0.33 2.7 -0.3 2.71 -0.22 2.7 -0.14 2.69 -0.05 0 36.42 -1.31 0.03 -1.55 0.09 -1.74 0.14 -1.93 0.2 -2.04 0.26 -2.13 0.31 -2.27 0.37 -2.37 0.41 -2.35 0.44 -2.43 0.5 -2.49 0.53 -2.5 0.55 -2.48 0.55 -2.47 0.58 -2.46 0.6 -2.41 0.6 -2.37 0.61 -2.27 0.58 -2.19 0.59 -2.19 0.6 -2.03 0.55 -1.83 0.52 -1.82 0.53 -1.7 0.48 -1.42 0.42 -1.3 0.38 -1.16 0.35 -1.05 0.32 -0.79 0.24 -0.39 0.12 -0.35 0.11 -0.11 0.04 0.48 -0.16zm-12.1 -34.39l0.48 -0.16 -0.08 0.03 -0.4 0.13zm-896.58 556.53l-26.04 -25.73 0 0 31.71 -30.36 33.09 -29.6 34.31 -28.83 35.37 -28.04 36.26 -27.24 37.01 -26.43 37.6 -25.63 38.04 -24.79 38.33 -23.95 38.44 -23.09 38.42 -22.22 38.22 -21.34 37.89 -20.44 37.39 -19.54 36.74 -18.62 35.94 -17.67 34.97 -16.72 33.85 -15.75 32.58 -14.78 31.14 -13.76 29.55 -12.77 27.81 -11.73 25.91 -10.69 23.87 -9.63 21.65 -8.56 19.28 -7.46 16.75 -6.38 14.08 -5.25 11.24 -4.11 8.24 -2.97 5.1 -1.8 1.81 -0.63 12.1 34.39 -1.6 0.55 -4.91 1.74 -8.05 2.9 -11.05 4.05 -13.87 5.17 -16.54 6.28 -19.05 7.39 -21.42 8.47 -23.6 9.52 -25.64 10.59 -27.55 11.61 -29.27 12.64 -30.83 13.63 -32.26 14.62 -33.5 15.6 -34.61 16.55 -35.56 17.48 -36.34 18.41 -36.97 19.33 -37.45 20.2 -37.75 21.08 -37.91 21.94 -37.91 22.77 -37.75 23.59 -37.43 24.39 -36.95 25.19 -36.32 25.95 -35.54 26.69 -34.58 27.41 -33.47 28.12 -32.21 28.82 -30.8 29.48 0 0zm50.84 177.51l0 36.42 0 0 -11.83 -0.38 -11.43 -1.12 -11.01 -1.85 -10.55 -2.57 -10.08 -3.25 -9.59 -3.94 -9.07 -4.58 -8.52 -5.21 -7.94 -5.79 -7.33 -6.37 -6.7 -6.88 -6.05 -7.38 -5.37 -7.82 -4.67 -8.23 -3.98 -8.6 -3.24 -8.92 -2.5 -9.19 -1.79 -9.44 -1.01 -9.64 -0.28 -9.8 0.47 -9.93 1.23 -10.04 2.01 -10.08 2.74 -10.11 3.52 -10.1 4.27 -10.09 5.05 -10.04 5.81 -9.93 6.58 -9.83 7.36 -9.69 8.13 -9.53 8.91 -9.33 26.04 25.73 -7.53 7.9 -6.8 7.94 -6.06 8.01 -5.37 8.01 -4.68 8 -4 7.93 -3.34 7.9 -2.71 7.81 -2.09 7.68 -1.49 7.56 -0.91 7.38 -0.35 7.22 0.2 7.04 0.73 6.8 1.23 6.6 1.74 6.36 2.21 6.09 2.7 5.83 3.16 5.55 3.61 5.28 4.08 4.97 4.54 4.66 5 4.34 5.48 4 5.95 3.64 6.43 3.26 6.93 2.83 7.43 2.41 7.93 1.92 8.43 1.43 8.95 0.87 9.44 0.31 0 0zm915.3 0l0 36.42 0 0 -2.37 0 -6.92 0 -11.17 0 -15.16 0 -18.85 0 -22.25 0 -25.38 0 -28.21 0 -30.76 0 -33.02 0 -34.99 0 -36.69 0 -38.1 0 -39.22 0 -40.06 0 -40.61 0 -40.87 0 -40.84 0 -40.55 0 -39.95 0 -39.07 0 -37.92 0 -36.46 0 -34.72 0 -32.71 0 -30.4 0 -27.81 0 -24.94 0 -21.78 0 -18.32 0 -14.6 0 -10.58 0 0 -36.42 10.58 0 14.6 0 18.32 0 21.78 0 24.94 0 27.81 0 30.4 0 32.71 0 34.72 0 36.46 0 37.92 0 39.07 0 39.95 0 40.55 0 40.84 0 40.87 0 40.61 0 40.06 0 39.22 0 38.1 0 36.69 0 34.99 0 33.02 0 30.76 0 28.21 0 25.38 0 22.25 0 18.85 0 15.16 0 11.17 0 6.92 0 2.37 0 0 0zm915.21 0l0 36.42 0 0 -10.58 0 -14.6 0 -18.33 0 -21.77 0 -24.94 0 -27.81 0 -30.4 0 -32.71 0 -34.72 0 -36.46 0 -37.91 0 -39.07 0 -39.94 0 -40.54 0 -40.85 0 -40.86 0 -40.6 0 -40.05 0 -39.22 0 -38.1 0 -36.68 0 -34.99 0 -33.01 0 -30.76 0 -28.21 0 -25.37 0 -22.25 0 -18.85 0 -15.15 0 -11.18 0 -6.91 0 -2.37 0 0 -36.42 2.37 0 6.91 0 11.18 0 15.15 0 18.85 0 22.25 0 25.37 0 28.21 0 30.76 0 33.01 0 34.99 0 36.68 0 38.1 0 39.22 0 40.05 0 40.6 0 40.86 0 40.85 0 40.54 0 39.94 0 39.07 0 37.91 0 36.46 0 34.72 0 32.71 0 30.4 0 27.81 0 24.94 0 21.77 0 18.33 0 14.6 0 10.58 0 0 0zm50.84 -177.51l26.04 -25.73 0.01 0 8.92 9.35 8.12 9.54 7.34 9.7 6.59 9.84 5.79 9.96 5.02 10.03 4.26 10.1 3.48 10.12 2.72 10.12 1.96 10.08 1.19 10.03 0.45 9.93 -0.31 9.81 -1.05 9.64 -1.82 9.43 -2.53 9.18 -3.27 8.91 -3.99 8.59 -4.69 8.22 -5.37 7.8 -6.06 7.37 -6.69 6.87 -7.32 6.35 -7.91 5.8 -8.51 5.21 -9.03 4.56 -9.54 3.94 -10.06 3.27 -10.49 2.55 -10.95 1.86 -11.36 1.12 -11.77 0.38 0 -36.42 9.36 -0.31 8.86 -0.87 8.37 -1.42 7.88 -1.92 7.37 -2.39 6.9 -2.85 6.43 -3.26 5.93 -3.62 5.47 -4 5.01 -4.34 4.55 -4.67 4.09 -4.98 3.63 -5.28 3.18 -5.56 2.7 -5.82 2.24 -6.1 1.75 -6.37 1.26 -6.59 0.75 -6.81 0.23 -7.02 -0.33 -7.22 -0.89 -7.41 -1.46 -7.54 -2.07 -7.69 -2.68 -7.79 -3.33 -7.89 -3.99 -7.96 -4.65 -7.99 -5.34 -8 -6.06 -8 -6.79 -7.95 -7.54 -7.9 0.01 0zm-908.2 -521.97l11.14 -34.72 0.48 0.16 1.81 0.63 5.09 1.8 8.26 2.97 11.23 4.11 14.07 5.25 16.77 6.38 19.28 7.46 21.65 8.56 23.86 9.63 25.91 10.69 27.82 11.73 29.55 12.77 31.15 13.77 32.57 14.77 33.86 15.75 34.97 16.73 35.94 17.67 36.74 18.61 37.39 19.54 37.89 20.45 38.23 21.34 38.41 22.22 38.44 23.09 38.33 23.95 38.04 24.78 37.6 25.63 37.01 26.44 36.25 27.24 35.37 28.04 34.3 28.83 33.09 29.59 31.71 30.36 -26.04 25.73 -30.8 -29.48 -32.21 -28.81 -33.46 -28.12 -34.58 -27.41 -35.53 -26.71 -36.32 -25.94 -36.95 -25.17 -37.43 -24.4 -37.75 -23.59 -37.91 -22.77 -37.9 -21.94 -37.75 -21.08 -37.45 -20.21 -36.97 -19.31 -36.34 -18.42 -35.56 -17.48 -34.61 -16.55 -33.51 -15.6 -32.25 -14.61 -30.84 -13.64 -29.27 -12.64 -27.54 -11.61 -25.66 -10.59 -23.61 -9.52 -21.4 -8.47 -19.05 -7.39 -16.54 -6.28 -13.88 -5.17 -11.04 -4.05 -8.05 -2.9 -4.92 -1.74 -1.6 -0.55 0.48 0.16zm11.14 -34.72l0.48 0.16 -0.4 -0.13 -0.08 -0.03zm-69.04 22.11l0 -36.42 0 0 2.7 0.05 2.69 0.14 2.71 0.22 2.7 0.3 2.76 0.33 2.82 0.42 2.77 0.45 2.79 0.49 2.87 0.54 2.83 0.57 2.8 0.58 2.77 0.61 2.78 0.63 2.75 0.66 2.67 0.64 2.64 0.66 2.54 0.65 2.5 0.66 2.4 0.65 2.24 0.6 2.16 0.59 2.1 0.59 1.9 0.55 1.7 0.49 1.64 0.48 1.49 0.44 1.25 0.38 0.93 0.29 0.83 0.24 0.77 0.24 0.37 0.12 0.14 0.04 -11.14 34.72 -0.11 -0.04 -0.35 -0.11 -0.39 -0.12 -0.79 -0.24 -1.08 -0.32 -1.14 -0.34 -1.26 -0.38 -1.45 -0.42 -1.7 -0.49 -1.79 -0.52 -1.85 -0.52 -2.03 -0.55 -2.18 -0.6 -2.19 -0.59 -2.27 -0.58 -2.37 -0.61 -2.41 -0.6 -2.46 -0.6 -2.47 -0.58 -2.48 -0.55 -2.5 -0.55 -2.49 -0.53 -2.43 -0.5 -2.35 -0.44 -2.37 -0.41 -2.27 -0.37 -2.13 -0.31 -2.04 -0.26 -1.94 -0.2 -1.74 -0.14 -1.54 -0.09 -1.32 -0.03 0 0z"/>
   </g>
   <path class="fil5" d="M1153.8 932.85c50.09,26.94 94.84,66.89 123.88,108.78 43.17,62.33 130.28,218.8 87.65,419.65 0,0 53.31,52.31 150.19,148.41 56.1,55.67 -32.67,142.06 -72.84,196.57l-107.61 0c0,0 39.09,-50.57 13.31,-97.7 -18.08,-33.14 -81.73,-43.68 -81.73,-43.68 0,0 29.92,-67.05 -18.54,-83.14 0,0 93.12,-241.66 -10,-461.38 -33.01,-70.38 -85.3,-137.03 -168.43,-149.65 -19.93,-1.63 -40.1,0.89 -60.71,8.05 -74.22,25.83 -111.91,79.1 -145.92,150.98 -101.21,213.84 -3.03,452.01 -3.03,452.01 -48.44,16.09 -18.54,83.14 -18.54,83.14 0,0 -63.63,10.54 -81.76,43.68 -25.74,47.13 13.34,97.7 13.34,97.7l-107.63 0c-27.09,-36.76 -114.52,-139.9 -86.04,-205.33 35.18,-63.28 163.41,-139.65 163.41,-139.65 -39.16,-184.45 31.12,-331.48 76.31,-402.51 34.79,-54.7 95.72,-105.41 161.6,-133.69 67.23,-28.83 108.18,-27.12 173.09,7.77z"/>
   <g>
    <path class="fil2" d="M1283.64 1037.59l-11.91 8.09 0.01 0 -2.7 -3.81 -2.79 -3.82 -2.88 -3.79 -2.95 -3.79 -3.06 -3.77 -3.12 -3.76 -3.22 -3.73 -3.28 -3.7 -3.37 -3.68 -3.43 -3.65 -3.52 -3.61 -3.58 -3.6 -3.64 -3.55 -3.73 -3.52 -3.79 -3.49 -3.84 -3.44 -3.91 -3.39 -3.96 -3.35 -4.02 -3.3 -4.08 -3.26 -4.14 -3.21 -4.18 -3.15 -4.22 -3.1 -4.28 -3.04 -4.32 -2.98 -4.37 -2.92 -4.41 -2.86 -4.45 -2.79 -4.49 -2.72 -4.51 -2.67 -4.54 -2.58 -4.6 -2.5 6.9 -12.56 4.77 2.62 4.75 2.7 4.7 2.76 4.66 2.84 4.63 2.91 4.58 2.97 4.54 3.04 4.49 3.1 4.43 3.15 4.4 3.21 4.35 3.29 4.29 3.33 4.23 3.37 4.18 3.43 4.13 3.49 4.04 3.53 4 3.57 3.94 3.62 3.86 3.65 3.79 3.7 3.74 3.74 3.65 3.77 3.58 3.8 3.51 3.83 3.43 3.87 3.35 3.9 3.27 3.91 3.19 3.94 3.11 3.98 3.01 3.99 2.92 4 2.84 4.02 0.01 0zm86.79 418.61l-10.17 10.15 -1.98 -6.55 3.57 -18.45 2.85 -18.18 2.17 -17.9 1.51 -17.63 0.88 -17.33 0.31 -17.02 -0.28 -16.71 -0.79 -16.39 -1.3 -16.07 -1.76 -15.73 -2.21 -15.38 -2.6 -15.04 -2.98 -14.68 -3.32 -14.3 -3.64 -13.91 -3.92 -13.52 -4.17 -13.14 -4.38 -12.72 -4.56 -12.29 -4.72 -11.88 -4.85 -11.44 -4.93 -11 -4.99 -10.54 -5.03 -10.07 -5.02 -9.6 -4.99 -9.13 -4.91 -8.63 -4.83 -8.12 -4.68 -7.63 -4.54 -7.09 -4.34 -6.58 -4.11 -6.02 11.91 -8.09 4.22 6.21 4.45 6.75 4.65 7.28 4.82 7.82 4.94 8.33 5.05 8.86 5.1 9.34 5.15 9.84 5.14 10.32 5.12 10.81 5.05 11.27 4.96 11.73 4.86 12.17 4.67 12.62 4.49 13.05 4.26 13.47 4.01 13.87 3.74 14.29 3.41 14.68 3.06 15.06 2.68 15.44 2.27 15.8 1.82 16.17 1.32 16.51 0.83 16.85 0.28 17.19 -0.31 17.5 -0.92 17.81 -1.55 18.1 -2.23 18.4 -2.92 18.68 -3.67 18.94 -1.98 -6.55zm-10.17 10.15l-2.79 -2.73 0.81 -3.81 1.98 6.55zm160.37 138.3l-10.21 10.09 0 0 -8.96 -8.88 -8.7 -8.62 -8.43 -8.36 -8.18 -8.11 -7.91 -7.84 -7.65 -7.56 -7.39 -7.31 -7.12 -7.04 -6.84 -6.77 -6.57 -6.51 -6.31 -6.22 -6.02 -5.95 -5.75 -5.69 -5.48 -5.4 -5.19 -5.12 -4.91 -4.85 -4.63 -4.57 -4.34 -4.27 -4.05 -4 -3.77 -3.71 -3.47 -3.42 -3.17 -3.14 -2.89 -2.84 -2.59 -2.55 -2.29 -2.25 -2 -1.96 -1.68 -1.65 -1.39 -1.37 -1.09 -1.07 -0.77 -0.76 -0.47 -0.46 -0.15 -0.14 10.17 -10.15 0.15 0.16 0.47 0.46 0.77 0.76 1.07 1.05 1.41 1.37 1.68 1.65 2 1.96 2.29 2.27 2.59 2.55 2.89 2.84 3.19 3.14 3.47 3.42 3.77 3.71 4.05 4 4.34 4.29 4.63 4.57 4.91 4.85 5.19 5.12 5.48 5.4 5.75 5.69 6.02 5.95 6.31 6.22 6.59 6.51 6.84 6.77 7.12 7.04 7.39 7.31 7.65 7.58 7.91 7.84 8.18 8.11 8.43 8.36 8.7 8.62 8.96 8.88 0 0zm-77.94 208.76l0 -14.28 -5.83 2.92 3.97 -5.29 4.21 -5.45 4.4 -5.59 4.57 -5.71 4.69 -5.85 4.8 -5.96 4.85 -6.06 4.87 -6.16 4.87 -6.23 4.83 -6.31 4.74 -6.36 4.64 -6.4 4.46 -6.43 4.29 -6.46 4.08 -6.46 3.81 -6.43 3.52 -6.42 3.2 -6.37 2.83 -6.31 2.45 -6.23 2.04 -6.15 1.58 -6.01 1.11 -5.89 0.6 -5.74 0.11 -5.58 -0.44 -5.43 -0.98 -5.3 -1.56 -5.14 -2.19 -5.04 -2.84 -4.93 -3.57 -4.86 -4.35 -4.77 10.21 -10.09 5.32 5.84 4.49 6.1 3.66 6.33 2.82 6.53 2.04 6.67 1.27 6.79 0.55 6.86 -0.12 6.9 -0.74 6.93 -1.3 6.94 -1.83 6.93 -2.28 6.93 -2.71 6.9 -3.1 6.9 -3.45 6.88 -3.77 6.84 -4.02 6.81 -4.27 6.77 -4.46 6.73 -4.64 6.66 -4.77 6.6 -4.86 6.53 -4.92 6.42 -4.94 6.33 -4.93 6.23 -4.88 6.1 -4.8 5.96 -4.67 5.83 -4.53 5.67 -4.32 5.5 -4.11 5.31 -3.83 5.11 -5.83 2.92zm5.83 -2.92l-2.15 2.92 -3.68 0 5.83 -2.92zm-113.45 -11.36l107.62 0 0 14.28 -107.62 0 -5.73 -11.48 5.73 -2.8zm0 14.28l-14.6 0 8.87 -11.48 5.73 11.48zm6.97 -101.45l12.69 -6.79 0 -0.01 2.44 4.86 2.06 4.87 1.68 4.9 1.32 4.87 0.99 4.84 0.68 4.81 0.37 4.75 0.11 4.67 -0.13 4.6 -0.36 4.52 -0.56 4.41 -0.76 4.29 -0.9 4.18 -1.05 4.04 -1.16 3.91 -1.26 3.77 -1.34 3.61 -1.4 3.45 -1.43 3.27 -1.45 3.1 -1.45 2.91 -1.42 2.7 -1.39 2.49 -1.34 2.29 -1.24 2.05 -1.15 1.83 -1.05 1.59 -0.89 1.31 -0.74 1.06 -0.56 0.76 -0.34 0.49 -0.21 0.27 -11.47 -8.68 0.02 -0.02 0.29 -0.39 0.47 -0.65 0.62 -0.89 0.79 -1.16 0.9 -1.38 1.01 -1.6 1.13 -1.85 1.19 -2.03 1.23 -2.25 1.29 -2.43 1.3 -2.6 1.3 -2.77 1.28 -2.92 1.24 -3.07 1.19 -3.19 1.11 -3.33 1.02 -3.43 0.92 -3.53 0.78 -3.62 0.64 -3.7 0.49 -3.76 0.31 -3.81 0.11 -3.87 -0.1 -3.91 -0.32 -3.93 -0.54 -3.95 -0.82 -3.98 -1.07 -3.99 -1.38 -3.99 -1.68 -4 -2.02 -4 0 -0.01zm-81.98 -49.96l13.21 5.77 -5.41 -9.93 0.23 0.04 0.61 0.11 0.92 0.17 1.26 0.25 1.53 0.32 1.81 0.38 2.07 0.47 2.3 0.54 2.53 0.62 2.72 0.71 2.91 0.79 3.07 0.89 3.21 0.97 3.32 1.07 3.43 1.18 3.51 1.27 3.56 1.37 3.63 1.48 3.63 1.6 3.64 1.7 3.63 1.83 3.61 1.96 3.54 2.07 3.48 2.2 3.39 2.36 3.26 2.49 3.15 2.65 2.98 2.82 2.82 2.98 2.61 3.16 2.39 3.35 2.11 3.54 -12.69 6.79 -1.54 -2.54 -1.76 -2.49 -1.98 -2.4 -2.21 -2.33 -2.39 -2.25 -2.58 -2.17 -2.74 -2.09 -2.88 -2 -3 -1.91 -3.12 -1.83 -3.19 -1.73 -3.25 -1.63 -3.3 -1.53 -3.31 -1.46 -3.31 -1.35 -3.31 -1.27 -3.24 -1.18 -3.18 -1.08 -3.09 -0.99 -3 -0.92 -2.86 -0.83 -2.71 -0.74 -2.55 -0.67 -2.36 -0.58 -2.17 -0.51 -1.92 -0.43 -1.69 -0.36 -1.41 -0.3 -1.11 -0.21 -0.82 -0.15 -0.46 -0.09 -0.13 -0.02 -5.41 -9.93zm5.41 9.93l-9.17 -1.52 3.76 -8.41 5.41 9.93zm-24.1 -92.72l13.48 5.08 -4.44 -9.32 4.94 1.89 4.52 2.26 4.09 2.59 3.66 2.89 3.22 3.17 2.8 3.41 2.38 3.59 1.97 3.74 1.61 3.83 1.25 3.92 0.94 3.97 0.65 3.98 0.39 3.96 0.17 3.96 -0.03 3.91 -0.21 3.84 -0.36 3.78 -0.49 3.67 -0.59 3.56 -0.68 3.43 -0.76 3.27 -0.78 3.09 -0.8 2.91 -0.82 2.7 -0.79 2.47 -0.76 2.21 -0.7 1.92 -0.62 1.65 -0.54 1.34 -0.39 0.97 -0.28 0.66 -0.12 0.28 -13.21 -5.77 0.05 -0.11 0.2 -0.47 0.35 -0.86 0.46 -1.15 0.54 -1.44 0.62 -1.73 0.69 -2 0.72 -2.2 0.73 -2.42 0.73 -2.6 0.71 -2.78 0.66 -2.91 0.6 -3.01 0.52 -3.12 0.43 -3.17 0.31 -3.22 0.17 -3.23 0.03 -3.22 -0.13 -3.19 -0.32 -3.14 -0.5 -3.06 -0.69 -2.93 -0.91 -2.81 -1.11 -2.7 -1.34 -2.53 -1.58 -2.39 -1.84 -2.25 -2.13 -2.08 -2.46 -1.95 -2.83 -1.79 -3.22 -1.61 -3.7 -1.41 -4.44 -9.32zm4.44 9.32l-7.12 -2.36 2.68 -6.96 4.44 9.32zm-14.25 -465.15l13.09 -6.02 0 0 9.23 20.96 8.12 21.04 7.05 21.07 6.06 21.04 5.09 20.97 4.21 20.84 3.35 20.67 2.57 20.44 1.83 20.19 1.15 19.87 0.53 19.5 -0.05 19.08 -0.57 18.63 -1.03 18.11 -1.44 17.56 -1.81 16.97 -2.11 16.3 -2.36 15.6 -2.56 14.85 -2.7 14.06 -2.79 13.23 -2.84 12.31 -2.81 11.38 -2.75 10.4 -2.63 9.36 -2.46 8.28 -2.23 7.14 -1.94 5.97 -1.62 4.74 -1.21 3.45 -0.78 2.14 -0.31 0.79 -13.48 -5.08 0.23 -0.6 0.73 -2.01 1.18 -3.32 1.56 -4.57 1.88 -5.8 2.17 -6.97 2.4 -8.09 2.57 -9.17 2.7 -10.17 2.75 -11.17 2.78 -12.08 2.75 -12.96 2.65 -13.79 2.5 -14.59 2.32 -15.31 2.07 -15.99 1.77 -16.62 1.42 -17.21 1.01 -17.75 0.55 -18.25 0.05 -18.68 -0.51 -19.08 -1.13 -19.41 -1.79 -19.71 -2.49 -19.95 -3.28 -20.16 -4.09 -20.3 -4.96 -20.42 -5.89 -20.46 -6.86 -20.47 -7.9 -20.43 -8.97 -20.35 0 0zm-162.48 -145.54l1.19 -14.24 0.5 0.06 8.02 1.4 7.83 1.72 7.66 2.02 7.47 2.33 7.28 2.62 7.12 2.9 6.94 3.17 6.76 3.43 6.59 3.69 6.41 3.92 6.23 4.14 6.08 4.38 5.9 4.58 5.73 4.77 5.58 4.95 5.41 5.15 5.25 5.3 5.1 5.47 4.94 5.61 4.79 5.75 4.65 5.88 4.5 5.99 4.37 6.12 4.22 6.21 4.09 6.3 3.95 6.38 3.81 6.46 3.69 6.52 3.57 6.58 3.44 6.62 3.32 6.66 3.2 6.68 -13.09 6.02 -3.11 -6.49 -3.2 -6.45 -3.33 -6.39 -3.45 -6.37 -3.56 -6.29 -3.68 -6.21 -3.79 -6.14 -3.92 -6.05 -4.04 -5.95 -4.16 -5.83 -4.29 -5.73 -4.43 -5.59 -4.56 -5.47 -4.67 -5.3 -4.82 -5.16 -4.94 -5 -5.08 -4.83 -5.22 -4.65 -5.36 -4.46 -5.5 -4.27 -5.64 -4.05 -5.79 -3.85 -5.94 -3.63 -6.09 -3.4 -6.24 -3.16 -6.38 -2.92 -6.55 -2.67 -6.71 -2.41 -6.88 -2.14 -7.04 -1.86 -7.22 -1.59 -7.39 -1.28 0.5 0.06zm1.19 -14.24l0.26 0.02 0.24 0.04 -0.5 -0.06zm-58.92 21.9l-4.78 -13.48 0 0 2.02 -0.69 2.02 -0.66 2.02 -0.63 2.03 -0.6 1.99 -0.57 2.01 -0.54 2 -0.52 2.02 -0.5 2 -0.46 2 -0.44 2.01 -0.41 2 -0.38 2 -0.35 1.99 -0.32 2.01 -0.31 1.98 -0.27 1.98 -0.25 2 -0.22 2.01 -0.19 1.98 -0.16 1.98 -0.14 1.97 -0.11 1.98 -0.1 2 -0.06 1.97 -0.03 1.97 -0.01 1.98 0.02 1.96 0.04 1.99 0.07 1.97 0.11 1.96 0.11 1.96 0.15 -1.19 14.24 -1.79 -0.13 -1.77 -0.11 -1.78 -0.09 -1.76 -0.07 -1.79 -0.04 -1.79 -0.02 -1.78 0.01 -1.8 0.03 -1.77 0.06 -1.79 0.08 -1.8 0.11 -1.79 0.12 -1.81 0.14 -1.78 0.17 -1.79 0.2 -1.81 0.23 -1.81 0.25 -1.8 0.27 -1.82 0.31 -1.81 0.32 -1.81 0.34 -1.82 0.37 -1.83 0.4 -1.83 0.42 -1.81 0.44 -1.83 0.48 -1.84 0.51 -1.85 0.52 -1.84 0.54 -1.83 0.57 -1.84 0.6 -1.84 0.63 0 0zm-4.78 -13.48l0 0 0 0 0 0zm-136.98 160.76l-13.08 -6.06 0 0 3.23 -6.74 3.26 -6.64 3.31 -6.54 3.34 -6.42 3.39 -6.33 3.45 -6.2 3.51 -6.1 3.58 -5.98 3.66 -5.87 3.74 -5.74 3.84 -5.63 3.92 -5.51 4.03 -5.38 4.13 -5.27 4.26 -5.13 4.37 -5 4.49 -4.87 4.65 -4.72 4.77 -4.59 4.91 -4.46 5.07 -4.31 5.22 -4.16 5.39 -4.02 5.54 -3.86 5.73 -3.72 5.9 -3.56 6.08 -3.39 6.27 -3.24 6.45 -3.08 6.65 -2.91 6.85 -2.74 7.06 -2.58 4.78 13.48 -6.64 2.43 -6.43 2.57 -6.23 2.73 -6.03 2.87 -5.85 3.03 -5.66 3.16 -5.5 3.31 -5.32 3.45 -5.16 3.59 -5.01 3.74 -4.86 3.89 -4.72 4 -4.59 4.16 -4.46 4.3 -4.34 4.43 -4.22 4.57 -4.12 4.71 -4.01 4.85 -3.92 4.98 -3.82 5.11 -3.75 5.24 -3.65 5.38 -3.58 5.52 -3.53 5.64 -3.45 5.77 -3.39 5.89 -3.35 6.03 -3.3 6.14 -3.26 6.27 -3.23 6.38 -3.18 6.51 -3.17 6.62 0 0zm-7.27 455.75l-4.59 -13.55 -4.39 9.47 -0.32 -0.77 -0.83 -2.1 -1.29 -3.41 -1.71 -4.66 -2.06 -5.89 -2.36 -7.03 -2.62 -8.15 -2.81 -9.21 -2.95 -10.23 -3.03 -11.2 -3.07 -12.12 -3.04 -12.99 -2.95 -13.82 -2.83 -14.6 -2.64 -15.33 -2.39 -16 -2.09 -16.66 -1.74 -17.23 -1.34 -17.78 -0.87 -18.28 -0.33 -18.71 0.22 -19.11 0.86 -19.46 1.55 -19.78 2.3 -20.01 3.09 -20.23 3.95 -20.39 4.85 -20.49 5.82 -20.55 6.84 -20.57 7.92 -20.52 9.05 -20.43 13.08 6.06 -8.78 19.8 -7.68 19.89 -6.63 19.94 -5.65 19.94 -4.71 19.92 -3.83 19.81 -3.01 19.69 -2.23 19.5 -1.51 19.28 -0.84 19 -0.22 18.67 0.33 18.29 0.85 17.87 1.3 17.4 1.7 16.89 2.06 16.32 2.35 15.69 2.58 15.03 2.77 14.32 2.9 13.55 2.98 12.74 3.01 11.89 2.97 10.97 2.88 10.02 2.75 9 2.56 7.96 2.3 6.86 2.01 5.7 1.65 4.51 1.23 3.26 0.77 1.97 0.24 0.6 -4.39 9.47zm4.39 -9.47l2.91 7.05 -7.29 2.42 4.39 -9.47zm-24.04 92.88l-2.39 -14.09 -5.41 9.93 -0.12 -0.28 -0.28 -0.66 -0.39 -0.97 -0.54 -1.34 -0.62 -1.65 -0.7 -1.93 -0.76 -2.2 -0.8 -2.47 -0.81 -2.7 -0.81 -2.9 -0.79 -3.11 -0.74 -3.27 -0.68 -3.41 -0.6 -3.57 -0.48 -3.68 -0.36 -3.77 -0.21 -3.83 -0.04 -3.91 0.17 -3.97 0.39 -3.96 0.65 -3.99 0.95 -3.96 1.24 -3.91 1.61 -3.85 1.98 -3.74 2.37 -3.58 2.79 -3.41 3.23 -3.17 3.66 -2.89 4.09 -2.59 4.52 -2.26 4.94 -1.89 4.59 13.55 -3.7 1.41 -3.22 1.61 -2.83 1.79 -2.46 1.95 -2.12 2.08 -1.84 2.25 -1.59 2.4 -1.35 2.53 -1.11 2.69 -0.9 2.82 -0.7 2.94 -0.5 3.05 -0.32 3.14 -0.13 3.18 0.04 3.22 0.17 3.24 0.31 3.23 0.42 3.16 0.53 3.11 0.6 3.03 0.66 2.91 0.7 2.76 0.74 2.61 0.72 2.42 0.73 2.2 0.68 2.01 0.62 1.72 0.54 1.44 0.46 1.15 0.35 0.86 0.2 0.47 0.05 0.11 -5.41 9.93zm5.41 -9.93l3.75 8.41 -9.16 1.52 5.41 -9.93zm-82.01 49.97l-12.69 -6.81 0 0 2.12 -3.53 2.39 -3.35 2.61 -3.15 2.82 -2.99 2.99 -2.81 3.14 -2.65 3.28 -2.49 3.39 -2.36 3.48 -2.21 3.54 -2.06 3.59 -1.96 3.64 -1.83 3.64 -1.7 3.64 -1.6 3.62 -1.48 3.56 -1.37 3.52 -1.27 3.43 -1.18 3.33 -1.07 3.19 -0.97 3.08 -0.89 2.91 -0.79 2.72 -0.71 2.53 -0.62 2.3 -0.54 2.07 -0.47 1.81 -0.38 1.53 -0.32 1.26 -0.25 0.92 -0.17 0.61 -0.11 0.23 -0.04 2.39 14.09 -0.13 0.02 -0.46 0.09 -0.82 0.15 -1.11 0.21 -1.41 0.3 -1.69 0.36 -1.92 0.43 -2.17 0.51 -2.36 0.58 -2.55 0.67 -2.71 0.74 -2.85 0.83 -3 0.92 -3.1 0.99 -3.18 1.08 -3.25 1.18 -3.29 1.27 -3.32 1.35 -3.32 1.46 -3.3 1.53 -3.24 1.63 -3.19 1.73 -3.12 1.84 -3.02 1.9 -2.88 2 -2.74 2.09 -2.57 2.17 -2.4 2.26 -2.21 2.32 -1.98 2.41 -1.78 2.48 -1.53 2.55 0 0zm7 101.44l0 -14.28 -5.73 11.48 -0.21 -0.27 -0.34 -0.49 -0.56 -0.76 -0.74 -1.06 -0.89 -1.31 -1.05 -1.59 -1.15 -1.83 -1.24 -2.05 -1.34 -2.29 -1.39 -2.49 -1.42 -2.7 -1.45 -2.91 -1.45 -3.1 -1.43 -3.27 -1.4 -3.45 -1.34 -3.6 -1.26 -3.77 -1.17 -3.92 -1.05 -4.04 -0.9 -4.18 -0.76 -4.29 -0.56 -4.41 -0.36 -4.52 -0.13 -4.6 0.11 -4.67 0.37 -4.75 0.69 -4.81 0.98 -4.84 1.32 -4.87 1.68 -4.89 2.05 -4.88 2.45 -4.86 12.69 6.81 -2.01 4 -1.68 3.99 -1.38 4 -1.07 3.99 -0.81 3.98 -0.55 3.95 -0.32 3.93 -0.09 3.91 0.11 3.87 0.31 3.81 0.49 3.76 0.64 3.7 0.78 3.62 0.92 3.53 1.01 3.42 1.13 3.33 1.19 3.2 1.24 3.07 1.28 2.92 1.3 2.77 1.3 2.6 1.29 2.43 1.23 2.25 1.19 2.03 1.13 1.85 1.01 1.6 0.9 1.38 0.79 1.16 0.62 0.89 0.47 0.65 0.29 0.39 0.02 0.02 -5.73 11.48zm5.73 -11.48l8.87 11.48 -14.6 0 5.73 -11.48zm-113.36 -2.8l107.63 0 0 14.28 -107.63 0 -5.83 -2.92 5.83 -11.36zm0 14.28l-3.67 0 -2.16 -2.92 5.83 2.92zm-92.37 -215.91l12.64 6.88 0.31 -0.61 -2.07 5.55 -1.51 5.76 -0.97 5.98 -0.45 6.2 0.05 6.38 0.54 6.58 0.99 6.73 1.43 6.87 1.85 6.99 2.23 7.06 2.59 7.13 2.91 7.19 3.2 7.2 3.47 7.2 3.7 7.17 3.9 7.13 4.07 7.04 4.21 6.97 4.3 6.86 4.38 6.73 4.42 6.57 4.43 6.41 4.39 6.21 4.34 6.01 4.25 5.78 4.13 5.53 3.98 5.27 3.79 4.99 3.57 4.69 3.33 4.37 3.06 4.03 2.75 3.69 -11.66 8.43 -2.68 -3.59 -3 -3.98 -3.33 -4.35 -3.57 -4.69 -3.81 -5.01 -4.01 -5.32 -4.19 -5.61 -4.31 -5.88 -4.42 -6.11 -4.48 -6.35 -4.52 -6.55 -4.53 -6.74 -4.49 -6.92 -4.43 -7.05 -4.34 -7.2 -4.22 -7.31 -4.05 -7.42 -3.87 -7.49 -3.64 -7.56 -3.39 -7.62 -3.1 -7.65 -2.78 -7.67 -2.42 -7.68 -2.03 -7.68 -1.59 -7.64 -1.13 -7.59 -0.62 -7.55 -0.07 -7.48 0.54 -7.39 1.18 -7.26 1.87 -7.12 2.59 -6.93 0.31 -0.61zm-0.31 0.61l0.12 -0.29 0.18 -0.32 -0.31 0.61zm162.97 -135.36l14.13 -2.94 -3.35 7.59 -0.35 0.22 -1.04 0.62 -1.72 1.05 -2.35 1.44 -2.93 1.84 -3.5 2.19 -3.99 2.54 -4.46 2.87 -4.88 3.19 -5.27 3.48 -5.61 3.78 -5.93 4.03 -6.17 4.28 -6.4 4.51 -6.59 4.72 -6.71 4.92 -6.81 5.1 -6.88 5.28 -6.88 5.42 -6.87 5.55 -6.81 5.66 -6.69 5.75 -6.54 5.84 -6.37 5.89 -6.13 5.93 -5.85 5.95 -5.54 5.95 -5.18 5.93 -4.78 5.88 -4.34 5.83 -3.87 5.73 -3.35 5.59 -12.64 -6.88 3.78 -6.34 4.27 -6.33 4.72 -6.33 5.12 -6.32 5.51 -6.29 5.83 -6.26 6.12 -6.22 6.36 -6.16 6.58 -6.1 6.75 -6.01 6.88 -5.91 6.97 -5.81 7.03 -5.67 7.03 -5.53 7.02 -5.37 6.93 -5.2 6.84 -5.02 6.68 -4.8 6.5 -4.59 6.28 -4.34 6 -4.09 5.69 -3.83 5.36 -3.54 4.94 -3.23 4.54 -2.92 4.06 -2.58 3.54 -2.23 2.99 -1.86 2.41 -1.48 1.78 -1.09 1.12 -0.68 0.39 -0.22 -3.35 7.59zm14.13 -2.94l1.05 4.97 -4.4 2.62 3.35 -7.59zm63.15 -404.84l12.22 7.61 0 0 -4.25 6.8 -4.37 7.23 -4.47 7.66 -4.54 8.07 -4.59 8.49 -4.63 8.89 -4.61 9.29 -4.59 9.68 -4.55 10.06 -4.46 10.43 -4.36 10.82 -4.25 11.17 -4.09 11.52 -3.93 11.88 -3.73 12.22 -3.51 12.55 -3.26 12.87 -3 13.2 -2.71 13.51 -2.38 13.8 -2.05 14.12 -1.68 14.39 -1.29 14.69 -0.88 14.96 -0.43 15.25 0.02 15.5 0.51 15.75 1.03 16.01 1.55 16.25 2.12 16.51 2.7 16.72 3.32 16.96 -14.13 2.94 -3.39 -17.42 -2.77 -17.18 -2.18 -16.95 -1.61 -16.71 -1.05 -16.45 -0.53 -16.21 -0.02 -15.92 0.45 -15.67 0.9 -15.38 1.33 -15.09 1.72 -14.8 2.1 -14.5 2.46 -14.18 2.77 -13.87 3.08 -13.54 3.35 -13.22 3.6 -12.87 3.82 -12.52 4.02 -12.19 4.21 -11.82 4.35 -11.44 4.47 -11.09 4.58 -10.7 4.65 -10.31 4.7 -9.93 4.74 -9.52 4.72 -9.1 4.7 -8.7 4.65 -8.28 4.59 -7.85 4.48 -7.42 4.37 -6.97 0 0zm164.84 -136.44l5.73 13.11 0 0 -6.03 2.66 -6 2.79 -5.96 2.9 -5.93 3.04 -5.91 3.15 -5.84 3.25 -5.79 3.36 -5.73 3.48 -5.69 3.57 -5.62 3.69 -5.55 3.78 -5.49 3.86 -5.41 3.96 -5.33 4.03 -5.24 4.13 -5.18 4.21 -5.07 4.28 -4.97 4.35 -4.89 4.42 -4.77 4.49 -4.67 4.55 -4.58 4.6 -4.43 4.65 -4.33 4.71 -4.21 4.75 -4.09 4.81 -3.95 4.83 -3.82 4.87 -3.68 4.91 -3.55 4.92 -3.39 4.97 -3.25 4.97 -12.22 -7.61 3.42 -5.26 3.58 -5.22 3.72 -5.19 3.87 -5.14 4 -5.1 4.14 -5.06 4.26 -5.02 4.4 -4.96 4.5 -4.9 4.65 -4.86 4.75 -4.79 4.85 -4.72 4.98 -4.66 5.07 -4.59 5.16 -4.52 5.28 -4.43 5.35 -4.36 5.45 -4.28 5.52 -4.19 5.62 -4.11 5.68 -4.01 5.76 -3.91 5.83 -3.82 5.9 -3.71 5.96 -3.61 6.02 -3.5 6.07 -3.38 6.12 -3.27 6.17 -3.15 6.21 -3.03 6.25 -2.91 6.3 -2.77 0 0zm179.4 8.05l-6.9 12.56 0.01 0 -5.92 -3.13 -5.76 -2.92 -5.65 -2.72 -5.51 -2.54 -5.4 -2.33 -5.29 -2.14 -5.19 -1.95 -5.09 -1.76 -5.03 -1.57 -4.94 -1.4 -4.88 -1.19 -4.84 -1.01 -4.8 -0.84 -4.77 -0.65 -4.75 -0.48 -4.73 -0.3 -4.76 -0.12 -4.78 0.06 -4.79 0.23 -4.84 0.41 -4.89 0.57 -4.96 0.77 -5.03 0.93 -5.11 1.12 -5.2 1.3 -5.31 1.48 -5.43 1.65 -5.54 1.84 -5.68 2.03 -5.81 2.2 -5.97 2.4 -6.12 2.56 -5.73 -13.11 6.33 -2.66 6.2 -2.48 6.08 -2.31 5.96 -2.12 5.85 -1.94 5.77 -1.77 5.68 -1.58 5.6 -1.4 5.55 -1.21 5.47 -1.02 5.44 -0.83 5.39 -0.65 5.35 -0.45 5.32 -0.25 5.3 -0.06 5.3 0.12 5.29 0.33 5.29 0.54 5.29 0.73 5.31 0.92 5.31 1.13 5.36 1.31 5.38 1.51 5.43 1.7 5.48 1.89 5.55 2.08 5.61 2.27 5.71 2.47 5.79 2.66 5.88 2.84 6.01 3.05 6.11 3.22 0.01 0z"/>
   </g>
  </g>
 </g>
</svg>
