<?xml version="1.0" encoding="UTF-8"?>
<!DOCTYPE svg PUBLIC "-//W3C//DTD SVG 1.1//EN" "http://www.w3.org/Graphics/SVG/1.1/DTD/svg11.dtd">
<!-- Creator: CorelDRAW 2020 (64-Bit) -->
<svg xmlns="http://www.w3.org/2000/svg" xml:space="preserve" width="115.243mm" height="17.4771mm" version="1.1" style="shape-rendering:geometricPrecision; text-rendering:geometricPrecision; image-rendering:optimizeQuality; fill-rule:evenodd; clip-rule:evenodd"
viewBox="0 0 13742.86 2084.17"
 xmlns:xlink="http://www.w3.org/1999/xlink"
 xmlns:xodm="http://www.corel.com/coreldraw/odm/2003">
 <defs>
  <style type="text/css">
   <![CDATA[
    .fil0 {fill:red;fill-rule:nonzero}
   ]]>
  </style>
 </defs>
 <g id="Capa_x0020_1">
  <metadata id="CorelCorpID_0Corel-Layer"/>
  <path class="fil0" d="M1690.09 716.76c0,-409.95 -275.08,-645.35 -714.13,-645.35 -219.53,0 -460.22,21.16 -571.3,39.68 -52.9,7.93 -81.99,31.74 -92.58,92.58l-309.45 1748.28c-2.65,10.58 -2.65,18.51 -2.65,26.44 0,42.32 23.8,58.19 63.48,66.13 105.8,18.52 335.91,39.68 555.43,39.68 587.17,0 886.04,-238.04 991.84,-835.79l60.83 -341.19c13.23,-66.13 18.52,-129.6 18.52,-190.43zm-454.92 34.38c0,44.97 -5.29,97.87 -15.87,156.05l-60.83 341.19c-63.48,357.06 -216.88,452.27 -470.79,452.27 -66.13,0 -150.76,-2.64 -187.79,-5.28l219.52 -1235.17c37.03,-2.64 121.67,-5.28 187.79,-5.28 198.38,0 327.98,66.13 327.98,296.22zm1970.43 325.33c0,-309.46 -187.79,-552.79 -544.85,-552.79 -433.75,0 -711.47,235.4 -790.82,695.61l-31.74 185.15c-7.93,52.9 -13.23,103.15 -13.23,148.11 0,367.64 269.78,531.62 555.44,531.62 230.1,0 378.22,-21.16 555.43,-63.48 47.61,-10.58 58.18,-29.1 66.11,-71.41l37.04 -201.01c5.28,-37.03 -7.94,-44.97 -50.26,-42.32 -108.44,7.93 -346.47,23.8 -513.1,23.8 -169.28,0 -235.39,-47.61 -235.39,-185.14 0,-31.74 5.28,-68.77 10.58,-108.45l849.01 0c34.38,0 58.18,-23.8 66.11,-63.48l26.45 -153.41c7.94,-47.61 13.23,-97.86 13.23,-142.82zm-399.37 -21.17c0,34.39 -5.29,74.07 -13.23,116.38l-497.24 0c39.68,-182.49 124.31,-304.16 304.16,-304.16 148.12,0 206.31,66.13 206.31,187.79zm2055.09 -473.43c0,-21.16 -15.87,-37.03 -37.03,-37.03l-362.36 0c-26.45,0 -52.9,23.8 -66.13,55.54l-409.95 1036.8c-15.87,39.68 -31.74,55.55 -50.25,55.55 -18.52,0 -29.1,-15.87 -31.74,-55.55l-44.96 -1036.8c-2.65,-31.73 -18.52,-55.54 -44.97,-55.54l-335.9 0c-26.45,0 -50.25,23.8 -50.25,55.54 0,0 0,2.65 0,5.29l119.03 1200.78c23.8,235.39 174.56,277.71 330.6,277.71 156.05,0 327.97,-42.32 433.77,-277.71l544.85 -1200.78c2.65,-7.93 5.29,-15.87 5.29,-23.8zm1343.61 476.08c0,-322.67 -201.01,-534.27 -558.07,-534.27 -439.05,0 -692.96,208.95 -782.89,687.68l-34.38 185.14c-10.59,50.25 -13.23,100.52 -13.23,148.12 0,312.09 195.72,539.55 555.43,539.55 468.15,0 698.25,-238.04 782.89,-687.68l34.38 -185.14c5.29,-31.73 15.87,-103.15 15.87,-153.41zm-428.47 31.74c0,34.38 -5.29,76.7 -13.23,121.66l-34.38 185.14c-39.68,214.25 -119.03,325.33 -290.94,325.33 -132.25,0 -195.73,-60.83 -195.73,-198.38 0,-37.03 5.29,-79.34 13.23,-126.96l34.38 -185.14c42.32,-232.76 140.18,-322.67 293.59,-322.67 129.6,0 193.08,63.48 193.08,201.01zm1317.16 -1015.64c0,-23.8 -15.87,-42.32 -42.32,-42.32l-322.67 0c-29.1,0 -58.19,23.8 -63.48,52.9l-338.54 1920.19c0,2.65 0,5.29 0,7.94 0,26.45 18.51,47.61 44.96,47.61l322.68 0c29.09,0 55.54,-26.45 60.83,-55.55l338.54 -1920.19c0,-2.65 0,-5.28 0,-10.58zm1526.1 518.4c0,-26.45 -18.51,-47.61 -44.96,-47.61l-320.04 0c-29.1,0 -58.18,26.45 -63.48,55.54l-182.49 1042.09c-82,47.61 -211.6,87.28 -264.49,87.28 -124.32,0 -163.99,-37.03 -163.99,-126.96 0,-31.73 5.29,-76.7 13.23,-121.66l153.41 -880.76c0,-2.64 0,-7.93 0,-10.58 0,-23.8 -15.86,-44.96 -42.31,-44.96l-320.04 0c-29.1,0 -60.83,26.45 -66.13,55.54l-153.41 880.76c-10.58,58.18 -15.86,111.08 -15.86,161.34 0,277.71 150.76,441.7 412.6,441.7 182.5,0 296.23,-58.18 420.54,-140.18l-13.23 63.48c0,2.65 0,5.29 0,10.58 0,23.8 18.51,42.32 44.96,42.32l296.23 0c29.1,0 55.54,-23.8 60.83,-52.9l248.62 -1407.09c0,-2.64 0,-5.28 0,-7.93l0 0zm907.21 -68.77c-383.51,0 -645.35,174.57 -732.65,669.17l-39.66 222.17c-10.59,55.55 -15.87,105.8 -15.87,156.05 0,327.97 211.59,513.1 521.05,513.1 158.69,0 275.07,-21.16 351.77,-39.68 42.32,-10.58 58.18,-21.16 66.13,-60.83l42.31 -235.39c5.29,-29.1 -7.93,-50.25 -47.61,-44.97 -100.51,10.58 -174.56,18.52 -325.32,18.52 -111.08,0 -177.21,-37.03 -177.21,-179.86 0,-34.38 5.28,-76.7 13.23,-126.96l39.68 -222.17c44.96,-245.98 140.18,-306.81 269.77,-306.81 150.76,0 219.53,7.93 320.04,18.51 52.9,5.29 58.18,-15.86 63.48,-44.96l42.32 -235.4c5.28,-34.38 2.64,-47.61 -44.97,-60.83 -71.41,-18.51 -187.79,-39.68 -346.47,-39.68zm756.44 -150.76l343.84 0c42.31,0 58.18,-23.8 63.48,-52.89l42.31 -245.98c7.94,-39.68 -10.58,-52.9 -42.31,-52.9l-343.84 0c-42.32,0 -58.19,23.8 -63.48,52.9l-42.32 245.98c-5.28,31.73 10.58,52.89 42.32,52.89zm304.16 171.93l-322.68 0c-29.09,0 -55.54,23.8 -60.83,52.9l-248.62 1409.72c-5.29,31.74 10.58,52.9 42.31,52.9l322.68 0c44.96,0 58.18,-23.8 63.48,-52.9l248.62 -1409.72c5.29,-37.03 -15.86,-52.9 -44.96,-52.9zm3155.35 417.89c0,-312.11 -198.36,-439.06 -425.82,-439.06 -140.18,0 -293.59,47.62 -412.6,137.54l10.58 -63.48c0,-2.65 0,-5.29 0,-7.94 0,-26.45 -18.52,-44.96 -44.97,-44.96l-288.29 0c-29.1,0 -55.54,23.8 -60.83,52.9l-248.62 1407.07c0,2.65 0,5.29 0,7.94 0,26.45 18.51,47.61 44.96,47.61l320.04 0c29.09,0 58.18,-26.45 63.48,-55.55l182.49 -1042.08c58.19,-34.39 185.15,-84.64 285.66,-84.64 79.35,0 142.82,31.74 142.82,129.6 0,31.74 -5.28,71.42 -13.21,116.38l-153.41 880.74c0,2.65 0,7.94 0,10.59 0,23.8 15.86,44.96 42.31,44.96l320.04 0c29.1,0 60.83,-26.45 66.13,-55.55l153.41 -880.74c10.58,-58.18 15.86,-111.08 15.86,-161.34zm-1592.22 95.21c0,-322.67 -201.01,-534.27 -558.07,-534.27 -439.05,0 -692.96,208.95 -782.89,687.68l-34.38 185.14c-10.59,50.25 -13.23,100.52 -13.23,148.12 0,312.09 195.72,539.55 555.43,539.55 468.15,0 698.25,-238.04 782.89,-687.68l34.38 -185.14c5.29,-31.73 15.87,-103.15 15.87,-153.41zm-428.47 31.74c0,34.38 -5.29,76.7 -13.23,121.66l-34.38 185.14c-39.68,214.25 -119.03,325.33 -290.94,325.33 -132.25,0 -195.73,-60.83 -195.73,-198.38 0,-37.03 5.29,-79.34 13.23,-126.96l34.38 -185.14c42.32,-232.76 140.18,-322.67 293.59,-322.67 129.6,0 193.08,63.48 193.08,201.01zm425.82 -1073.82c0,-10.59 -13.23,-15.87 -29.1,-15.87l-372.92 0c-37.03,0 -47.61,10.58 -76.7,39.68l-301.52 309.45c-10.58,10.58 -15.87,21.17 -15.87,29.1 0,10.58 7.93,15.87 21.16,15.87l309.46 0c34.38,0 44.96,-10.58 68.76,-31.74l380.87 -322.67c10.59,-7.94 15.87,-15.87 15.87,-23.8z"/>
 </g>
</svg>
