<?xml version="1.0" encoding="UTF-8"?>
<!DOCTYPE svg PUBLIC "-//W3C//DTD SVG 1.1//EN" "http://www.w3.org/Graphics/SVG/1.1/DTD/svg11.dtd">
<!-- Creator: CorelDRAW 2020 (64-Bit) -->
<svg xmlns="http://www.w3.org/2000/svg" xml:space="preserve" width="78.4947mm" height="22mm" version="1.1" style="shape-rendering:geometricPrecision; text-rendering:geometricPrecision; image-rendering:optimizeQuality; fill-rule:evenodd; clip-rule:evenodd"
viewBox="0 0 5963.35 1671.37"
 xmlns:xlink="http://www.w3.org/1999/xlink"
 xmlns:xodm="http://www.corel.com/coreldraw/odm/2003">
 <defs>
  <style type="text/css">
   <![CDATA[
    .fil0 {fill:#2D8411;fill-rule:nonzero}
   ]]>
  </style>
 </defs>
 <g id="Capa_x0020_1">
  <metadata id="CorelCorpID_0Corel-Layer"/>
  <g id="_2391564223472">
   <path class="fil0" d="M4294.88 385.41c15.43,-15.95 39.49,-14.78 60.16,-16.99 47.47,-1.18 96.25,-4.85 142.8,7.45 25.11,4.32 20.01,37.67 25.24,56.63 9.69,162.04 15.3,324.33 23.15,486.63 4.97,93.77 5.23,188.58 27.86,280.27 64.86,-62.78 86.05,-153.01 120.7,-233.19 79.12,-195.38 153.55,-392.73 238.8,-585.49 69.18,-17.8 143.21,-17.53 213.43,-7.19 35.45,8.9 16.87,50.86 7.46,73.89 -123.46,269.79 -241.94,542.08 -366.84,811.34 -53.48,121.1 -211.07,156.02 -327.6,116.4 -60.03,-19.87 -85.53,-85.26 -91.29,-143.07 -28.5,-252.67 -53.09,-505.58 -77.15,-758.64 -1.83,-29.3 -5.1,-59.51 3.27,-88.02l0.01 0zm-325.65 -3c64.22,-20.79 134.58,-21.58 200.75,-9.69 37.01,5.49 22.37,50.61 22.1,75.99 -44.06,270.71 -96.38,540.12 -141.89,810.55 -7.07,42.38 -8.36,106.59 -62.77,114.7 -56.24,5.76 -116.65,11.11 -170.8,-8.77 -15.44,-25.5 -9.28,-56.36 -5.76,-83.96 40.15,-235.28 79.91,-470.67 119.01,-706.07 11.11,-64.61 19.74,-129.99 39.36,-192.76zm1555.61 188.71c-70.23,14.65 -125.93,70.88 -150.39,136.92 -37.01,100.43 -54.14,207.28 -61.2,313.74 -2.48,41.46 3.67,88.67 37.27,117.44 61.46,50.86 152.75,48.13 221.4,13.47 52.7,-27.2 83.83,-82.12 96.92,-138.24 23.54,-104.88 62.11,-209.36 52.05,-318.57 -1.7,-38.58 -16.74,-78.46 -49.3,-101.22 -42.9,-27.99 -97.44,-33.61 -146.75,-23.54l0 0zm-24.45 -204.67c93.63,-12.55 193.29,-12.68 282.22,23.28 99.92,48.39 174.98,153.14 178.38,265.61 12.03,138.11 -24.07,274.11 -62.25,405.42 -26.03,89.19 -74.67,173.93 -148.69,231.48 -124.77,98.73 -298.18,121.76 -449.1,79.12 -88.14,-21.32 -153.01,-95.6 -192.24,-173.94 -55.06,-117.7 -23.8,-250.18 -2.36,-371.93 23.28,-133.91 74.15,-271.76 179.43,-362.77 60.29,-52.31 136.01,-84.35 214.6,-96.26l0 -0.01zm-2924.34 156.68c81.21,-116.65 228.86,-169.88 367.22,-164.39 77.95,3.4 157.98,18.3 226.39,57.67 52.31,33.09 14.77,100.7 7.84,147.92 -3.66,45.24 -59.5,30.59 -89.97,30.59 -72.19,3.53 -136.92,-54.4 -208.86,-30.21 -59.63,14.38 -111.55,57.53 -134.3,114.82 -51.53,124.24 -73.76,260.13 -69.57,394.43 -0.92,41.98 21.44,85.92 64.07,97.96 106.98,34.52 216.05,-9.29 321.33,-29.43 3.53,57.55 10.73,120.85 -21.45,172.23 -28.37,37.27 -77.68,48.13 -121.74,53.35 -56.77,5.11 -113.25,13.36 -170.02,18.84 -133.4,1.96 -266.92,-91.02 -298.57,-223.11 -19.75,-105.01 -9.29,-213.43 6.94,-318.18 22.36,-112.73 54.92,-226.9 120.71,-322.5l-0.02 0zm-714.05 84.74c-52.18,43.95 -73.5,111.82 -82.79,177.21 119.14,1.31 238.79,6.14 357.81,-3 18.44,-53.36 12.03,-113.91 -23.41,-158.77 -57.54,-78.21 -182.7,-78.48 -251.61,-15.44zm57.81 -241.02c96.13,-10.99 203.1,-21.85 288.89,33.08 111.94,69.06 157.59,209.26 155.23,335.06 -3.53,71.15 2.87,144.38 -18.96,213.3 -100.31,20.28 -203.23,7.72 -304.71,11.12 -97.69,2.09 -195.38,-4.19 -292.81,1.96 -27.98,68.26 -15.82,159.28 50.35,200.74 50.62,24.72 109.21,20.67 164.13,20.79 102.4,-0.91 199.84,-35.7 299.49,-54.27 -0.4,62.52 16.61,146.86 -45.51,186.62 -66.7,37.01 -142.03,55.05 -215.26,74.41 -109.07,27.71 -229.13,17.78 -327.73,-38.58 -86.84,-45.26 -155.24,-130 -165.95,-229.26 -21.2,-192.9 17.91,-392.21 109.19,-563.27 59.77,-111.43 181.12,-176.68 303.67,-191.71l-0.01 0zm1557.82 -157.33c68.92,-40.41 152.75,-44.98 230.95,-41.59 2.23,65.39 -21.57,128.29 -18.44,193.69 51.01,7.19 104.76,2.36 153.8,20.91 30.73,14.12 25.24,53.88 19.89,81.08 -9.42,36.88 -23.16,89.71 -71.03,88.4 -49.31,11.12 -133.25,-18.3 -148.95,49.05 -29.56,144.38 -51.53,290.33 -77.16,435.49 -8.76,50.74 -17.78,101.62 -18.17,153.28 51.92,17.78 106.98,12.69 160.58,8.89 46.17,69.84 2.63,181.78 -85.52,185.05 -86.05,-0.52 -182.83,16.35 -256.86,-38.44 -55.57,-40.55 -66.82,-116 -57.53,-179.95 25.5,-200.35 71.53,-397.7 95.47,-598.43 -55.58,-14.92 -124.24,-1.7 -167,-47.47 -21.97,-39.88 -18.83,-98.22 12.82,-132.35 53.75,-35.45 123.06,-5.63 180.61,-27.73 38.05,-40.93 13.72,-106.45 46.56,-149.87l0.01 -0.01zm-3084.4 -153.01c160.19,-28.38 324.19,-19.62 484.93,-0.78 20.14,2.61 39.89,8.5 59.51,14.12 9.28,49.56 8.75,103.18 -13.74,149.35 -15.82,32.3 -55.31,35.96 -86.84,37.13 -107.1,2.1 -214.22,-2.22 -321.31,1.57 -48.39,2.48 -106.47,16.09 -126.21,66.57 -35.96,85.13 -40.15,179.29 -54.53,269.79 145.82,-0.14 291.63,-0.52 437.45,-0.14 23.8,-1.18 63.69,4.45 60.55,36.75 -0.13,41.32 -8.24,82.52 -20.79,121.89 -10.73,32.3 -47.22,45.24 -78.6,43.68 -126.98,0.78 -254.09,-1.31 -381.22,0.26 -33.48,-3.4 -64.61,21.06 -66.17,55.32 -10.2,86.84 -36.88,173.8 -28,261.55 4.06,46.42 54.81,60.68 93.91,61.99 123.2,2.74 246.64,-1.96 369.84,2.88 27.74,0.92 23.16,34.65 28.12,54.15 6.93,52.56 -7.46,128.03 -70.76,136.39 -180.21,19.1 -372.05,49.97 -545.47,-20.66 -83.04,-32.69 -119.92,-124.24 -130.12,-206.89 -11.9,-70.1 7.19,-139.54 18.58,-208.33 31.38,-179.82 62.9,-359.51 96.51,-538.81 15.82,-81.87 40.67,-165.44 95.06,-230.56 46.43,-53.23 109.21,-93.89 179.31,-107.23l0 0zm3607.26 76.38c10.2,-41.06 10.72,-98.09 55.19,-117.96 64.09,-6.81 129.08,-3.15 193.68,-3.81 26.68,73.77 -3.27,150.01 -22.1,221.68 -64.09,16.48 -132.61,14.78 -197.61,5.23 -46.68,-11.78 -34,-69.96 -29.16,-105.14zm-2702.01 -89.59c106.45,-53.88 233.17,-53.1 346.17,-21.58 2.74,49.18 8.11,107.64 -25.5,147.92 -56.64,27.59 -126.99,6.4 -181.91,39.49 -43.03,37.92 -33.88,102.67 -41.99,154.06 59.64,7.32 120.45,0.79 179.57,13.86 9.55,51.66 12.69,114.56 -24.19,156.15 -52.31,32.83 -118.76,16.87 -177.22,23.29 -14.77,22.23 -27.33,46.29 -30.59,73.37 -44.6,248.61 -86.58,497.6 -131.31,746.21 -18.83,84.88 -38.97,179.96 -111.42,236.19 -74.02,57.8 -174.19,61.47 -264.04,58.32 -36.75,-4.44 -83.83,-0.65 -107.24,-35.31 -9.29,-46.94 6.81,-93.5 22.75,-137.18 50.73,-10.07 104.1,0 153.79,-15.3 52.58,-18.05 63.18,-79.39 72.59,-126.85 34.53,-213.83 72.97,-427.13 111.16,-640.43 7.58,-49.43 21.84,-98.73 19.49,-149.09 -48.92,-18.32 -111.55,-2.36 -149.35,-45.25 -30.73,-36.62 -16.61,-92.46 4.32,-130.66 42.37,-44.06 109.33,-6.4 160.99,-23.13 36.74,-20.93 37.52,-68.8 45.77,-105.53 13.33,-84.5 48.77,-176.03 128.16,-218.54z"/>
  </g>
 </g>
</svg>
