<?xml version="1.0" encoding="UTF-8"?>
<!DOCTYPE svg PUBLIC "-//W3C//DTD SVG 1.1//EN" "http://www.w3.org/Graphics/SVG/1.1/DTD/svg11.dtd">
<!-- Creator: CorelDRAW 2020 (64-Bit) -->
<svg xmlns="http://www.w3.org/2000/svg" xml:space="preserve" width="84.4691mm" height="22mm" version="1.1" style="shape-rendering:geometricPrecision; text-rendering:geometricPrecision; image-rendering:optimizeQuality; fill-rule:evenodd; clip-rule:evenodd"
viewBox="0 0 4497.99 1171.5"
 xmlns:xlink="http://www.w3.org/1999/xlink"
 xmlns:xodm="http://www.corel.com/coreldraw/odm/2003">
 <defs>
  <style type="text/css">
   <![CDATA[
    .fil3 {fill:#1A1446}
    .fil2 {fill:#2FCAD7}
    .fil1 {fill:#FF2F73}
    .fil0 {fill:#140F38;fill-opacity:0.941176}
   ]]>
  </style>
 </defs>
 <g id="Capa_x0020_1">
  <metadata id="CorelCorpID_0Corel-Layer"/>
  <g id="_2391540733840">
   <g id="Construir">
    <g id="Home">
     <g id="Group">
      <g id="ico_imagotipo">
       <path id="Fill-1" class="fil0" d="M4497.99 288.88c0,-9.54 -8.43,-18.13 -17.79,-18.13l-59.65 0c-10.31,0 -17.8,8.59 -17.8,18.13l0 598.97c0,9.53 8.44,18.14 17.8,18.14l59.65 0c10.31,0 17.79,-8.61 17.79,-18.14l0 -598.97z"/>
       <path id="Fill-8" class="fil0" d="M4153.84 288.72c0,-9.36 -8.27,-17.78 -17.44,-17.78l-58.46 0c-10.1,0 -17.44,8.42 -17.44,17.78l0.3 356.88c0,55.24 -4.59,81.41 -19.27,107.62 -22.05,38.39 -66.13,63.64 -113.84,63.64 -48.66,0 -92.74,-25.25 -114.79,-63.64 -14.67,-26.21 -19.27,-52.38 -19.27,-107.62l0.33 -356.88c0,-9.36 -8.26,-17.78 -17.43,-17.78l-58.47 0c-10.1,0 -17.44,8.42 -17.44,17.78l0.31 382.18c0,60.81 14.67,105.74 46.82,146.92 43.15,55.19 110.14,87.96 179.95,87.96 68.86,0 135.86,-32.78 179.02,-87.96 32.15,-41.18 46.82,-87.03 46.82,-146.92l0.32 -382.18z"/>
       <path id="Fill-12" class="fil0" d="M3479.53 879.4c14.38,14.48 9.61,26.33 -10.61,26.32l-62.15 -0.07c-8.3,-0.01 -19.89,-4.88 -25.79,-10.82l-203.17 -204.61c-13.7,-13.78 -4.09,-37.55 15.15,-37.54l46.45 0.05c8.28,0.02 19.89,4.88 25.79,10.82l214.33 215.85z"/>
       <path id="Fill-10" class="fil0" d="M3343.94 740.87c40.44,-43.95 57.52,-87.94 57.52,-151.12 0,-131 -97.08,-231.8 -223.82,-231.8 -127.6,0 -221.07,98.96 -221.07,233.63 0,66.83 21.54,119.98 64.7,162.15 42.25,41.22 97.96,65 152.79,65 36.84,0 77.3,-10.05 106.94,-27.44m63.83 65c-49.42,32.08 -108.73,49.49 -167.18,49.49 -88.08,0 -177.01,-40.29 -237.26,-109.02 -49.42,-54.95 -74.59,-127.34 -74.59,-206.13 0,-176.8 139.3,-319.7 312.76,-319.7 174.36,0 313.64,144.75 313.64,325.18 0,83.4 -26.04,146.58 -85.37,209.81m-62.02 50.37l0 0 0 0z"/>
       <path id="Fill-6" class="fil0" d="M2615.41 905.74l24.68 0c10.3,0 17.77,-8.57 17.77,-18.07l0 -54.27c0,-9.5 -7.47,-18.07 -17.77,-18.07l-161.63 0 -0.05 0.1 -70.31 0 0 -197.2 13.31 0 -0.04 0.05 219.05 0c10.3,0 17.77,-8.57 17.77,-18.07l0 -54.27c0,-9.51 -7.47,-18.07 -17.77,-18.07l-8.99 0 0 -0.02 -223.33 0 0 -166.52 231.99 0c10.3,0 17.77,-8.57 17.77,-18.07l0 -54.27c0,-9.48 -7.47,-18.05 -17.77,-18.05l-161.88 0 -146.87 0c-10.29,0 -17.76,8.57 -17.76,18.05l0 598.76c0,9.38 7.33,17.84 17.45,18.03l284.39 0 0 -0.04z"/>
       <path id="Fill-4" class="fil0" d="M2046.8 270.94l-57.66 0c-10.13,0 -17.48,8.66 -17.48,18.28l-0.29 420.37 -391.94 -429.94c0,0 -6.27,-8.58 -17.39,-8.58 -10.44,0 -20.06,-0.12 -20.06,-0.12 -9.24,0 -17.48,7.69 -17.48,17.28l0 573.85 0 25.45c0,9.59 7.93,18.26 17.11,18.26l58.61 0c10.11,0 17.47,-8.67 17.47,-18.26l-0.6 -430.92 404.33 441.57c0,0 7.85,7.61 12.4,7.61l12.56 0c9.19,0 17.47,-7.68 17.47,-17.28l0.43 -10.78 0 -588.5c0,-9.62 -8.3,-18.28 -17.48,-18.28z"/>
      </g>
      <g id="Logo">
       <path id="Guayaba" class="fil1" d="M128.3 272.72l525.98 -264.21c31.74,-15.94 71.1,-8.99 94.41,16.66l452.07 497.56c27.37,30.13 26.83,74.45 -1.27,103.99l-488.64 513.66c-47.37,45.17 -126.67,40.53 -167.63,-9.79l-473.6 -624.9c-59.36,-78.35 -31.89,-187.49 58.67,-232.97z"/>
       <path id="Quirúrgico" class="fil2" d="M30.94 516.39l342.3 -456.74c20.65,-27.56 59.14,-37.88 92.32,-24.76l643.73 254.58c38.99,15.41 59.89,55.23 49.04,93.4l-188.61 663.84c-20.51,60.22 -93.58,89.36 -154.42,61.63l-724.37 -359.26c-90.82,-45.04 -118.91,-154.04 -59.99,-232.68z"/>
       <path id="Medianoche" class="fil3" d="M265.01 204.04l276.76 -139 379.5 150.07 216.89 238.71 -96.16 338.47 -276.95 291.12 -412.73 -204.7 -282.69 -373.02c-5.42,-7.14 -10.1,-14.55 -14.09,-22.14l209.48 -279.52z"/>
      </g>
     </g>
    </g>
   </g>
  </g>
 </g>
</svg>
