<svg width="520" height="175" viewBox="0 0 520 175" fill="none" xmlns="http://www.w3.org/2000/svg">
<path fill-rule="evenodd" clip-rule="evenodd" d="M2.38465 34.7207C1.71185 38.3972 1.31697 42.3409 1.2 46.5518C1.04 48.4718 0.88 51.9918 0.72 57.1118C0.56 62.0718 0.4 67.8318 0.24 74.3918C0.24 80.7918 0.16 87.1118 0 93.3518V108.232C0 116.072 0.16 123.912 0.48 131.752C0.8 139.592 1.76 146.792 3.36 153.352C4.96 159.752 7.6 164.952 11.28 168.952C14.96 172.792 20.16 174.712 26.88 174.712C33.28 174.712 38.32 173.192 42 170.152C45.68 167.112 48.4 162.952 50.16 157.672C51.92 152.392 53.04 146.472 53.52 139.912C54.16 133.352 54.48 126.552 54.48 119.512C59.6 128.792 65.12 137.672 71.04 146.152C77.12 154.632 83.68 161.512 90.72 166.792C97.76 172.072 105.36 174.712 113.52 174.712C118.16 174.712 122.56 173.752 126.72 171.832C130.88 169.912 134.24 166.872 136.8 162.712C139.52 158.552 140.88 153.112 140.88 146.392C140.88 140.312 139.36 134.632 136.32 129.352C133.28 124.072 129.2 119.192 124.08 114.712C119.12 110.072 113.6 105.912 107.52 102.232C101.44 98.3918 95.44 95.1118 89.52 92.3918C90.2119 92.1431 90.898 91.8897 91.5782 91.6316C59.2748 76.615 29.3113 57.4124 2.38465 34.7207ZM143.611 111.515C144.229 122.675 146.491 132.7 150.398 141.592C155.197 151.992 161.917 160.152 170.557 166.072C179.357 171.832 189.678 174.712 201.518 174.712C214.478 174.712 225.198 171.832 233.678 166.072C242.318 160.152 248.798 151.992 253.118 141.592C254.778 137.532 256.12 133.235 257.142 128.702C242.295 128.598 227.64 127.685 213.219 126.005C212.8 126.695 212.339 127.331 211.837 127.912C208.958 131.272 205.518 132.952 201.518 132.952C197.838 132.952 194.398 131.272 191.197 127.912C189.892 126.4 188.867 124.52 188.122 122.271C172.971 119.522 158.117 115.92 143.611 111.515ZM270.948 128.565C271.191 138.021 271.715 145.963 272.518 152.392C273.638 159.912 275.718 165.512 278.758 169.192C281.958 172.872 286.758 174.712 293.158 174.712C299.558 174.712 304.358 172.872 307.558 169.192C310.758 165.512 312.918 159.912 314.038 152.392C315.095 145.147 315.582 135.981 315.499 124.893C300.886 126.921 286.021 128.16 270.948 128.565ZM339.046 120.903C339.043 121.553 339.041 122.209 339.041 122.872C339.201 134.872 339.761 144.712 340.721 152.392C341.841 159.912 343.921 165.512 346.961 169.192C350.161 172.872 354.961 174.712 361.361 174.712C367.761 174.712 372.561 172.872 375.761 169.192C378.961 165.512 381.121 159.912 382.241 152.392C383.361 144.712 383.841 134.872 383.681 122.872C383.681 117.996 383.589 113.476 383.404 109.314C368.96 113.993 354.157 117.874 339.046 120.903ZM401.619 102.918C402.14 126.011 404.175 143.222 407.724 154.552C411.884 167.672 419.324 174.232 430.044 174.232C437.084 174.232 442.204 171.512 445.404 166.072C448.764 160.472 451.004 151.752 452.124 139.912C454.364 139.272 456.684 138.472 459.084 137.512C460.684 140.072 462.364 142.712 464.124 145.432C466.044 147.992 467.964 150.472 469.884 152.872C474.204 158.472 478.684 163.352 483.324 167.512C487.964 171.672 492.604 173.912 497.244 174.232C500.284 174.392 503.324 173.992 506.364 173.032C509.404 171.912 511.964 170.152 514.044 167.752C516.124 165.192 517.164 161.752 517.164 157.432C517.164 153.752 516.284 149.672 514.524 145.192C512.764 140.712 510.524 136.392 507.804 132.232C505.724 128.872 503.724 125.832 501.804 123.112C500.044 120.232 498.204 117.592 496.284 115.192C503.164 110.072 508.764 105.032 513.084 100.072C517.404 95.1118 519.564 89.5918 519.564 83.5118C519.564 80.1518 518.764 76.8718 517.164 73.6718C515.564 70.3118 513.164 67.5918 509.964 65.5118C506.924 63.2718 503.084 62.1518 498.444 62.1518C492.204 62.1518 485.324 64.1518 477.804 68.1518C470.284 71.9918 462.524 76.6318 454.524 82.0718L453.804 82.5518C453.804 81.2588 453.803 79.9787 453.801 78.7113C437.104 87.9768 419.673 96.0822 401.619 102.918Z" fill="#FE6257"/>
<path fill-rule="evenodd" clip-rule="evenodd" d="M91.5783 91.6398C59.2748 76.6232 29.3114 57.4207 2.38477 34.729C3.55257 28.3475 5.55769 22.7712 8.40012 18C12.8801 10.48 19.5201 6.72 28.3201 6.72C38.4001 6.72 45.2801 11.12 48.9601 19.92C52.8001 28.56 54.7201 41.04 54.7201 57.36V64.56C57.7601 58.96 61.4401 52.88 65.7601 46.32C70.2401 39.76 75.1201 33.52 80.4001 27.6C85.6801 21.68 91.2801 16.88 97.2001 13.2C103.12 9.36 109.12 7.44 115.2 7.44C122.72 7.44 128.88 10.32 133.68 16.08C138.64 21.68 141.12 28.64 141.12 36.96C141.12 44.48 138.88 51.84 134.4 59.04C130.08 66.08 124.08 72.48 116.4 78.24C109.239 83.6108 100.965 88.0774 91.5783 91.6398ZM315.499 124.901C300.887 126.929 286.021 128.168 270.948 128.573C270.901 126.733 270.864 124.835 270.838 122.88C270.838 110.88 271.318 101.04 272.278 93.36C273.398 85.68 275.558 80.08 278.758 76.56C281.958 72.88 286.758 71.04 293.158 71.04C299.558 71.04 304.278 72.88 307.318 76.56C310.518 80.08 312.678 85.68 313.798 93.36C314.918 101.04 315.478 110.88 315.478 122.88C315.487 123.561 315.494 124.234 315.499 124.901ZM383.404 109.322C368.96 114.002 354.157 117.882 339.046 120.911C339.096 109.799 339.574 100.616 340.481 93.36C341.601 85.68 343.761 80.08 346.961 76.56C350.161 72.88 354.961 71.04 361.361 71.04C367.761 71.04 372.481 72.88 375.521 76.56C378.721 80.08 380.881 85.68 382.001 93.36C382.666 97.9194 383.134 103.24 383.404 109.322ZM453.801 78.7196C437.104 87.9851 419.673 96.0905 401.619 102.927C401.529 98.9521 401.484 94.8032 401.484 90.48C401.484 74 402.044 59.52 403.164 47.04C404.284 34.4 406.844 24.56 410.844 17.52C415.004 10.32 421.404 6.72 430.044 6.72C436.284 6.72 441.004 8.56 444.204 12.24C447.564 15.92 449.884 21.12 451.164 27.84C452.604 34.56 453.404 42.56 453.564 51.84C453.706 60.0487 453.785 69.0086 453.801 78.7196ZM257.143 128.71C242.295 128.606 227.64 127.693 213.219 126.013C215.338 122.523 216.398 117.639 216.398 111.36C216.398 106.08 216.158 101.36 215.678 97.2C215.198 93.04 214.958 88.32 214.958 83.04C214.958 77.44 216.318 72.56 219.038 68.4C221.758 64.08 227.198 61.92 235.358 61.92C243.198 61.92 249.198 65.76 253.358 73.44C257.518 81.12 259.598 91.68 259.598 105.12C259.598 113.59 258.779 121.453 257.143 128.71ZM188.122 122.28C172.971 119.53 158.117 115.928 143.611 111.523C143.496 109.429 143.438 107.294 143.438 105.12C143.438 91.68 145.518 81.12 149.678 73.44C153.998 65.76 160.078 61.92 167.918 61.92C173.518 61.92 177.758 62.96 180.638 65.04C183.678 67.12 185.678 69.76 186.638 72.96C187.758 76 188.318 79.28 188.318 82.8C188.318 87.28 187.998 91.84 187.358 96.48C186.878 101.12 186.638 106.08 186.638 111.36C186.638 115.651 187.133 119.291 188.122 122.28ZM273.238 49.92C278.678 55.52 285.318 58.32 293.158 58.32C298.278 58.32 302.918 57.04 307.078 54.48C311.398 51.76 314.838 48.24 317.398 43.92C319.958 39.44 321.238 34.48 321.238 29.04C321.238 23.6 319.958 18.72 317.398 14.4C314.838 10.08 311.398 6.64 307.078 4.08C302.918 1.36 298.278 0 293.158 0C287.878 0 283.078 1.36 278.758 4.08C274.598 6.64 271.238 10.08 268.678 14.4C266.278 18.72 265.078 23.6 265.078 29.04C265.078 37.2 267.798 44.16 273.238 49.92ZM341.441 49.92C346.881 55.52 353.521 58.32 361.361 58.32C366.481 58.32 371.121 57.04 375.281 54.48C379.601 51.76 383.041 48.24 385.601 43.92C388.161 39.44 389.441 34.48 389.441 29.04C389.441 23.6 388.161 18.72 385.601 14.4C383.041 10.08 379.601 6.64 375.281 4.08C371.121 1.36 366.481 0 361.361 0C356.081 0 351.281 1.36 346.961 4.08C342.801 6.64 339.441 10.08 336.881 14.4C334.481 18.72 333.281 23.6 333.281 29.04C333.281 37.2 336.001 44.16 341.441 49.92Z" fill="#614EFA"/>
</svg>
