<?xml version="1.0" encoding="UTF-8"?>
<!DOCTYPE svg PUBLIC "-//W3C//DTD SVG 1.1//EN" "http://www.w3.org/Graphics/SVG/1.1/DTD/svg11.dtd">
<!-- Creator: CorelDRAW 2020 (64-Bit) -->
<svg xmlns="http://www.w3.org/2000/svg" xml:space="preserve" width="108.409mm" height="34.1681mm" version="1.1" style="shape-rendering:geometricPrecision; text-rendering:geometricPrecision; image-rendering:optimizeQuality; fill-rule:evenodd; clip-rule:evenodd"
viewBox="0 0 4073.88 1284"
 xmlns:xlink="http://www.w3.org/1999/xlink"
 xmlns:xodm="http://www.corel.com/coreldraw/odm/2003">
 <defs>
  <style type="text/css">
   <![CDATA[
    .fil6 {fill:#F2704A}
    .fil5 {fill:#0A3628}
    .fil4 {fill:#AF447F}
    .fil1 {fill:#8B3F95;fill-rule:nonzero}
    .fil2 {fill:#0D0645;fill-rule:nonzero}
    .fil7 {fill:url(#id0)}
    .fil3 {fill:url(#id1)}
    .fil0 {fill:url(#id2);fill-rule:nonzero}
   ]]>
  </style>
  <linearGradient id="id0" gradientUnits="userSpaceOnUse" x1="2.77" y1="608.53" x2="1168.36" y2="608.53">
   <stop offset="0" style="stop-opacity:1; stop-color:#8B3F95"/>
   <stop offset="0.34902" style="stop-opacity:1; stop-color:#AF447F"/>
   <stop offset="0.658824" style="stop-opacity:1; stop-color:#F23E5B"/>
   <stop offset="1" style="stop-opacity:1; stop-color:#FF673A"/>
  </linearGradient>
  <linearGradient id="id1" gradientUnits="userSpaceOnUse" x1="2709.87" y1="212.66" x2="3495.5" y2="212.66">
   <stop offset="0" style="stop-opacity:1; stop-color:#FF673A"/>
   <stop offset="0.341176" style="stop-opacity:1; stop-color:#F23E5B"/>
   <stop offset="0.65098" style="stop-opacity:1; stop-color:#AF447F"/>
   <stop offset="1" style="stop-opacity:1; stop-color:#8B3F95"/>
  </linearGradient>
  <linearGradient id="id2" gradientUnits="userSpaceOnUse" x1="3037.36" y1="1248.2" x2="2947.2" y2="250.33">
   <stop offset="0" style="stop-opacity:1; stop-color:#8B3F95"/>
   <stop offset="1" style="stop-opacity:1; stop-color:#AF447F"/>
  </linearGradient>
 </defs>
 <g id="Capa_x0020_1">
  <metadata id="CorelCorpID_0Corel-Layer"/>
  <g id="_1433363865536">
   <path class="fil0" d="M3452.28 623.57c-19.7,99.93 -66.5,185.07 -140.86,255.8 -89.84,85.97 -200.67,128.43 -331.8,127.14 -131.83,-1.29 -225.77,-45.62 -281.6,-133.12 -27.33,-42.69 -43.04,-90.78 -47.03,-144.61 -31.08,73.42 -79.4,135.11 -144.84,184.84 -75.77,57.82 -155.99,86.2 -240.2,85.38 -49.26,-0.47 -93.12,-12.08 -132.53,-34.6 -22.4,-12.78 -48.32,-39.88 -69.31,-68.37l-61.22 356.54c-262.36,-209.23 -158.68,-478.64 -104.73,-770.55 24.75,-133.94 139.68,-228.59 275.96,-227.53l0.23 0 -16.54 96.29c70.84,-76.7 138.63,-117.4 246.41,-116.46 85.73,0.82 156.69,32.14 212.28,94.18 45.27,50.31 70.02,111.54 74.24,183.67 24.75,-54.54 60.99,-104.62 108.84,-150.36 90.43,-86.56 203.72,-129.13 339.18,-127.84 124.56,1.17 215.57,45.86 272.68,133.82 19.7,30.5 33.54,63.33 41.52,98.52 14.19,-63.8 58.17,-125.37 119.16,-165.14 138.51,-90.19 383.05,-89.02 501.74,35.54l-157.63 135.93c-38.7,-24.75 -56.88,-47.38 -135.34,-56.06 -46.56,-5.16 -91.13,13.6 -98.28,49.61 -9.27,47.38 112.94,74 144.84,81.75 195.04,47.73 219.91,252.04 49.61,388.91 -169.83,136.52 -382.46,83.74 -538.57,-32.96l162.09 -138.87c29.09,36.12 88.55,69.2 144.03,70.72 48.79,1.29 106.84,1.53 117.75,-65.68 10.91,-67.2 -152.59,-69.9 -206.89,-98.17 -49.96,-26.04 -80.81,-61.1 -95.94,-100.04 -1.41,16.77 -3.75,34.01 -7.27,51.72l0 -0zm-992.81 2.47c8.44,-46.91 2,-87.96 -19.82,-122.68 -27.21,-44.57 -68.5,-66.97 -123.5,-67.44 -49.61,-0.47 -94.88,17.47 -135.7,53.36 -40.81,36 -65.8,80.34 -75.41,133.35 -9.38,52.43 -0.12,97.11 27.91,134.06 28.03,36.94 66.5,55.59 115.53,56.06 55,0.47 103.91,-21 146.49,-64.86 34.95,-35.42 56.41,-76.12 64.62,-121.86l-0.12 0zm764.8 -4.69c10.09,-51.14 2,-94.65 -23.81,-130.42 -25.8,-36.12 -62.16,-54.19 -108.6,-54.65 -52.9,-0.47 -100.04,20.53 -142.03,63.57 -33.78,34.6 -55,74 -63.69,118.22 -8.91,45.04 -3.4,85.03 16.77,120.22 24.86,43.63 63.57,65.56 116.46,66.15 47.03,0.47 90.31,-16.89 130.18,-52.31 39.53,-35.19 64.39,-78.58 74.71,-130.65l0 -0.12z"/>
   <polygon class="fil1" points="1683.06,592.61 1604.13,722.67 1787.92,722.67 1817.12,592.61 "/>
   <path class="fil2" d="M2119.35 1165.3l20.29 0c12.31,0 21,1.06 26.04,3.28 6.22,2.7 11.03,6.45 14.19,11.14 3.28,4.81 4.81,10.32 4.81,16.77 0,7.04 -1.88,13.37 -5.75,19.12 -3.75,5.75 -8.91,9.85 -15.25,12.43 -6.45,2.58 -17,3.99 -31.9,4.22l-6.69 48.91 -21.81 0 15.83 -115.87 0.23 -0zm15.48 46.68c11.73,0 19.35,-1.29 22.87,-3.75 3.64,-2.46 5.4,-5.98 5.4,-10.79 0,-2.7 -0.7,-4.93 -2.11,-6.8 -1.41,-1.88 -3.52,-3.17 -6.22,-3.87 -2.7,-0.7 -8.21,-1.06 -16.3,-1.06l-3.64 26.27zm110.36 -46.68l21.7 0 -9.73 71.43c-0.82,6.22 -1.29,10.56 -1.29,13.14 0,4.34 1.41,7.74 4.1,10.09 2.7,2.46 6.69,3.64 11.73,3.64 4.22,0 7.74,-0.94 10.91,-2.7 2.34,-1.29 4.22,-3.64 5.51,-6.8 1.41,-3.17 2.81,-9.38 4.1,-18.77l9.62 -70.02 22.05 0 -9.38 69.08c-2,14.19 -4.46,24.4 -7.62,30.61 -3.17,6.22 -7.74,10.91 -13.6,14.19 -5.98,3.17 -13.25,4.81 -21.81,4.81 -11.61,0 -20.53,-3.05 -26.97,-9.27 -6.45,-6.1 -9.73,-14.54 -9.73,-25.22 0,-4.57 0.59,-11.5 1.88,-20.53l8.68 -63.8 -0.12 0.11zm140.62 0l18.77 0 41.87 78.7 10.79 -78.7 21.34 0 -15.83 115.87 -18.65 0 -42.34 -79.64 -10.91 79.64 -20.88 0 15.83 -115.87zm140.5 0l70.6 0 -2.58 20.64 -24.04 0 -13.02 95.23 -21.58 0 13.02 -95.23 -25.22 0 2.7 -20.64 0.12 0zm172.52 -2.93c15.95,0 29.09,5.16 39.41,15.36 10.32,10.2 15.48,23.22 15.48,38.94 0,12.08 -3.05,23.46 -9.15,34.13 -6.1,10.67 -14.31,18.88 -24.4,24.63 -10.2,5.75 -21.81,8.56 -35.07,8.56 -16.54,0 -29.67,-4.93 -39.53,-14.66 -9.85,-9.73 -14.78,-22.64 -14.78,-38.59 0,-18.18 5.86,-33.66 17.71,-46.68 13.14,-14.54 29.91,-21.7 50.31,-21.7l-0 0zm-0.82 20.53c-8.33,0 -15.83,2 -22.75,5.98 -6.8,3.99 -12.43,9.73 -16.54,17.36 -4.22,7.5 -6.33,15.36 -6.33,23.34 0,9.5 2.93,17.59 8.8,24.16 5.86,6.57 14.19,9.97 25.22,9.97 12.67,0 23.46,-4.46 32.37,-13.37 8.8,-8.91 13.25,-19.82 13.25,-32.49 0,-10.56 -3.17,-19 -9.38,-25.33 -6.22,-6.33 -14.43,-9.5 -24.51,-9.5l-0.12 -0.12zm240.08 -17.59l18.41 0c17.24,0 30.03,2 38.47,6.1 8.44,4.1 15.25,10.44 20.53,19.12 5.28,8.68 7.86,18.77 7.86,30.14 0,11.73 -2.81,22.4 -8.44,32.25 -5.63,9.73 -12.67,16.89 -21.11,21.46 -8.56,4.46 -20.41,6.69 -35.54,6.69l-36 0 15.83 -115.87 0 0.12zm19.24 20.29l-10.32 75.18 7.16 0c11.03,0 19,-0.94 23.93,-2.7 6.92,-2.58 12.55,-7.16 16.65,-13.49 4.22,-6.33 6.33,-14.19 6.33,-23.57 0,-7.62 -1.53,-14.07 -4.46,-19.23 -2.93,-5.16 -7.16,-9.15 -12.55,-11.96 -5.4,-2.81 -12.55,-4.22 -21.46,-4.22l-5.51 0 0.23 -0zm128.89 -20.29l62.4 0 -2.7 20.53 -40.7 0 -3.28 24.04 40.81 0 -2.58 20.29 -41.05 0 -4.22 30.84 41.28 0 -2.58 20.17 -63.22 0 15.83 -115.87 0 0zm229.41 0l21.23 0 20.76 83.62 44.8 -83.62 23.46 0 -62.04 115.87 -19.47 0 -28.73 -115.87zm160.91 0l62.4 0 -2.7 20.53 -40.7 0 -3.28 24.04 40.81 0 -2.58 20.29 -41.05 0 -4.22 30.84 41.28 0 -2.58 20.17 -63.22 0 15.83 -115.87 0 0zm121.86 0l18.77 0 41.87 78.7 10.79 -78.7 21.34 0 -15.83 115.87 -18.65 0 -42.34 -79.64 -10.91 79.64 -20.88 0 15.83 -115.87zm140.5 0l70.6 0 -2.58 20.64 -24.04 0 -13.02 95.23 -21.58 0 13.02 -95.23 -25.22 0 2.7 -20.64 0.12 0zm158.57 0l18.3 0 28.85 115.87 -21.11 0 -6.22 -24.63 -45.86 0 -13.25 24.63 -23.34 0 62.51 -115.87 0.12 0zm14.66 70.6l-9.27 -38 -20.29 38 29.56 0z"/>
   <path class="fil3" d="M3204.46 17.8c183.78,-2.7 345.87,82.45 436.88,212.05 -31.9,10.91 -61.81,25.1 -88.31,42.34 -39.17,25.45 -73.65,60.17 -98.52,100.51 -4.34,-8.09 -9.03,-15.95 -14.07,-23.69 -68.96,-106.26 -177.57,-148.37 -301.42,-149.65 -138.75,-1.41 -262.83,41.05 -363.58,137.46 -24.86,23.81 -47.5,49.5 -67.44,77.06 32.25,-220.37 241.14,-392.43 496.46,-396.07z"/>
   <path class="fil4" d="M3198.13 44.43c162.32,-2.34 307.75,63.8 402.17,168.54l-21.46 10.91c-94.53,-98.87 -235.74,-160.56 -392.67,-158.33 -190.7,2.81 -355.49,99.46 -440.17,239.96 80.34,-151.88 251.93,-258.26 452.13,-261.19l0 0.11z"/>
   <circle class="fil5" cx="2834.67" cy="1223.12" r="11.49"/>
   <circle class="fil5" cx="3239.18" cy="1223.12" r="11.49"/>
   <path class="fil6" d="M1411.48 371.74l-214.62 -371.74 225.47 0 205.73 356.34c12.53,21.7 12.41,46.61 -0.32,68.19l-169.86 287.93 -223.45 3.51 177.05 -306.66c6.9,-11.95 6.9,-25.63 0,-37.58zm-131.06 317.2l162.3 -2.55 162.37 -275.23c7.91,-13.41 7.98,-28.18 0.2,-41.67l-198.14 -343.19 -164.73 0 191.84 332.28c11.6,20.09 11.6,43.79 0,63.88l-153.84 266.47z"/>
   <path class="fil7" d="M1137.57 1236.68l-182.08 0c-13.8,0 -25.65,-6.84 -32.55,-18.79l-85.62 -148.29c-3.45,-5.98 -9.37,-9.39 -16.27,-9.39 -6.9,0 -12.82,3.42 -16.27,9.39l-85.62 148.29c-6.9,11.95 -18.75,18.79 -32.55,18.79l-182.08 0c-13.8,0 -25.65,-6.84 -32.55,-18.79l-466.83 -808.57c-6.9,-11.95 -6.9,-25.63 0,-37.58l203.78 -352.95c6.9,-11.95 18.75,-18.79 32.55,-18.79l182.08 0c13.8,0 25.64,6.84 32.54,18.79l348.67 603.91c3.45,5.98 9.37,9.39 16.27,9.39 6.9,0 12.82,-3.42 16.27,-9.39l284.36 -492.52 112.74 195.27 -295.21 511.31c-3.45,5.98 -3.45,12.81 0,18.79l91.04 157.68c3.45,5.98 9.37,9.39 16.27,9.39 6.9,0 12.82,-3.42 16.27,-9.39l96.47 -167.08 225.47 0 -214.62 371.74c-6.9,11.95 -18.75,18.79 -32.55,18.79zm-912.35 -855.54l91.05 -157.69c3.45,-5.98 9.37,-9.39 16.27,-9.39 6.9,0 12.82,3.42 16.27,9.39l354.09 613.31c3.45,5.98 3.45,12.81 0,18.79l-91.04 157.68c-3.45,5.98 -9.37,9.39 -16.27,9.39 -6.9,0 -12.82,-3.42 -16.27,-9.39l-354.1 -613.3c-3.45,-5.98 -3.45,-12.81 0,-18.79z"/>
  </g>
 </g>
</svg>
